<svg width="1920" height="1063" viewBox="0 0 1920 1063" fill="none" xmlns="http://www.w3.org/2000/svg">
<mask id="mask0" style="mask-type:alpha" maskUnits="userSpaceOnUse" x="-456" y="-283" width="2791" height="1346">
<ellipse cx="939.5" cy="390" rx="1395.5" ry="673" fill="#C4C4C4"/>
</mask>
<g mask="url(#mask0)">
<rect x="-1" y="-76" width="1922" height="1483" fill="url(#paint0_linear)"/>
<path d="M344 306C344 111.696 186.304 -46 -8 -46L-8.00003 306L344 306Z" fill="#8281FF"/>
<path d="M1942 392C1589.82 392 1304 677.824 1304 1030L1942 1030L1942 392Z" fill="#36BDFF"/>
<path d="M515 673C363.2 673 240 796.2 240 948L515 948L515 673Z" fill="#8281FF"/>
<path d="M1941 140L1941 -90L1712.12 -90L1941 140Z" fill="#36BDFF"/>
</g>
<defs>
<linearGradient id="paint0_linear" x1="1921" y1="-111.31" x2="-311.678" y2="954.357" gradientUnits="userSpaceOnUse">
<stop stop-color="#35D3FF"/>
<stop offset="1" stop-color="#A963FB"/>
</linearGradient>
</defs>
</svg>
