<?xml version="1.0" standalone="no"?>
<svg xmlns:xlink="http://www.w3.org/1999/xlink" id="wave" style="transform:rotate(180deg); transition: 0.3s" viewBox="0 0 1440 490" version="1.1" xmlns="http://www.w3.org/2000/svg"><defs><linearGradient id="sw-gradient-0" x1="0" x2="0" y1="1" y2="0"><stop stop-color="rgba(255, 0, 75, 1)" offset="0%"/><stop stop-color="rgba(255, 0, 75, 1)" offset="100%"/></linearGradient></defs><path style="transform:translate(0, 0px); opacity:1" fill="url(#sw-gradient-0)" d="M0,49L120,73.5C240,98,480,147,720,147C960,147,1200,98,1440,98C1680,98,1920,147,2160,187.8C2400,229,2640,261,2880,277.7C3120,294,3360,294,3600,269.5C3840,245,4080,196,4320,220.5C4560,245,4800,343,5040,383.8C5280,425,5520,408,5760,351.2C6000,294,6240,196,6480,179.7C6720,163,6960,229,7200,261.3C7440,294,7680,294,7920,277.7C8160,261,8400,229,8640,187.8C8880,147,9120,98,9360,114.3C9600,131,9840,212,10080,261.3C10320,310,10560,327,10800,277.7C11040,229,11280,114,11520,122.5C11760,131,12000,261,12240,326.7C12480,392,12720,392,12960,343C13200,294,13440,196,13680,155.2C13920,114,14160,131,14400,155.2C14640,180,14880,212,15120,212.3C15360,212,15600,180,15840,138.8C16080,98,16320,49,16560,65.3C16800,82,17040,163,17160,204.2L17280,245L17280,490L17160,490C17040,490,16800,490,16560,490C16320,490,16080,490,15840,490C15600,490,15360,490,15120,490C14880,490,14640,490,14400,490C14160,490,13920,490,13680,490C13440,490,13200,490,12960,490C12720,490,12480,490,12240,490C12000,490,11760,490,11520,490C11280,490,11040,490,10800,490C10560,490,10320,490,10080,490C9840,490,9600,490,9360,490C9120,490,8880,490,8640,490C8400,490,8160,490,7920,490C7680,490,7440,490,7200,490C6960,490,6720,490,6480,490C6240,490,6000,490,5760,490C5520,490,5280,490,5040,490C4800,490,4560,490,4320,490C4080,490,3840,490,3600,490C3360,490,3120,490,2880,490C2640,490,2400,490,2160,490C1920,490,1680,490,1440,490C1200,490,960,490,720,490C480,490,240,490,120,490L0,490Z"/><defs><linearGradient id="sw-gradient-1" x1="0" x2="0" y1="1" y2="0"><stop stop-color="rgba(255, 0, 75, 1)" offset="0%"/><stop stop-color="rgba(255, 220, 106, 1)" offset="100%"/></linearGradient></defs><path style="transform:translate(0, 50px); opacity:0.9" fill="url(#sw-gradient-1)" d="M0,0L120,32.7C240,65,480,131,720,130.7C960,131,1200,65,1440,32.7C1680,0,1920,0,2160,8.2C2400,16,2640,33,2880,49C3120,65,3360,82,3600,106.2C3840,131,4080,163,4320,196C4560,229,4800,261,5040,269.5C5280,278,5520,261,5760,285.8C6000,310,6240,376,6480,334.8C6720,294,6960,147,7200,106.2C7440,65,7680,131,7920,163.3C8160,196,8400,196,8640,212.3C8880,229,9120,261,9360,245C9600,229,9840,163,10080,179.7C10320,196,10560,294,10800,310.3C11040,327,11280,261,11520,204.2C11760,147,12000,98,12240,98C12480,98,12720,147,12960,204.2C13200,261,13440,327,13680,302.2C13920,278,14160,163,14400,130.7C14640,98,14880,147,15120,204.2C15360,261,15600,327,15840,334.8C16080,343,16320,294,16560,302.2C16800,310,17040,376,17160,408.3L17280,441L17280,490L17160,490C17040,490,16800,490,16560,490C16320,490,16080,490,15840,490C15600,490,15360,490,15120,490C14880,490,14640,490,14400,490C14160,490,13920,490,13680,490C13440,490,13200,490,12960,490C12720,490,12480,490,12240,490C12000,490,11760,490,11520,490C11280,490,11040,490,10800,490C10560,490,10320,490,10080,490C9840,490,9600,490,9360,490C9120,490,8880,490,8640,490C8400,490,8160,490,7920,490C7680,490,7440,490,7200,490C6960,490,6720,490,6480,490C6240,490,6000,490,5760,490C5520,490,5280,490,5040,490C4800,490,4560,490,4320,490C4080,490,3840,490,3600,490C3360,490,3120,490,2880,490C2640,490,2400,490,2160,490C1920,490,1680,490,1440,490C1200,490,960,490,720,490C480,490,240,490,120,490L0,490Z"/><defs><linearGradient id="sw-gradient-2" x1="0" x2="0" y1="1" y2="0"><stop stop-color="rgba(255, 0, 75, 1)" offset="0%"/><stop stop-color="rgba(255, 220, 106, 1)" offset="100%"/></linearGradient></defs><path style="transform:translate(0, 100px); opacity:0.8" fill="url(#sw-gradient-2)" d="M0,0L120,57.2C240,114,480,229,720,277.7C960,327,1200,310,1440,253.2C1680,196,1920,98,2160,122.5C2400,147,2640,294,2880,351.2C3120,408,3360,376,3600,367.5C3840,359,4080,376,4320,326.7C4560,278,4800,163,5040,114.3C5280,65,5520,82,5760,89.8C6000,98,6240,98,6480,155.2C6720,212,6960,327,7200,351.2C7440,376,7680,310,7920,302.2C8160,294,8400,343,8640,351.2C8880,359,9120,327,9360,326.7C9600,327,9840,359,10080,383.8C10320,408,10560,425,10800,392C11040,359,11280,278,11520,253.2C11760,229,12000,261,12240,253.2C12480,245,12720,196,12960,212.3C13200,229,13440,310,13680,310.3C13920,310,14160,229,14400,204.2C14640,180,14880,212,15120,187.8C15360,163,15600,82,15840,40.8C16080,0,16320,0,16560,24.5C16800,49,17040,98,17160,122.5L17280,147L17280,490L17160,490C17040,490,16800,490,16560,490C16320,490,16080,490,15840,490C15600,490,15360,490,15120,490C14880,490,14640,490,14400,490C14160,490,13920,490,13680,490C13440,490,13200,490,12960,490C12720,490,12480,490,12240,490C12000,490,11760,490,11520,490C11280,490,11040,490,10800,490C10560,490,10320,490,10080,490C9840,490,9600,490,9360,490C9120,490,8880,490,8640,490C8400,490,8160,490,7920,490C7680,490,7440,490,7200,490C6960,490,6720,490,6480,490C6240,490,6000,490,5760,490C5520,490,5280,490,5040,490C4800,490,4560,490,4320,490C4080,490,3840,490,3600,490C3360,490,3120,490,2880,490C2640,490,2400,490,2160,490C1920,490,1680,490,1440,490C1200,490,960,490,720,490C480,490,240,490,120,490L0,490Z"/></svg>