  0
SECTION
  2
HEADER
  9
$ACADVER
  1
AC1032
  9
$ACADMAINTVER
 90
      197
  9
$DWGCODEPAGE
  3
ANSI_1252
  9
$REQUIREDVERSIONS
160
                 0
  9
$INSBASE
 10
0.0
 20
0.0
 30
0.0
  9
$EXTMIN
 10
1.000000000000000E+20
 20
1.000000000000000E+20
 30
1.000000000000000E+20
  9
$EXTMAX
 10
-1.000000000000000E+20
 20
-1.000000000000000E+20
 30
-1.000000000000000E+20
  9
$LIMMIN
 10
0.0
 20
0.0
  9
$LIMMAX
 10
12.0
 20
9.0
  9
$ORTHOMODE
 70
     0
  9
$REGENMODE
 70
     1
  9
$FILLMODE
 70
     1
  9
$QTEXTMODE
 70
     0
  9
$MIRRTEXT
 70
     0
  9
$LTSCALE
 40
1.0
  9
$ATTMODE
 70
     1
  9
$TEXTSIZE
 40
0.2
  9
$TRACEWID
 40
0.05
  9
$TEXTSTYLE
  7
Standard
  9
$CLAYER
  8
0
  9
$CELTYPE
  6
ByLayer
  9
$CECOLOR
 62
   256
  9
$CELTSCALE
 40
1.0
  9
$DISPSILH
 70
     0
  9
$DIMSCALE
 40
1.0
  9
$DIMASZ
 40
0.18
  9
$DIMEXO
 40
0.0625
  9
$DIMDLI
 40
0.38
  9
$DIMRND
 40
0.0
  9
$DIMDLE
 40
0.0
  9
$DIMEXE
 40
0.18
  9
$DIMTP
 40
0.0
  9
$DIMTM
 40
0.0
  9
$DIMTXT
 40
0.18
  9
$DIMCEN
 40
0.09
  9
$DIMTSZ
 40
0.0
  9
$DIMTOL
 70
     0
  9
$DIMLIM
 70
     0
  9
$DIMTIH
 70
     1
  9
$DIMTOH
 70
     1
  9
$DIMSE1
 70
     0
  9
$DIMSE2
 70
     0
  9
$DIMTAD
 70
     0
  9
$DIMZIN
 70
     0
  9
$DIMBLK
  1

  9
$DIMASO
 70
     1
  9
$DIMSHO
 70
     1
  9
$DIMPOST
  1

  9
$DIMAPOST
  1

  9
$DIMALT
 70
     0
  9
$DIMALTD
 70
     2
  9
$DIMALTF
 40
25.4
  9
$DIMLFAC
 40
1.0
  9
$DIMTOFL
 70
     0
  9
$DIMTVP
 40
0.0
  9
$DIMTIX
 70
     0
  9
$DIMSOXD
 70
     0
  9
$DIMSAH
 70
     0
  9
$DIMBLK1
  1

  9
$DIMBLK2
  1

  9
$DIMSTYLE
  2
Standard
  9
$DIMCLRD
 70
     0
  9
$DIMCLRE
 70
     0
  9
$DIMCLRT
 70
     0
  9
$DIMTFAC
 40
1.0
  9
$DIMGAP
 40
0.09
  9
$DIMJUST
 70
     0
  9
$DIMSD1
 70
     0
  9
$DIMSD2
 70
     0
  9
$DIMTOLJ
 70
     1
  9
$DIMTZIN
 70
     0
  9
$DIMALTZ
 70
     0
  9
$DIMALTTZ
 70
     0
  9
$DIMUPT
 70
     0
  9
$DIMDEC
 70
     4
  9
$DIMTDEC
 70
     4
  9
$DIMALTU
 70
     2
  9
$DIMALTTD
 70
     2
  9
$DIMTXSTY
  7
Standard
  9
$DIMAUNIT
 70
     0
  9
$DIMADEC
 70
     0
  9
$DIMALTRND
 40
0.0
  9
$DIMAZIN
 70
     0
  9
$DIMDSEP
 70
    46
  9
$DIMATFIT
 70
     3
  9
$DIMFRAC
 70
     0
  9
$DIMLDRBLK
  1

  9
$DIMLUNIT
 70
     2
  9
$DIMLWD
 70
    -2
  9
$DIMLWE
 70
    -2
  9
$DIMTMOVE
 70
     0
  9
$DIMFXL
 40
1.0
  9
$DIMFXLON
 70
     0
  9
$DIMJOGANG
 40
0.7853981633974483
  9
$DIMTFILL
 70
     0
  9
$DIMTFILLCLR
 70
     0
  9
$DIMARCSYM
 70
     0
  9
$DIMLTYPE
  6

  9
$DIMLTEX1
  6

  9
$DIMLTEX2
  6

  9
$DIMTXTDIRECTION
 70
     0
  9
$LUNITS
 70
     2
  9
$LUPREC
 70
     4
  9
$SKETCHINC
 40
0.1
  9
$FILLETRAD
 40
0.0
  9
$AUNITS
 70
     0
  9
$AUPREC
 70
     0
  9
$MENU
  1
.
  9
$ELEVATION
 40
0.0
  9
$PELEVATION
 40
0.0
  9
$THICKNESS
 40
0.0
  9
$LIMCHECK
 70
     0
  9
$CHAMFERA
 40
0.0
  9
$CHAMFERB
 40
0.0
  9
$CHAMFERC
 40
0.0
  9
$CHAMFERD
 40
0.0
  9
$SKPOLY
 70
     0
  9
$TDCREATE
 40
2459628.463599537
  9
$TDUCREATE
 40
2459628.130266203
  9
$TDUPDATE
 40
2459628.463599537
  9
$TDUUPDATE
 40
2459628.130266203
  9
$TDINDWG
 40
0.0000000000
  9
$TDUSRTIMER
 40
0.0000000000
  9
$USRTIMER
 70
     1
  9
$ANGBASE
 50
0.0
  9
$ANGDIR
 70
     0
  9
$PDMODE
 70
     0
  9
$PDSIZE
 40
0.0
  9
$PLINEWID
 40
0.0
  9
$SPLFRAME
 70
     0
  9
$SPLINETYPE
 70
     6
  9
$SPLINESEGS
 70
     8
  9
$HANDSEED
  5
15F
  9
$SURFTAB1
 70
     6
  9
$SURFTAB2
 70
     6
  9
$SURFTYPE
 70
     6
  9
$SURFU
 70
     6
  9
$SURFV
 70
     6
  9
$UCSBASE
  2

  9
$UCSNAME
  2

  9
$UCSORG
 10
0.0
 20
0.0
 30
0.0
  9
$UCSXDIR
 10
1.0
 20
0.0
 30
0.0
  9
$UCSYDIR
 10
0.0
 20
1.0
 30
0.0
  9
$UCSORTHOREF
  2

  9
$UCSORTHOVIEW
 70
     0
  9
$UCSORGTOP
 10
0.0
 20
0.0
 30
0.0
  9
$UCSORGBOTTOM
 10
0.0
 20
0.0
 30
0.0
  9
$UCSORGLEFT
 10
0.0
 20
0.0
 30
0.0
  9
$UCSORGRIGHT
 10
0.0
 20
0.0
 30
0.0
  9
$UCSORGFRONT
 10
0.0
 20
0.0
 30
0.0
  9
$UCSORGBACK
 10
0.0
 20
0.0
 30
0.0
  9
$PUCSBASE
  2

  9
$PUCSNAME
  2

  9
$PUCSORG
 10
0.0
 20
0.0
 30
0.0
  9
$PUCSXDIR
 10
1.0
 20
0.0
 30
0.0
  9
$PUCSYDIR
 10
0.0
 20
1.0
 30
0.0
  9
$PUCSORTHOREF
  2

  9
$PUCSORTHOVIEW
 70
     0
  9
$PUCSORGTOP
 10
0.0
 20
0.0
 30
0.0
  9
$PUCSORGBOTTOM
 10
0.0
 20
0.0
 30
0.0
  9
$PUCSORGLEFT
 10
0.0
 20
0.0
 30
0.0
  9
$PUCSORGRIGHT
 10
0.0
 20
0.0
 30
0.0
  9
$PUCSORGFRONT
 10
0.0
 20
0.0
 30
0.0
  9
$PUCSORGBACK
 10
0.0
 20
0.0
 30
0.0
  9
$USERI1
 70
     0
  9
$USERI2
 70
     0
  9
$USERI3
 70
     0
  9
$USERI4
 70
     0
  9
$USERI5
 70
     0
  9
$USERR1
 40
0.0
  9
$USERR2
 40
0.0
  9
$USERR3
 40
0.0
  9
$USERR4
 40
0.0
  9
$USERR5
 40
0.0
  9
$WORLDVIEW
 70
     1
  9
$SHADEDGE
 70
     3
  9
$SHADEDIF
 70
    70
  9
$TILEMODE
 70
     1
  9
$MAXACTVP
 70
    64
  9
$PINSBASE
 10
0.0
 20
0.0
 30
0.0
  9
$PLIMCHECK
 70
     0
  9
$PEXTMIN
 10
1.000000000000000E+20
 20
1.000000000000000E+20
 30
1.000000000000000E+20
  9
$PEXTMAX
 10
-1.000000000000000E+20
 20
-1.000000000000000E+20
 30
-1.000000000000000E+20
  9
$PLIMMIN
 10
0.0
 20
0.0
  9
$PLIMMAX
 10
12.0
 20
9.0
  9
$UNITMODE
 70
     0
  9
$VISRETAIN
 70
     1
  9
$PLINEGEN
 70
     0
  9
$PSLTSCALE
 70
     1
  9
$TREEDEPTH
 70
  3020
  9
$CMLSTYLE
  2
Standard
  9
$CMLJUST
 70
     0
  9
$CMLSCALE
 40
1.0
  9
$PROXYGRAPHICS
 70
     1
  9
$MEASUREMENT
 70
     0
  9
$CELWEIGHT
370
    -1
  9
$ENDCAPS
280
     0
  9
$JOINSTYLE
280
     0
  9
$LWDISPLAY
290
     1
  9
$INSUNITS
 70
     4
  9
$HYPERLINKBASE
  1

  9
$STYLESHEET
  1

  9
$XEDIT
290
     1
  9
$CEPSNTYPE
380
     0
  9
$PSTYLEMODE
290
     1
  9
$FINGERPRINTGUID
  2
{BE102AA6-2D63-BA4A-B7D7-46DEC2B6A054}
  9
$VERSIONGUID
  2
{08AA1098-3979-FA4F-BD91-662F19DB3C0A}
  9
$EXTNAMES
290
     1
  9
$PSVPSCALE
 40
0.0
  9
$OLESTARTUP
290
     0
  9
$SORTENTS
280
   127
  9
$INDEXCTL
280
     0
  9
$HIDETEXT
280
     1
  9
$XCLIPFRAME
280
     2
  9
$HALOGAP
280
     0
  9
$OBSCOLOR
 70
   257
  9
$OBSLTYPE
280
     0
  9
$INTERSECTIONDISPLAY
280
     0
  9
$INTERSECTIONCOLOR
 70
   257
  9
$DIMASSOC
280
     2
  9
$PROJECTNAME
  1

  9
$CAMERADISPLAY
290
     0
  9
$LENSLENGTH
 40
50.0
  9
$CAMERAHEIGHT
 40
0.0
  9
$STEPSPERSEC
 40
2.0
  9
$STEPSIZE
 40
6.0
  9
$3DDWFPREC
 40
2.0
  9
$PSOLWIDTH
 40
0.25
  9
$PSOLHEIGHT
 40
4.0
  9
$LOFTANG1
 40
1.570796326794896
  9
$LOFTANG2
 40
1.570796326794896
  9
$LOFTMAG1
 40
0.0
  9
$LOFTMAG2
 40
0.0
  9
$LOFTPARAM
 70
     7
  9
$LOFTNORMALS
280
     1
  9
$LATITUDE
 40
37.795
  9
$LONGITUDE
 40
-122.394
  9
$NORTHDIRECTION
 40
0.0
  9
$TIMEZONE
 70
 -8000
  9
$LIGHTGLYPHDISPLAY
280
     1
  9
$TILEMODELIGHTSYNCH
280
     1
  9
$CMATERIAL
347
11
  9
$SOLIDHIST
280
     0
  9
$SHOWHIST
280
     1
  9
$DWFFRAME
280
     2
  9
$DGNFRAME
280
     0
  9
$REALWORLDSCALE
290
     1
  9
$INTERFERECOLOR
 62
     1
  9
$INTERFEREOBJVS
345
33
  9
$INTERFEREVPVS
346
30
  9
$CSHADOW
280
     0
  9
$SHADOWPLANELOCATION
 40
0.0
  0
ENDSEC
  0
SECTION
  2
CLASSES
  0
CLASS
  1
ACDBDICTIONARYWDFLT
  2
AcDbDictionaryWithDefault
  3
ObjectDBX Classes
 90
        0
 91
        1
280
     0
281
     0
  0
CLASS
  1
MATERIAL
  2
AcDbMaterial
  3
ObjectDBX Classes
 90
     1153
 91
        3
280
     0
281
     0
  0
CLASS
  1
VISUALSTYLE
  2
AcDbVisualStyle
  3
ObjectDBX Classes
 90
     4095
 91
       24
280
     0
281
     0
  0
CLASS
  1
SCALE
  2
AcDbScale
  3
ObjectDBX Classes
 90
     1153
 91
       17
280
     0
281
     0
  0
CLASS
  1
TABLESTYLE
  2
AcDbTableStyle
  3
ObjectDBX Classes
 90
     4095
 91
        1
280
     0
281
     0
  0
CLASS
  1
MLEADERSTYLE
  2
AcDbMLeaderStyle
  3
ACDB_MLEADERSTYLE_CLASS
 90
     4095
 91
        1
280
     0
281
     0
  0
CLASS
  1
ACDBSECTIONVIEWSTYLE
  2
AcDbSectionViewStyle
  3
ObjectDBX Classes
 90
     1025
 91
        1
280
     0
281
     0
  0
CLASS
  1
ACDBDETAILVIEWSTYLE
  2
AcDbDetailViewStyle
  3
ObjectDBX Classes
 90
     1025
 91
        1
280
     0
281
     0
  0
CLASS
  1
DICTIONARYVAR
  2
AcDbDictionaryVar
  3
ObjectDBX Classes
 90
        0
 91
        5
280
     0
281
     0
  0
CLASS
  1
CELLSTYLEMAP
  2
AcDbCellStyleMap
  3
ObjectDBX Classes
 90
     1152
 91
        1
280
     0
281
     0
  0
ENDSEC
  0
SECTION
  2
TABLES
  0
TABLE
  2
VPORT
  5
8
330
0
100
AcDbSymbolTable
 70
     1
  0
VPORT
  5
57
330
8
100
AcDbSymbolTableRecord
100
AcDbViewportTableRecord
  2
*Active
 70
     0
 10
0.0
 20
0.0
 11
1.0
 21
1.0
 12
0.0
 22
0.0
 13
0.0
 23
0.0
 14
1.0
 24
1.0
 15
0.0
 25
0.0
 16
0.0
 26
0.0
 36
1.0
 17
107.9499999730125
 27
139.699999965075
 37
0.0
 40
284.987999928753
 41
0.7727272727272729
 42
50.0
 43
0.0
 44
0.0
 50
0.0
 51
0.0
 71
     0
 72
   100
 73
     1
 74
     1
 75
     0
 76
     0
 77
     0
 78
     0
281
     0
 65
     1
110
0.0
120
0.0
130
0.0
111
1.0
121
0.0
131
0.0
112
0.0
122
1.0
132
0.0
 79
     0
146
0.0
 60
     3
 61
     5
292
     1
282
     1
141
0.0
142
0.0
 63
   250
421
  3355443
  0
ENDTAB
  0
TABLE
  2
LTYPE
  5
5
330
0
100
AcDbSymbolTable
 70
     1
  0
LTYPE
  5
5B
330
5
100
AcDbSymbolTableRecord
100
AcDbLinetypeTableRecord
  2
ByBlock
 70
     0
  3

 72
    65
 73
     0
 40
0.0
  0
LTYPE
  5
5C
330
5
100
AcDbSymbolTableRecord
100
AcDbLinetypeTableRecord
  2
ByLayer
 70
     0
  3

 72
    65
 73
     0
 40
0.0
  0
LTYPE
  5
5D
330
5
100
AcDbSymbolTableRecord
100
AcDbLinetypeTableRecord
  2
Continuous
 70
     0
  3
Solid line
 72
    65
 73
     0
 40
0.0
  0
ENDTAB
  0
TABLE
  2
LAYER
  5
2
330
0
100
AcDbSymbolTable
 70
     1
  0
LAYER
  5
54
330
2
100
AcDbSymbolTableRecord
100
AcDbLayerTableRecord
  2
0
 70
     0
 62
     7
  6
Continuous
370
     0
390
F
347
21
348
0
  0
ENDTAB
  0
TABLE
  2
STYLE
  5
3
330
0
100
AcDbSymbolTable
 70
     2
  0
STYLE
  5
55
330
3
100
AcDbSymbolTableRecord
100
AcDbTextStyleTableRecord
  2
Standard
 70
     0
 40
0.0
 41
1.0
 50
0.0
 71
     0
 42
0.2
  3
txt
  4

  0
STYLE
  5
5A
330
3
100
AcDbSymbolTableRecord
100
AcDbTextStyleTableRecord
  2
Annotative
 70
     0
 40
0.0
 41
1.0
 50
0.0
 71
     0
 42
0.2
  3
txt
  4

1001
AcadAnnotative
1000
AnnotativeData
1002
{
1070
     1
1070
     1
1002
}
  0
ENDTAB
  0
TABLE
  2
VIEW
  5
6
330
0
100
AcDbSymbolTable
 70
     0
  0
ENDTAB
  0
TABLE
  2
UCS
  5
7
330
0
100
AcDbSymbolTable
 70
     0
  0
ENDTAB
  0
TABLE
  2
APPID
  5
9
330
0
100
AcDbSymbolTable
 70
     2
  0
APPID
  5
56
330
9
100
AcDbSymbolTableRecord
100
AcDbRegAppTableRecord
  2
ACAD
 70
     0
  0
APPID
  5
5E
330
9
100
AcDbSymbolTableRecord
100
AcDbRegAppTableRecord
  2
AcadAnnotative
 70
     0
  0
ENDTAB
  0
TABLE
  2
DIMSTYLE
  5
A
330
0
100
AcDbSymbolTable
 70
     2
100
AcDbDimStyleTable
 71
     0
  0
DIMSTYLE
105
58
330
A
100
AcDbSymbolTableRecord
100
AcDbDimStyleTableRecord
  2
Standard
 70
     0
340
55
  0
DIMSTYLE
105
59
330
A
100
AcDbSymbolTableRecord
100
AcDbDimStyleTableRecord
  2
Annotative
 70
     0
340
55
1001
AcadAnnotative
1000
AnnotativeData
1002
{
1070
     1
1070
     1
1002
}
  0
ENDTAB
  0
TABLE
  2
BLOCK_RECORD
  5
1
330
0
100
AcDbSymbolTable
 70
     4
  0
BLOCK_RECORD
  5
70
330
1
100
AcDbSymbolTableRecord
100
AcDbBlockTableRecord
  2
*Model_Space
340
73
 70
     0
280
     1
281
     0
  0
BLOCK_RECORD
  5
6C
330
1
100
AcDbSymbolTableRecord
100
AcDbBlockTableRecord
  2
*Paper_Space
340
6F
 70
     0
280
     1
281
     0
  0
BLOCK_RECORD
  5
74
330
1
100
AcDbSymbolTableRecord
100
AcDbBlockTableRecord
  2
*Paper_Space0
340
77
 70
     0
280
     1
281
     0
  0
BLOCK_RECORD
  5
78
330
1
100
AcDbSymbolTableRecord
100
AcDbBlockTableRecord
  2
Block_0
340
0
102
{BLKREFS
331
79
102
}
 70
     0
280
     1
281
     0
  0
BLOCK_RECORD
  5
C4
330
1
100
AcDbSymbolTableRecord
100
AcDbBlockTableRecord
  2
Block_1
340
0
102
{BLKREFS
331
C5
102
}
 70
     0
280
     1
281
     0
  0
BLOCK_RECORD
  5
10D
330
1
100
AcDbSymbolTableRecord
100
AcDbBlockTableRecord
  2
Block_2
340
0
102
{BLKREFS
331
10E
102
}
 70
     0
280
     1
281
     0
  0
ENDTAB
  0
ENDSEC
  0
SECTION
  2
BLOCKS
  0
BLOCK
  5
71
330
70
100
AcDbEntity
  8
0
100
AcDbBlockBegin
  2
*Model_Space
 70
     0
 10
0.0
 20
0.0
 30
0.0
  3
*Model_Space
  1

  0
ENDBLK
  5
72
330
70
100
AcDbEntity
  8
0
100
AcDbBlockEnd
  0
BLOCK
  5
6D
330
6C
100
AcDbEntity
 67
     1
  8
0
100
AcDbBlockBegin
  2
*Paper_Space
 70
     0
 10
0.0
 20
0.0
 30
0.0
  3
*Paper_Space
  1

  0
ENDBLK
  5
6E
330
6C
100
AcDbEntity
 67
     1
  8
0
100
AcDbBlockEnd
  0
BLOCK
  5
75
330
74
100
AcDbEntity
 67
     1
  8
0
100
AcDbBlockBegin
  2
*Paper_Space0
 70
     0
 10
0.0
 20
0.0
 30
0.0
  3
*Paper_Space0
  1

  0
ENDBLK
  5
76
330
74
100
AcDbEntity
 67
     1
  8
0
100
AcDbBlockEnd
  0
BLOCK
  5
7A
330
78
100
AcDbEntity
  8
0
100
AcDbBlockBegin
  2
Block_0
 70
     0
 10
0.0
 20
0.0
 30
0.0
  3
Block_0
  1

  0
LWPOLYLINE
  5
7C
330
78
100
AcDbEntity
  8
0
 62
    18
420
        0
370
    25
100
AcDbPolyline
 90
        4
 70
     1
 43
0.0
 10
79.94999997301279
 20
238.1037824443845
 10
79.94999997301279
 20
241.1037824443846
 10
76.9499999730127
 20
241.1037824443846
 10
76.9499999730127
 20
238.1037824443845
  0
LWPOLYLINE
  5
7D
330
78
100
AcDbEntity
  8
0
 62
    18
420
        0
370
    25
100
AcDbPolyline
 90
        4
 70
     1
 43
0.0
 10
88.3785714015841
 20
238.1037824443845
 10
88.3785714015841
 20
241.1037824443846
 10
85.37857140158433
 20
241.1037824443846
 10
85.37857140158433
 20
238.1037824443845
  0
LWPOLYLINE
  5
7E
330
78
100
AcDbEntity
  8
0
 62
    18
420
        0
370
    25
100
AcDbPolyline
 90
        4
 70
     1
 43
0.0
 10
96.80714283015575
 20
238.1037824443845
 10
96.80714283015575
 20
241.1037824443846
 10
93.80714283015564
 20
241.1037824443846
 10
93.80714283015564
 20
238.1037824443845
  0
LWPOLYLINE
  5
7F
330
78
100
AcDbEntity
  8
0
 62
    18
420
        0
370
    25
100
AcDbPolyline
 90
        4
 70
     1
 43
0.0
 10
105.235714258727
 20
238.1037824443845
 10
105.235714258727
 20
241.1037824443846
 10
102.2357142587269
 20
241.1037824443846
 10
102.2357142587269
 20
238.1037824443845
  0
LWPOLYLINE
  5
80
330
78
100
AcDbEntity
  8
0
 62
    18
420
        0
370
    25
100
AcDbPolyline
 90
        4
 70
     1
 43
0.0
 10
113.664285687298
 20
238.1037824443845
 10
113.664285687298
 20
241.1037824443846
 10
110.6642856872986
 20
241.1037824443846
 10
110.6642856872986
 20
238.1037824443845
  0
LWPOLYLINE
  5
81
330
78
100
AcDbEntity
  8
0
 62
    18
420
        0
370
    25
100
AcDbPolyline
 90
        4
 70
     1
 43
0.0
 10
122.0928571158697
 20
238.1037824443845
 10
122.0928571158697
 20
241.1037824443846
 10
119.0928571158702
 20
241.1037824443846
 10
119.0928571158702
 20
238.1037824443845
  0
LWPOLYLINE
  5
82
330
78
100
AcDbEntity
  8
0
 62
    18
420
        0
370
    25
100
AcDbPolyline
 90
        4
 70
     1
 43
0.0
 10
130.5214285444413
 20
238.1037824443845
 10
130.5214285444413
 20
241.1037824443846
 10
127.5214285444418
 20
241.1037824443846
 10
127.5214285444418
 20
238.1037824443845
  0
LWPOLYLINE
  5
83
330
78
100
AcDbEntity
  8
0
 62
    18
420
        0
370
    25
100
AcDbPolyline
 90
        4
 70
     1
 43
0.0
 10
138.9499999730129
 20
238.1037824443845
 10
138.9499999730129
 20
241.1037824443846
 10
135.9499999730122
 20
241.1037824443846
 10
135.9499999730122
 20
238.1037824443845
  0
LWPOLYLINE
  5
84
330
78
100
AcDbEntity
  8
0
 62
    18
420
        0
370
    25
100
AcDbPolyline
 90
        4
 70
     1
 43
0.0
 10
79.94999997301279
 20
229.9609253015276
 10
79.94999997301279
 20
232.9609253015274
 10
76.9499999730127
 20
232.9609253015274
 10
76.9499999730127
 20
229.9609253015276
  0
LWPOLYLINE
  5
85
330
78
100
AcDbEntity
  8
0
 62
    18
420
        0
370
    25
100
AcDbPolyline
 90
        4
 70
     1
 43
0.0
 10
88.3785714015841
 20
229.9609253015276
 10
88.3785714015841
 20
232.9609253015274
 10
85.37857140158433
 20
232.9609253015274
 10
85.37857140158433
 20
229.9609253015276
  0
LWPOLYLINE
  5
86
330
78
100
AcDbEntity
  8
0
 62
    18
420
        0
370
    25
100
AcDbPolyline
 90
        4
 70
     1
 43
0.0
 10
96.80714283015575
 20
229.9609253015276
 10
96.80714283015575
 20
232.9609253015274
 10
93.80714283015564
 20
232.9609253015274
 10
93.80714283015564
 20
229.9609253015276
  0
LWPOLYLINE
  5
87
330
78
100
AcDbEntity
  8
0
 62
    18
420
        0
370
    25
100
AcDbPolyline
 90
        4
 70
     1
 43
0.0
 10
105.235714258727
 20
229.9609253015276
 10
105.235714258727
 20
232.9609253015274
 10
102.2357142587269
 20
232.9609253015274
 10
102.2357142587269
 20
229.9609253015276
  0
LWPOLYLINE
  5
88
330
78
100
AcDbEntity
  8
0
 62
    18
420
        0
370
    25
100
AcDbPolyline
 90
        4
 70
     1
 43
0.0
 10
113.664285687298
 20
229.9609253015276
 10
113.664285687298
 20
232.9609253015274
 10
110.6642856872986
 20
232.9609253015274
 10
110.6642856872986
 20
229.9609253015276
  0
LWPOLYLINE
  5
89
330
78
100
AcDbEntity
  8
0
 62
    18
420
        0
370
    25
100
AcDbPolyline
 90
        4
 70
     1
 43
0.0
 10
122.0928571158697
 20
229.9609253015276
 10
122.0928571158697
 20
232.9609253015274
 10
119.0928571158702
 20
232.9609253015274
 10
119.0928571158702
 20
229.9609253015276
  0
LWPOLYLINE
  5
8A
330
78
100
AcDbEntity
  8
0
 62
    18
420
        0
370
    25
100
AcDbPolyline
 90
        4
 70
     1
 43
0.0
 10
130.5214285444413
 20
229.9609253015276
 10
130.5214285444413
 20
232.9609253015274
 10
127.5214285444418
 20
232.9609253015274
 10
127.5214285444418
 20
229.9609253015276
  0
LWPOLYLINE
  5
8B
330
78
100
AcDbEntity
  8
0
 62
    18
420
        0
370
    25
100
AcDbPolyline
 90
        4
 70
     1
 43
0.0
 10
138.9499999730129
 20
229.9609253015276
 10
138.9499999730129
 20
232.9609253015274
 10
135.9499999730122
 20
232.9609253015274
 10
135.9499999730122
 20
229.9609253015276
  0
LWPOLYLINE
  5
8C
330
78
100
AcDbEntity
  8
0
 62
    18
420
        0
370
    25
100
AcDbPolyline
 90
        4
 70
     1
 43
0.0
 10
79.94999997301279
 20
221.8180681586702
 10
79.94999997301279
 20
224.8180681586704
 10
76.9499999730127
 20
224.8180681586704
 10
76.9499999730127
 20
221.8180681586702
  0
LWPOLYLINE
  5
8D
330
78
100
AcDbEntity
  8
0
 62
    18
420
        0
370
    25
100
AcDbPolyline
 90
        4
 70
     1
 43
0.0
 10
88.3785714015841
 20
221.8180681586702
 10
88.3785714015841
 20
224.8180681586704
 10
85.37857140158433
 20
224.8180681586704
 10
85.37857140158433
 20
221.8180681586702
  0
LWPOLYLINE
  5
8E
330
78
100
AcDbEntity
  8
0
 62
    18
420
        0
370
    25
100
AcDbPolyline
 90
        4
 70
     1
 43
0.0
 10
96.80714283015575
 20
221.8180681586702
 10
96.80714283015575
 20
224.8180681586704
 10
93.80714283015564
 20
224.8180681586704
 10
93.80714283015564
 20
221.8180681586702
  0
LWPOLYLINE
  5
8F
330
78
100
AcDbEntity
  8
0
 62
    18
420
        0
370
    25
100
AcDbPolyline
 90
        4
 70
     1
 43
0.0
 10
105.235714258727
 20
221.8180681586702
 10
105.235714258727
 20
224.8180681586704
 10
102.2357142587269
 20
224.8180681586704
 10
102.2357142587269
 20
221.8180681586702
  0
LWPOLYLINE
  5
90
330
78
100
AcDbEntity
  8
0
 62
    18
420
        0
370
    25
100
AcDbPolyline
 90
        4
 70
     1
 43
0.0
 10
113.664285687298
 20
221.8180681586702
 10
113.664285687298
 20
224.8180681586704
 10
110.6642856872986
 20
224.8180681586704
 10
110.6642856872986
 20
221.8180681586702
  0
LWPOLYLINE
  5
91
330
78
100
AcDbEntity
  8
0
 62
    18
420
        0
370
    25
100
AcDbPolyline
 90
        4
 70
     1
 43
0.0
 10
122.0928571158697
 20
221.8180681586702
 10
122.0928571158697
 20
224.8180681586704
 10
119.0928571158702
 20
224.8180681586704
 10
119.0928571158702
 20
221.8180681586702
  0
LWPOLYLINE
  5
92
330
78
100
AcDbEntity
  8
0
 62
    18
420
        0
370
    25
100
AcDbPolyline
 90
        4
 70
     1
 43
0.0
 10
130.5214285444413
 20
221.8180681586702
 10
130.5214285444413
 20
224.8180681586704
 10
127.5214285444418
 20
224.8180681586704
 10
127.5214285444418
 20
221.8180681586702
  0
LWPOLYLINE
  5
93
330
78
100
AcDbEntity
  8
0
 62
    18
420
        0
370
    25
100
AcDbPolyline
 90
        4
 70
     1
 43
0.0
 10
138.9499999730129
 20
221.8180681586702
 10
138.9499999730129
 20
224.8180681586704
 10
135.9499999730122
 20
224.8180681586704
 10
135.9499999730122
 20
221.8180681586702
  0
LWPOLYLINE
  5
94
330
78
100
AcDbEntity
  8
0
 62
    18
420
        0
370
    25
100
AcDbPolyline
 90
        4
 70
     1
 43
0.0
 10
79.94999997301279
 20
213.675211015813
 10
79.94999997301279
 20
216.6752110158131
 10
76.9499999730127
 20
216.6752110158131
 10
76.9499999730127
 20
213.675211015813
  0
LWPOLYLINE
  5
95
330
78
100
AcDbEntity
  8
0
 62
    18
420
        0
370
    25
100
AcDbPolyline
 90
        4
 70
     1
 43
0.0
 10
88.3785714015841
 20
213.675211015813
 10
88.3785714015841
 20
216.6752110158131
 10
85.37857140158433
 20
216.6752110158131
 10
85.37857140158433
 20
213.675211015813
  0
LWPOLYLINE
  5
96
330
78
100
AcDbEntity
  8
0
 62
    18
420
        0
370
    25
100
AcDbPolyline
 90
        4
 70
     1
 43
0.0
 10
96.80714283015575
 20
213.675211015813
 10
96.80714283015575
 20
216.6752110158131
 10
93.80714283015564
 20
216.6752110158131
 10
93.80714283015564
 20
213.675211015813
  0
LWPOLYLINE
  5
97
330
78
100
AcDbEntity
  8
0
 62
    18
420
        0
370
    25
100
AcDbPolyline
 90
        4
 70
     1
 43
0.0
 10
105.235714258727
 20
213.675211015813
 10
105.235714258727
 20
216.6752110158131
 10
102.2357142587269
 20
216.6752110158131
 10
102.2357142587269
 20
213.675211015813
  0
LWPOLYLINE
  5
98
330
78
100
AcDbEntity
  8
0
 62
    18
420
        0
370
    25
100
AcDbPolyline
 90
        4
 70
     1
 43
0.0
 10
113.664285687298
 20
213.675211015813
 10
113.664285687298
 20
216.6752110158131
 10
110.6642856872986
 20
216.6752110158131
 10
110.6642856872986
 20
213.675211015813
  0
LWPOLYLINE
  5
99
330
78
100
AcDbEntity
  8
0
 62
    18
420
        0
370
    25
100
AcDbPolyline
 90
        4
 70
     1
 43
0.0
 10
122.0928571158697
 20
213.675211015813
 10
122.0928571158697
 20
216.6752110158131
 10
119.0928571158702
 20
216.6752110158131
 10
119.0928571158702
 20
213.675211015813
  0
LWPOLYLINE
  5
9A
330
78
100
AcDbEntity
  8
0
 62
    18
420
        0
370
    25
100
AcDbPolyline
 90
        4
 70
     1
 43
0.0
 10
130.5214285444413
 20
213.675211015813
 10
130.5214285444413
 20
216.6752110158131
 10
127.5214285444418
 20
216.6752110158131
 10
127.5214285444418
 20
213.675211015813
  0
LWPOLYLINE
  5
9B
330
78
100
AcDbEntity
  8
0
 62
    18
420
        0
370
    25
100
AcDbPolyline
 90
        4
 70
     1
 43
0.0
 10
138.9499999730129
 20
213.675211015813
 10
138.9499999730129
 20
216.6752110158131
 10
135.9499999730122
 20
216.6752110158131
 10
135.9499999730122
 20
213.675211015813
  0
LWPOLYLINE
  5
9C
330
78
100
AcDbEntity
  8
0
 62
    18
420
        0
370
    25
100
AcDbPolyline
 90
        4
 70
     1
 43
0.0
 10
79.94999997301279
 20
205.532353872956
 10
79.94999997301279
 20
208.5323538729561
 10
76.9499999730127
 20
208.5323538729561
 10
76.9499999730127
 20
205.532353872956
  0
LWPOLYLINE
  5
9D
330
78
100
AcDbEntity
  8
0
 62
    18
420
        0
370
    25
100
AcDbPolyline
 90
        4
 70
     1
 43
0.0
 10
88.3785714015841
 20
205.532353872956
 10
88.3785714015841
 20
208.5323538729561
 10
85.37857140158433
 20
208.5323538729561
 10
85.37857140158433
 20
205.532353872956
  0
LWPOLYLINE
  5
9E
330
78
100
AcDbEntity
  8
0
 62
    18
420
        0
370
    25
100
AcDbPolyline
 90
        4
 70
     1
 43
0.0
 10
96.80714283015575
 20
205.532353872956
 10
96.80714283015575
 20
208.5323538729561
 10
93.80714283015564
 20
208.5323538729561
 10
93.80714283015564
 20
205.532353872956
  0
LWPOLYLINE
  5
9F
330
78
100
AcDbEntity
  8
0
 62
    18
420
        0
370
    25
100
AcDbPolyline
 90
        4
 70
     1
 43
0.0
 10
105.235714258727
 20
205.532353872956
 10
105.235714258727
 20
208.5323538729561
 10
102.2357142587269
 20
208.5323538729561
 10
102.2357142587269
 20
205.532353872956
  0
LWPOLYLINE
  5
A0
330
78
100
AcDbEntity
  8
0
 62
    18
420
        0
370
    25
100
AcDbPolyline
 90
        4
 70
     1
 43
0.0
 10
113.664285687298
 20
205.532353872956
 10
113.664285687298
 20
208.5323538729561
 10
110.6642856872986
 20
208.5323538729561
 10
110.6642856872986
 20
205.532353872956
  0
LWPOLYLINE
  5
A1
330
78
100
AcDbEntity
  8
0
 62
    18
420
        0
370
    25
100
AcDbPolyline
 90
        4
 70
     1
 43
0.0
 10
122.0928571158697
 20
205.532353872956
 10
122.0928571158697
 20
208.5323538729561
 10
119.0928571158702
 20
208.5323538729561
 10
119.0928571158702
 20
205.532353872956
  0
LWPOLYLINE
  5
A2
330
78
100
AcDbEntity
  8
0
 62
    18
420
        0
370
    25
100
AcDbPolyline
 90
        4
 70
     1
 43
0.0
 10
130.5214285444413
 20
205.532353872956
 10
130.5214285444413
 20
208.5323538729561
 10
127.5214285444418
 20
208.5323538729561
 10
127.5214285444418
 20
205.532353872956
  0
LWPOLYLINE
  5
A3
330
78
100
AcDbEntity
  8
0
 62
    18
420
        0
370
    25
100
AcDbPolyline
 90
        4
 70
     1
 43
0.0
 10
138.9499999730129
 20
205.532353872956
 10
138.9499999730129
 20
208.5323538729561
 10
135.9499999730122
 20
208.5323538729561
 10
135.9499999730122
 20
205.532353872956
  0
LWPOLYLINE
  5
A4
330
78
100
AcDbEntity
  8
0
 62
    18
420
        0
370
    25
100
AcDbPolyline
 90
        4
 70
     1
 43
0.0
 10
79.94999997301279
 20
197.389496730099
 10
79.94999997301279
 20
200.3894967300991
 10
76.9499999730127
 20
200.3894967300991
 10
76.9499999730127
 20
197.389496730099
  0
LWPOLYLINE
  5
A5
330
78
100
AcDbEntity
  8
0
 62
    18
420
        0
370
    25
100
AcDbPolyline
 90
        4
 70
     1
 43
0.0
 10
88.3785714015841
 20
197.389496730099
 10
88.3785714015841
 20
200.3894967300991
 10
85.37857140158433
 20
200.3894967300991
 10
85.37857140158433
 20
197.389496730099
  0
LWPOLYLINE
  5
A6
330
78
100
AcDbEntity
  8
0
 62
    18
420
        0
370
    25
100
AcDbPolyline
 90
        4
 70
     1
 43
0.0
 10
96.80714283015575
 20
197.389496730099
 10
96.80714283015575
 20
200.3894967300991
 10
93.80714283015564
 20
200.3894967300991
 10
93.80714283015564
 20
197.389496730099
  0
LWPOLYLINE
  5
A7
330
78
100
AcDbEntity
  8
0
 62
    18
420
        0
370
    25
100
AcDbPolyline
 90
        4
 70
     1
 43
0.0
 10
105.235714258727
 20
197.389496730099
 10
105.235714258727
 20
200.3894967300991
 10
102.2357142587269
 20
200.3894967300991
 10
102.2357142587269
 20
197.389496730099
  0
LWPOLYLINE
  5
A8
330
78
100
AcDbEntity
  8
0
 62
    18
420
        0
370
    25
100
AcDbPolyline
 90
        4
 70
     1
 43
0.0
 10
113.664285687298
 20
197.389496730099
 10
113.664285687298
 20
200.3894967300991
 10
110.6642856872986
 20
200.3894967300991
 10
110.6642856872986
 20
197.389496730099
  0
LWPOLYLINE
  5
A9
330
78
100
AcDbEntity
  8
0
 62
    18
420
        0
370
    25
100
AcDbPolyline
 90
        4
 70
     1
 43
0.0
 10
122.0928571158697
 20
197.389496730099
 10
122.0928571158697
 20
200.3894967300991
 10
119.0928571158702
 20
200.3894967300991
 10
119.0928571158702
 20
197.389496730099
  0
LWPOLYLINE
  5
AA
330
78
100
AcDbEntity
  8
0
 62
    18
420
        0
370
    25
100
AcDbPolyline
 90
        4
 70
     1
 43
0.0
 10
130.5214285444413
 20
197.389496730099
 10
130.5214285444413
 20
200.3894967300991
 10
127.5214285444418
 20
200.3894967300991
 10
127.5214285444418
 20
197.389496730099
  0
LWPOLYLINE
  5
AB
330
78
100
AcDbEntity
  8
0
 62
    18
420
        0
370
    25
100
AcDbPolyline
 90
        4
 70
     1
 43
0.0
 10
138.9499999730129
 20
197.389496730099
 10
138.9499999730129
 20
200.3894967300991
 10
135.9499999730122
 20
200.3894967300991
 10
135.9499999730122
 20
197.389496730099
  0
LWPOLYLINE
  5
AC
330
78
100
AcDbEntity
  8
0
 62
    18
420
        0
370
    25
100
AcDbPolyline
 90
        4
 70
     1
 43
0.0
 10
79.94999997301279
 20
189.2466395872414
 10
79.94999997301279
 20
192.2466395872415
 10
76.9499999730127
 20
192.2466395872415
 10
76.9499999730127
 20
189.2466395872414
  0
LWPOLYLINE
  5
AD
330
78
100
AcDbEntity
  8
0
 62
    18
420
        0
370
    25
100
AcDbPolyline
 90
        4
 70
     1
 43
0.0
 10
88.3785714015841
 20
189.2466395872414
 10
88.3785714015841
 20
192.2466395872415
 10
85.37857140158433
 20
192.2466395872415
 10
85.37857140158433
 20
189.2466395872414
  0
LWPOLYLINE
  5
AE
330
78
100
AcDbEntity
  8
0
 62
    18
420
        0
370
    25
100
AcDbPolyline
 90
        4
 70
     1
 43
0.0
 10
96.80714283015575
 20
189.2466395872414
 10
96.80714283015575
 20
192.2466395872415
 10
93.80714283015564
 20
192.2466395872415
 10
93.80714283015564
 20
189.2466395872414
  0
LWPOLYLINE
  5
AF
330
78
100
AcDbEntity
  8
0
 62
    18
420
        0
370
    25
100
AcDbPolyline
 90
        4
 70
     1
 43
0.0
 10
105.235714258727
 20
189.2466395872414
 10
105.235714258727
 20
192.2466395872415
 10
102.2357142587269
 20
192.2466395872415
 10
102.2357142587269
 20
189.2466395872414
  0
LWPOLYLINE
  5
B0
330
78
100
AcDbEntity
  8
0
 62
    18
420
        0
370
    25
100
AcDbPolyline
 90
        4
 70
     1
 43
0.0
 10
113.664285687298
 20
189.2466395872414
 10
113.664285687298
 20
192.2466395872415
 10
110.6642856872986
 20
192.2466395872415
 10
110.6642856872986
 20
189.2466395872414
  0
LWPOLYLINE
  5
B1
330
78
100
AcDbEntity
  8
0
 62
    18
420
        0
370
    25
100
AcDbPolyline
 90
        4
 70
     1
 43
0.0
 10
122.0928571158697
 20
189.2466395872414
 10
122.0928571158697
 20
192.2466395872415
 10
119.0928571158702
 20
192.2466395872415
 10
119.0928571158702
 20
189.2466395872414
  0
LWPOLYLINE
  5
B2
330
78
100
AcDbEntity
  8
0
 62
    18
420
        0
370
    25
100
AcDbPolyline
 90
        4
 70
     1
 43
0.0
 10
130.5214285444413
 20
189.2466395872414
 10
130.5214285444413
 20
192.2466395872415
 10
127.5214285444418
 20
192.2466395872415
 10
127.5214285444418
 20
189.2466395872414
  0
LWPOLYLINE
  5
B3
330
78
100
AcDbEntity
  8
0
 62
    18
420
        0
370
    25
100
AcDbPolyline
 90
        4
 70
     1
 43
0.0
 10
138.9499999730129
 20
189.2466395872414
 10
138.9499999730129
 20
192.2466395872415
 10
135.9499999730122
 20
192.2466395872415
 10
135.9499999730122
 20
189.2466395872414
  0
LWPOLYLINE
  5
B4
330
78
100
AcDbEntity
  8
0
 62
    18
420
        0
370
    25
100
AcDbPolyline
 90
        4
 70
     1
 43
0.0
 10
79.94999997301279
 20
181.1037824443844
 10
79.94999997301279
 20
184.1037824443845
 10
76.9499999730127
 20
184.1037824443845
 10
76.9499999730127
 20
181.1037824443844
  0
LWPOLYLINE
  5
B5
330
78
100
AcDbEntity
  8
0
 62
    18
420
        0
370
    25
100
AcDbPolyline
 90
        4
 70
     1
 43
0.0
 10
88.3785714015841
 20
181.1037824443844
 10
88.3785714015841
 20
184.1037824443845
 10
85.37857140158433
 20
184.1037824443845
 10
85.37857140158433
 20
181.1037824443844
  0
LWPOLYLINE
  5
B6
330
78
100
AcDbEntity
  8
0
 62
    18
420
        0
370
    25
100
AcDbPolyline
 90
        4
 70
     1
 43
0.0
 10
96.80714283015575
 20
181.1037824443844
 10
96.80714283015575
 20
184.1037824443845
 10
93.80714283015564
 20
184.1037824443845
 10
93.80714283015564
 20
181.1037824443844
  0
LWPOLYLINE
  5
B7
330
78
100
AcDbEntity
  8
0
 62
    18
420
        0
370
    25
100
AcDbPolyline
 90
        4
 70
     1
 43
0.0
 10
105.235714258727
 20
181.1037824443844
 10
105.235714258727
 20
184.1037824443845
 10
102.2357142587269
 20
184.1037824443845
 10
102.2357142587269
 20
181.1037824443844
  0
LWPOLYLINE
  5
B8
330
78
100
AcDbEntity
  8
0
 62
    18
420
        0
370
    25
100
AcDbPolyline
 90
        4
 70
     1
 43
0.0
 10
113.664285687298
 20
181.1037824443844
 10
113.664285687298
 20
184.1037824443845
 10
110.6642856872986
 20
184.1037824443845
 10
110.6642856872986
 20
181.1037824443844
  0
LWPOLYLINE
  5
B9
330
78
100
AcDbEntity
  8
0
 62
    18
420
        0
370
    25
100
AcDbPolyline
 90
        4
 70
     1
 43
0.0
 10
122.0928571158697
 20
181.1037824443844
 10
122.0928571158697
 20
184.1037824443845
 10
119.0928571158702
 20
184.1037824443845
 10
119.0928571158702
 20
181.1037824443844
  0
LWPOLYLINE
  5
BA
330
78
100
AcDbEntity
  8
0
 62
    18
420
        0
370
    25
100
AcDbPolyline
 90
        4
 70
     1
 43
0.0
 10
130.5214285444413
 20
181.1037824443844
 10
130.5214285444413
 20
184.1037824443845
 10
127.5214285444418
 20
184.1037824443845
 10
127.5214285444418
 20
181.1037824443844
  0
LWPOLYLINE
  5
BB
330
78
100
AcDbEntity
  8
0
 62
    18
420
        0
370
    25
100
AcDbPolyline
 90
        4
 70
     1
 43
0.0
 10
138.9499999730129
 20
181.1037824443844
 10
138.9499999730129
 20
184.1037824443845
 10
135.9499999730122
 20
184.1037824443845
 10
135.9499999730122
 20
181.1037824443844
  0
LWPOLYLINE
  5
BC
330
78
100
AcDbEntity
  8
0
 62
    18
420
        0
370
    25
100
AcDbPolyline
 90
        4
 70
     1
 43
0.0
 10
119.9499999730129
 20
252.1037824443847
 10
133.9499999730134
 20
252.1037824443847
 10
133.9499999730134
 20
266.1037824443845
 10
119.9499999730129
 20
266.1037824443845
  0
LWPOLYLINE
  5
BD
330
78
100
AcDbEntity
  8
0
 62
    18
420
        0
370
    25
100
AcDbPolyline
 90
        4
 70
     1
 43
0.0
 10
81.94999997301286
 20
252.1037824443847
 10
95.94999997301272
 20
252.1037824443847
 10
95.94999997301272
 20
266.1037824443845
 10
81.94999997301286
 20
266.1037824443845
  0
LWPOLYLINE
  5
BE
330
78
100
AcDbEntity
  8
0
 62
    18
420
        0
370
    25
100
AcDbPolyline
 90
        4
 70
     1
 43
0.0
 10
100.9499999730129
 20
252.1037824443847
 10
114.9499999730134
 20
252.1037824443847
 10
114.9499999730134
 20
266.1037824443845
 10
100.9499999730129
 20
266.1037824443845
  0
CIRCLE
  5
BF
330
78
100
AcDbEntity
  8
0
 62
    18
420
        0
370
    25
100
AcDbCircle
 10
145.3999999730133
 20
246.1037824443846
 30
0.0
 40
1.550000000000014
  0
CIRCLE
  5
C0
330
78
100
AcDbEntity
  8
0
 62
    18
420
        0
370
    25
100
AcDbCircle
 10
70.49999997301286
 20
176.1037824443847
 30
0.0
 40
1.550000000000094
  0
CIRCLE
  5
C1
330
78
100
AcDbEntity
  8
0
 62
    18
420
        0
370
    25
100
AcDbCircle
 10
70.49999997301286
 20
246.1037824443846
 30
0.0
 40
1.550000000000134
  0
CIRCLE
  5
C2
330
78
100
AcDbEntity
  8
0
 62
    18
420
        0
370
    25
100
AcDbCircle
 10
145.3999999730133
 20
176.1037824443847
 30
0.0
 40
1.549999999999974
  0
SPLINE
  5
C3
330
78
100
AcDbEntity
  8
0
 62
    18
420
        0
370
    25
100
AcDbSpline
210
0.0
220
0.0
230
1.0
 70
     9
 71
     3
 72
    29
 73
    25
 74
     0
 42
0.0000000001
 43
0.0000000001
 40
0.0
 40
0.0
 40
0.0
 40
0.0
 40
1.0
 40
1.0
 40
1.0
 40
2.0
 40
2.0
 40
2.0
 40
3.0
 40
3.0
 40
3.0
 40
4.0
 40
4.0
 40
4.0
 40
5.0
 40
5.0
 40
5.0
 40
6.0
 40
6.0
 40
6.0
 40
7.0
 40
7.0
 40
7.0
 40
8.0
 40
8.0
 40
8.0
 40
8.0
 10
145.3999999730133
 20
171.1037824443847
 30
0.0
 10
145.3999999730133
 20
171.1037824443847
 30
0.0
 10
70.49999997301295
 20
171.1037824443847
 30
0.0
 10
70.49999997301295
 20
171.1037824443847
 30
0.0
 10
67.73857622385881
 20
171.1037824443847
 30
0.0
 10
65.49999997301277
 20
173.3423586952307
 30
0.0
 10
65.49999997301277
 20
176.1037824443842
 30
0.0
 10
65.49999997301277
 20
176.1037824443842
 30
0.0
 10
65.49999997301277
 20
266.1037824443845
 30
0.0
 10
65.49999997301277
 20
266.1037824443845
 30
0.0
 10
65.49999997301277
 20
268.8652061935384
 30
0.0
 10
67.73857622385881
 20
271.1037824443844
 30
0.0
 10
70.49999997301295
 20
271.1037824443844
 30
0.0
 10
70.49999997301295
 20
271.1037824443844
 30
0.0
 10
145.3999999730133
 20
271.1037824443844
 30
0.0
 10
145.3999999730133
 20
271.1037824443844
 30
0.0
 10
148.1614237221662
 20
271.1037824443844
 30
0.0
 10
150.3999999730129
 20
268.8652061935384
 30
0.0
 10
150.3999999730129
 20
266.1037824443845
 30
0.0
 10
150.3999999730129
 20
266.1037824443845
 30
0.0
 10
150.3999999730129
 20
176.1037824443842
 30
0.0
 10
150.3999999730129
 20
176.1037824443842
 30
0.0
 10
150.3999999730129
 20
173.3423586952307
 30
0.0
 10
148.1614237221662
 20
171.1037824443847
 30
0.0
 10
145.3999999730133
 20
171.1037824443847
 30
0.0
  0
ENDBLK
  5
7B
330
78
100
AcDbEntity
  8
0
100
AcDbBlockEnd
  0
BLOCK
  5
C6
330
C4
100
AcDbEntity
  8
0
100
AcDbBlockBegin
  2
Block_1
 70
     0
 10
0.0
 20
0.0
 30
0.0
  3
Block_1
  1

  0
SPLINE
  5
C8
330
C4
100
AcDbEntity
  8
0
 62
    18
420
        0
370
    25
100
AcDbSpline
210
0.0
220
0.0
230
1.0
 70
     9
 71
     3
 72
    53
 73
    49
 74
     0
 42
0.0000000001
 43
0.0000000001
 40
0.0
 40
0.0
 40
0.0
 40
0.0
 40
1.0
 40
1.0
 40
1.0
 40
2.0
 40
2.0
 40
2.0
 40
3.0
 40
3.0
 40
3.0
 40
4.0
 40
4.0
 40
4.0
 40
5.0
 40
5.0
 40
5.0
 40
6.0
 40
6.0
 40
6.0
 40
7.0
 40
7.0
 40
7.0
 40
8.0
 40
8.0
 40
8.0
 40
9.0
 40
9.0
 40
9.0
 40
10.0
 40
10.0
 40
10.0
 40
11.0
 40
11.0
 40
11.0
 40
12.0
 40
12.0
 40
12.0
 40
13.0
 40
13.0
 40
13.0
 40
14.0
 40
14.0
 40
14.0
 40
15.0
 40
15.0
 40
15.0
 40
16.0
 40
16.0
 40
16.0
 40
16.0
 10
140.1071067541998
 20
169.4071067462617
 30
0.0
 10
140.2946431326474
 20
169.5946431247097
 30
0.0
 10
140.5489970455469
 20
169.6999999650751
 30
0.0
 10
140.8142135353865
 20
169.6999999650751
 30
0.0
 10
140.8142135353865
 20
169.6999999650751
 30
0.0
 10
145.3999999730133
 20
169.6999999650754
 30
0.0
 10
145.3999999730133
 20
169.6999999650754
 30
0.0
 10
148.1614237221668
 20
169.6999999650754
 30
0.0
 10
150.3999999730129
 20
167.4614237142293
 30
0.0
 10
150.3999999730129
 20
164.6999999650752
 30
0.0
 10
150.3999999730129
 20
164.6999999650752
 30
0.0
 10
150.3999999730129
 20
94.69999996507535
 30
0.0
 10
150.3999999730129
 20
94.69999996507535
 30
0.0
 10
150.3999999730129
 20
91.93857621592121
 30
0.0
 10
148.1614237221668
 20
89.69999996507516
 30
0.0
 10
145.3999999730133
 20
89.69999996507516
 30
0.0
 10
145.3999999730133
 20
89.69999996507516
 30
0.0
 10
70.49999997301359
 20
89.69999996507516
 30
0.0
 10
70.49999997301359
 20
89.69999996507516
 30
0.0
 10
67.73857622385945
 20
89.69999996507516
 30
0.0
 10
65.49999997301277
 20
91.93857621592121
 30
0.0
 10
65.49999997301277
 20
94.69999996507535
 30
0.0
 10
65.49999997301277
 20
94.69999996507535
 30
0.0
 10
65.49999997301277
 20
164.6999999650752
 30
0.0
 10
65.49999997301277
 20
164.6999999650752
 30
0.0
 10
65.49999997301277
 20
167.4614237142293
 30
0.0
 10
67.73857622385945
 20
169.6999999650754
 30
0.0
 10
70.49999997301359
 20
169.6999999650754
 30
0.0
 10
70.49999997301359
 20
169.6999999650754
 30
0.0
 10
75.0857864106404
 20
169.6999999650754
 30
0.0
 10
75.0857864106404
 20
169.6999999650754
 30
0.0
 10
75.35100290047998
 20
169.6999999650754
 30
0.0
 10
75.60535681337822
 20
169.59464312471
 30
0.0
 10
75.79289319182645
 20
169.4071067462617
 30
0.0
 10
75.79289319182645
 20
169.4071067462617
 30
0.0
 10
80.20710675419996
 20
164.9928931838886
 30
0.0
 10
80.20710675419996
 20
164.9928931838886
 30
0.0
 10
80.39464313264756
 20
164.8053568054406
 30
0.0
 10
80.6489970455471
 20
164.6999999650752
 30
0.0
 10
80.91421353538668
 20
164.6999999650752
 30
0.0
 10
80.91421353538668
 20
164.6999999650752
 30
0.0
 10
134.9857864106402
 20
164.6999999650752
 30
0.0
 10
134.9857864106402
 20
164.6999999650752
 30
0.0
 10
135.2510029004792
 20
164.6999999650752
 30
0.0
 10
135.5053568133787
 20
164.8053568054406
 30
0.0
 10
135.6928931918263
 20
164.9928931838886
 30
0.0
 10
135.6928931918263
 20
164.9928931838886
 30
0.0
 10
140.1071067541998
 20
169.4071067462617
 30
0.0
 10
140.1071067541998
 20
169.4071067462617
 30
0.0
  0
LWPOLYLINE
  5
C9
330
C4
100
AcDbEntity
  8
0
 62
    18
420
        0
370
    25
100
AcDbPolyline
 90
        4
 70
     1
 43
0.0
 10
110.6642856872986
 20
159.6999999650754
 10
110.6642856872986
 20
156.6999999650753
 10
113.6642856872987
 20
156.6999999650753
 10
113.6642856872987
 20
159.6999999650754
  0
LWPOLYLINE
  5
CA
330
C4
100
AcDbEntity
  8
0
 62
    18
420
        0
370
    25
100
AcDbPolyline
 90
        4
 70
     1
 43
0.0
 10
102.2357142587276
 20
102.6999999650749
 10
102.2357142587276
 20
99.69999996507553
 10
105.235714258727
 20
99.69999996507553
 10
105.235714258727
 20
102.6999999650749
  0
LWPOLYLINE
  5
CB
330
C4
100
AcDbEntity
  8
0
 62
    18
420
        0
370
    25
100
AcDbPolyline
 90
        4
 70
     1
 43
0.0
 10
93.80714283015597
 20
102.6999999650749
 10
93.80714283015597
 20
99.69999996507553
 10
96.80714283015607
 20
99.69999996507553
 10
96.80714283015607
 20
102.6999999650749
  0
LWPOLYLINE
  5
CC
330
C4
100
AcDbEntity
  8
0
 62
    18
420
        0
370
    25
100
AcDbPolyline
 90
        4
 70
     1
 43
0.0
 10
110.6642856872986
 20
143.4142856793611
 10
110.6642856872986
 20
140.414285679361
 10
113.6642856872987
 20
140.414285679361
 10
113.6642856872987
 20
143.4142856793611
  0
LWPOLYLINE
  5
CD
330
C4
100
AcDbEntity
  8
0
 62
    18
420
        0
370
    25
100
AcDbPolyline
 90
        4
 70
     1
 43
0.0
 10
76.9499999730127
 20
143.4142856793611
 10
76.9499999730127
 20
140.414285679361
 10
79.94999997301345
 20
140.414285679361
 10
79.94999997301345
 20
143.4142856793611
  0
CIRCLE
  5
CE
330
C4
100
AcDbEntity
  8
0
 62
    18
420
        0
370
    25
100
AcDbCircle
 10
70.49999997301343
 20
164.6999999650752
 30
0.0
 40
1.550000000000134
  0
LWPOLYLINE
  5
CF
330
C4
100
AcDbEntity
  8
0
 62
    18
420
        0
370
    25
100
AcDbPolyline
 90
        4
 70
     1
 43
0.0
 10
85.37857140158433
 20
102.6999999650749
 10
85.37857140158433
 20
99.69999996507553
 10
88.37857140158444
 20
99.69999996507553
 10
88.37857140158444
 20
102.6999999650749
  0
CIRCLE
  5
D0
330
C4
100
AcDbEntity
  8
0
 62
    18
420
        0
370
    25
100
AcDbCircle
 10
145.3999999730133
 20
94.69999996507535
 30
0.0
 40
1.549999999999894
  0
LWPOLYLINE
  5
D1
330
C4
100
AcDbEntity
  8
0
 62
    18
420
        0
370
    25
100
AcDbPolyline
 90
        4
 70
     1
 43
0.0
 10
135.9499999730128
 20
102.6999999650749
 10
135.9499999730128
 20
99.69999996507553
 10
138.9499999730129
 20
99.69999996507553
 10
138.9499999730129
 20
102.6999999650749
  0
LWPOLYLINE
  5
D2
330
C4
100
AcDbEntity
  8
0
 62
    18
420
        0
370
    25
100
AcDbPolyline
 90
        4
 70
     1
 43
0.0
 10
119.0928571158702
 20
102.6999999650749
 10
119.0928571158702
 20
99.69999996507553
 10
122.0928571158703
 20
99.69999996507553
 10
122.0928571158703
 20
102.6999999650749
  0
CIRCLE
  5
D3
330
C4
100
AcDbEntity
  8
0
 62
    18
420
        0
370
    25
100
AcDbCircle
 10
70.49999997301343
 20
94.69999996507535
 30
0.0
 40
1.550000000000134
  0
LWPOLYLINE
  5
D4
330
C4
100
AcDbEntity
  8
0
 62
    18
420
        0
370
    25
100
AcDbPolyline
 90
        4
 70
     1
 43
0.0
 10
135.9499999730128
 20
151.5571428222181
 10
135.9499999730128
 20
148.557142822218
 10
138.9499999730129
 20
148.557142822218
 10
138.9499999730129
 20
151.5571428222181
  0
LWPOLYLINE
  5
D5
330
C4
100
AcDbEntity
  8
0
 62
    18
420
        0
370
    25
100
AcDbPolyline
 90
        4
 70
     1
 43
0.0
 10
127.5214285444418
 20
102.6999999650749
 10
127.5214285444418
 20
99.69999996507553
 10
130.5214285444419
 20
99.69999996507553
 10
130.5214285444419
 20
102.6999999650749
  0
LWPOLYLINE
  5
D6
330
C4
100
AcDbEntity
  8
0
 62
    18
420
        0
370
    25
100
AcDbPolyline
 90
        4
 70
     1
 43
0.0
 10
110.6642856872986
 20
102.6999999650749
 10
110.6642856872986
 20
99.69999996507553
 10
113.6642856872987
 20
99.69999996507553
 10
113.6642856872987
 20
102.6999999650749
  0
LWPOLYLINE
  5
D7
330
C4
100
AcDbEntity
  8
0
 62
    18
420
        0
370
    25
100
AcDbPolyline
 90
        4
 70
     1
 43
0.0
 10
127.5214285444418
 20
151.5571428222181
 10
127.5214285444418
 20
148.557142822218
 10
130.5214285444419
 20
148.557142822218
 10
130.5214285444419
 20
151.5571428222181
  0
CIRCLE
  5
D8
330
C4
100
AcDbEntity
  8
0
 62
    18
420
        0
370
    25
100
AcDbCircle
 10
145.3999999730133
 20
164.6999999650752
 30
0.0
 40
1.549999999999894
  0
LWPOLYLINE
  5
D9
330
C4
100
AcDbEntity
  8
0
 62
    18
420
        0
370
    25
100
AcDbPolyline
 90
        4
 70
     1
 43
0.0
 10
127.5214285444418
 20
143.4142856793611
 10
127.5214285444418
 20
140.414285679361
 10
130.5214285444419
 20
140.414285679361
 10
130.5214285444419
 20
143.4142856793611
  0
LWPOLYLINE
  5
DA
330
C4
100
AcDbEntity
  8
0
 62
    18
420
        0
370
    25
100
AcDbPolyline
 90
        4
 70
     1
 43
0.0
 10
76.9499999730127
 20
159.6999999650754
 10
76.9499999730127
 20
156.6999999650753
 10
79.94999997301345
 20
156.6999999650753
 10
79.94999997301345
 20
159.6999999650754
  0
LWPOLYLINE
  5
DB
330
C4
100
AcDbEntity
  8
0
 62
    18
420
        0
370
    25
100
AcDbPolyline
 90
        4
 70
     1
 43
0.0
 10
93.80714283015597
 20
143.4142856793611
 10
93.80714283015597
 20
140.414285679361
 10
96.80714283015607
 20
140.414285679361
 10
96.80714283015607
 20
143.4142856793611
  0
LWPOLYLINE
  5
DC
330
C4
100
AcDbEntity
  8
0
 62
    18
420
        0
370
    25
100
AcDbPolyline
 90
        4
 70
     1
 43
0.0
 10
102.2357142587276
 20
143.4142856793611
 10
102.2357142587276
 20
140.414285679361
 10
105.235714258727
 20
140.414285679361
 10
105.235714258727
 20
143.4142856793611
  0
LWPOLYLINE
  5
DD
330
C4
100
AcDbEntity
  8
0
 62
    18
420
        0
370
    25
100
AcDbPolyline
 90
        4
 70
     1
 43
0.0
 10
119.0928571158702
 20
151.5571428222181
 10
119.0928571158702
 20
148.557142822218
 10
122.0928571158703
 20
148.557142822218
 10
122.0928571158703
 20
151.5571428222181
  0
LWPOLYLINE
  5
DE
330
C4
100
AcDbEntity
  8
0
 62
    18
420
        0
370
    25
100
AcDbPolyline
 90
        4
 70
     1
 43
0.0
 10
85.37857140158433
 20
143.4142856793611
 10
85.37857140158433
 20
140.414285679361
 10
88.37857140158444
 20
140.414285679361
 10
88.37857140158444
 20
143.4142856793611
  0
LWPOLYLINE
  5
DF
330
C4
100
AcDbEntity
  8
0
 62
    18
420
        0
370
    25
100
AcDbPolyline
 90
        4
 70
     1
 43
0.0
 10
119.0928571158702
 20
143.4142856793611
 10
119.0928571158702
 20
140.414285679361
 10
122.0928571158703
 20
140.414285679361
 10
122.0928571158703
 20
143.4142856793611
  0
LWPOLYLINE
  5
E0
330
C4
100
AcDbEntity
  8
0
 62
    18
420
        0
370
    25
100
AcDbPolyline
 90
        4
 70
     1
 43
0.0
 10
85.37857140158433
 20
159.6999999650754
 10
85.37857140158433
 20
156.6999999650753
 10
88.37857140158444
 20
156.6999999650753
 10
88.37857140158444
 20
159.6999999650754
  0
LWPOLYLINE
  5
E1
330
C4
100
AcDbEntity
  8
0
 62
    18
420
        0
370
    25
100
AcDbPolyline
 90
        4
 70
     1
 43
0.0
 10
93.80714283015597
 20
159.6999999650754
 10
93.80714283015597
 20
156.6999999650753
 10
96.80714283015607
 20
156.6999999650753
 10
96.80714283015607
 20
159.6999999650754
  0
LWPOLYLINE
  5
E2
330
C4
100
AcDbEntity
  8
0
 62
    18
420
        0
370
    25
100
AcDbPolyline
 90
        4
 70
     1
 43
0.0
 10
102.2357142587276
 20
159.6999999650754
 10
102.2357142587276
 20
156.6999999650753
 10
105.235714258727
 20
156.6999999650753
 10
105.235714258727
 20
159.6999999650754
  0
LWPOLYLINE
  5
E3
330
C4
100
AcDbEntity
  8
0
 62
    18
420
        0
370
    25
100
AcDbPolyline
 90
        4
 70
     1
 43
0.0
 10
119.0928571158702
 20
159.6999999650754
 10
119.0928571158702
 20
156.6999999650753
 10
122.0928571158703
 20
156.6999999650753
 10
122.0928571158703
 20
159.6999999650754
  0
LWPOLYLINE
  5
E4
330
C4
100
AcDbEntity
  8
0
 62
    18
420
        0
370
    25
100
AcDbPolyline
 90
        4
 70
     1
 43
0.0
 10
127.5214285444418
 20
159.6999999650754
 10
127.5214285444418
 20
156.6999999650753
 10
130.5214285444419
 20
156.6999999650753
 10
130.5214285444419
 20
159.6999999650754
  0
LWPOLYLINE
  5
E5
330
C4
100
AcDbEntity
  8
0
 62
    18
420
        0
370
    25
100
AcDbPolyline
 90
        4
 70
     1
 43
0.0
 10
135.9499999730128
 20
159.6999999650754
 10
135.9499999730128
 20
156.6999999650753
 10
138.9499999730129
 20
156.6999999650753
 10
138.9499999730129
 20
159.6999999650754
  0
LWPOLYLINE
  5
E6
330
C4
100
AcDbEntity
  8
0
 62
    18
420
        0
370
    25
100
AcDbPolyline
 90
        4
 70
     1
 43
0.0
 10
76.9499999730127
 20
151.5571428222181
 10
76.9499999730127
 20
148.557142822218
 10
79.94999997301345
 20
148.557142822218
 10
79.94999997301345
 20
151.5571428222181
  0
LWPOLYLINE
  5
E7
330
C4
100
AcDbEntity
  8
0
 62
    18
420
        0
370
    25
100
AcDbPolyline
 90
        4
 70
     1
 43
0.0
 10
85.37857140158433
 20
151.5571428222181
 10
85.37857140158433
 20
148.557142822218
 10
88.37857140158444
 20
148.557142822218
 10
88.37857140158444
 20
151.5571428222181
  0
LWPOLYLINE
  5
E8
330
C4
100
AcDbEntity
  8
0
 62
    18
420
        0
370
    25
100
AcDbPolyline
 90
        4
 70
     1
 43
0.0
 10
93.80714283015597
 20
151.5571428222181
 10
93.80714283015597
 20
148.557142822218
 10
96.80714283015607
 20
148.557142822218
 10
96.80714283015607
 20
151.5571428222181
  0
LWPOLYLINE
  5
E9
330
C4
100
AcDbEntity
  8
0
 62
    18
420
        0
370
    25
100
AcDbPolyline
 90
        4
 70
     1
 43
0.0
 10
102.2357142587276
 20
151.5571428222181
 10
102.2357142587276
 20
148.557142822218
 10
105.235714258727
 20
148.557142822218
 10
105.235714258727
 20
151.5571428222181
  0
LWPOLYLINE
  5
EA
330
C4
100
AcDbEntity
  8
0
 62
    18
420
        0
370
    25
100
AcDbPolyline
 90
        4
 70
     1
 43
0.0
 10
110.6642856872986
 20
151.5571428222181
 10
110.6642856872986
 20
148.557142822218
 10
113.6642856872987
 20
148.557142822218
 10
113.6642856872987
 20
151.5571428222181
  0
LWPOLYLINE
  5
EB
330
C4
100
AcDbEntity
  8
0
 62
    18
420
        0
370
    25
100
AcDbPolyline
 90
        4
 70
     1
 43
0.0
 10
135.9499999730128
 20
143.4142856793611
 10
135.9499999730128
 20
140.414285679361
 10
138.9499999730129
 20
140.414285679361
 10
138.9499999730129
 20
143.4142856793611
  0
LWPOLYLINE
  5
EC
330
C4
100
AcDbEntity
  8
0
 62
    18
420
        0
370
    25
100
AcDbPolyline
 90
        4
 70
     1
 43
0.0
 10
85.37857140158433
 20
110.8428571079326
 10
85.37857140158433
 20
107.8428571079325
 10
88.37857140158444
 20
107.8428571079325
 10
88.37857140158444
 20
110.8428571079326
  0
LWPOLYLINE
  5
ED
330
C4
100
AcDbEntity
  8
0
 62
    18
420
        0
370
    25
100
AcDbPolyline
 90
        4
 70
     1
 43
0.0
 10
127.5214285444418
 20
110.8428571079326
 10
127.5214285444418
 20
107.8428571079325
 10
130.5214285444419
 20
107.8428571079325
 10
130.5214285444419
 20
110.8428571079326
  0
LWPOLYLINE
  5
EE
330
C4
100
AcDbEntity
  8
0
 62
    18
420
        0
370
    25
100
AcDbPolyline
 90
        4
 70
     1
 43
0.0
 10
102.2357142587276
 20
135.2714285365041
 10
102.2357142587276
 20
132.2714285365034
 10
105.235714258727
 20
132.2714285365034
 10
105.235714258727
 20
135.2714285365041
  0
LWPOLYLINE
  5
EF
330
C4
100
AcDbEntity
  8
0
 62
    18
420
        0
370
    25
100
AcDbPolyline
 90
        4
 70
     1
 43
0.0
 10
93.80714283015597
 20
118.9857142507895
 10
93.80714283015597
 20
115.9857142507894
 10
96.80714283015607
 20
115.9857142507894
 10
96.80714283015607
 20
118.9857142507895
  0
LWPOLYLINE
  5
F0
330
C4
100
AcDbEntity
  8
0
 62
    18
420
        0
370
    25
100
AcDbPolyline
 90
        4
 70
     1
 43
0.0
 10
119.0928571158702
 20
110.8428571079326
 10
119.0928571158702
 20
107.8428571079325
 10
122.0928571158703
 20
107.8428571079325
 10
122.0928571158703
 20
110.8428571079326
  0
LWPOLYLINE
  5
F1
330
C4
100
AcDbEntity
  8
0
 62
    18
420
        0
370
    25
100
AcDbPolyline
 90
        4
 70
     1
 43
0.0
 10
102.2357142587276
 20
110.8428571079326
 10
102.2357142587276
 20
107.8428571079325
 10
105.235714258727
 20
107.8428571079325
 10
105.235714258727
 20
110.8428571079326
  0
LWPOLYLINE
  5
F2
330
C4
100
AcDbEntity
  8
0
 62
    18
420
        0
370
    25
100
AcDbPolyline
 90
        4
 70
     1
 43
0.0
 10
93.80714283015597
 20
110.8428571079326
 10
93.80714283015597
 20
107.8428571079325
 10
96.80714283015607
 20
107.8428571079325
 10
96.80714283015607
 20
110.8428571079326
  0
LWPOLYLINE
  5
F3
330
C4
100
AcDbEntity
  8
0
 62
    18
420
        0
370
    25
100
AcDbPolyline
 90
        4
 70
     1
 43
0.0
 10
102.2357142587276
 20
118.9857142507895
 10
102.2357142587276
 20
115.9857142507894
 10
105.235714258727
 20
115.9857142507894
 10
105.235714258727
 20
118.9857142507895
  0
LWPOLYLINE
  5
F4
330
C4
100
AcDbEntity
  8
0
 62
    18
420
        0
370
    25
100
AcDbPolyline
 90
        4
 70
     1
 43
0.0
 10
110.6642856872986
 20
118.9857142507895
 10
110.6642856872986
 20
115.9857142507894
 10
113.6642856872987
 20
115.9857142507894
 10
113.6642856872987
 20
118.9857142507895
  0
LWPOLYLINE
  5
F5
330
C4
100
AcDbEntity
  8
0
 62
    18
420
        0
370
    25
100
AcDbPolyline
 90
        4
 70
     1
 43
0.0
 10
85.37857140158433
 20
127.1285713936465
 10
85.37857140158433
 20
124.1285713936464
 10
88.37857140158444
 20
124.1285713936464
 10
88.37857140158444
 20
127.1285713936465
  0
LWPOLYLINE
  5
F6
330
C4
100
AcDbEntity
  8
0
 62
    18
420
        0
370
    25
100
AcDbPolyline
 90
        4
 70
     1
 43
0.0
 10
135.9499999730128
 20
118.9857142507895
 10
135.9499999730128
 20
115.9857142507894
 10
138.9499999730129
 20
115.9857142507894
 10
138.9499999730129
 20
118.9857142507895
  0
LWPOLYLINE
  5
F7
330
C4
100
AcDbEntity
  8
0
 62
    18
420
        0
370
    25
100
AcDbPolyline
 90
        4
 70
     1
 43
0.0
 10
135.9499999730128
 20
127.1285713936465
 10
135.9499999730128
 20
124.1285713936464
 10
138.9499999730129
 20
124.1285713936464
 10
138.9499999730129
 20
127.1285713936465
  0
LWPOLYLINE
  5
F8
330
C4
100
AcDbEntity
  8
0
 62
    18
420
        0
370
    25
100
AcDbPolyline
 90
        4
 70
     1
 43
0.0
 10
93.80714283015597
 20
135.2714285365041
 10
93.80714283015597
 20
132.2714285365034
 10
96.80714283015607
 20
132.2714285365034
 10
96.80714283015607
 20
135.2714285365041
  0
LWPOLYLINE
  5
F9
330
C4
100
AcDbEntity
  8
0
 62
    18
420
        0
370
    25
100
AcDbPolyline
 90
        4
 70
     1
 43
0.0
 10
85.37857140158433
 20
118.9857142507895
 10
85.37857140158433
 20
115.9857142507894
 10
88.37857140158444
 20
115.9857142507894
 10
88.37857140158444
 20
118.9857142507895
  0
LWPOLYLINE
  5
FA
330
C4
100
AcDbEntity
  8
0
 62
    18
420
        0
370
    25
100
AcDbPolyline
 90
        4
 70
     1
 43
0.0
 10
76.9499999730127
 20
127.1285713936465
 10
76.9499999730127
 20
124.1285713936464
 10
79.94999997301345
 20
124.1285713936464
 10
79.94999997301345
 20
127.1285713936465
  0
LWPOLYLINE
  5
FB
330
C4
100
AcDbEntity
  8
0
 62
    18
420
        0
370
    25
100
AcDbPolyline
 90
        4
 70
     1
 43
0.0
 10
110.6642856872986
 20
127.1285713936465
 10
110.6642856872986
 20
124.1285713936464
 10
113.6642856872987
 20
124.1285713936464
 10
113.6642856872987
 20
127.1285713936465
  0
LWPOLYLINE
  5
FC
330
C4
100
AcDbEntity
  8
0
 62
    18
420
        0
370
    25
100
AcDbPolyline
 90
        4
 70
     1
 43
0.0
 10
76.9499999730127
 20
118.9857142507895
 10
76.9499999730127
 20
115.9857142507894
 10
79.94999997301345
 20
115.9857142507894
 10
79.94999997301345
 20
118.9857142507895
  0
LWPOLYLINE
  5
FD
330
C4
100
AcDbEntity
  8
0
 62
    18
420
        0
370
    25
100
AcDbPolyline
 90
        4
 70
     1
 43
0.0
 10
76.9499999730127
 20
135.2714285365041
 10
76.9499999730127
 20
132.2714285365034
 10
79.94999997301345
 20
132.2714285365034
 10
79.94999997301345
 20
135.2714285365041
  0
LWPOLYLINE
  5
FE
330
C4
100
AcDbEntity
  8
0
 62
    18
420
        0
370
    25
100
AcDbPolyline
 90
        4
 70
     1
 43
0.0
 10
76.9499999730127
 20
110.8428571079326
 10
76.9499999730127
 20
107.8428571079325
 10
79.94999997301345
 20
107.8428571079325
 10
79.94999997301345
 20
110.8428571079326
  0
LWPOLYLINE
  5
FF
330
C4
100
AcDbEntity
  8
0
 62
    18
420
        0
370
    25
100
AcDbPolyline
 90
        4
 70
     1
 43
0.0
 10
119.0928571158702
 20
127.1285713936465
 10
119.0928571158702
 20
124.1285713936464
 10
122.0928571158703
 20
124.1285713936464
 10
122.0928571158703
 20
127.1285713936465
  0
LWPOLYLINE
  5
100
330
C4
100
AcDbEntity
  8
0
 62
    18
420
        0
370
    25
100
AcDbPolyline
 90
        4
 70
     1
 43
0.0
 10
119.0928571158702
 20
118.9857142507895
 10
119.0928571158702
 20
115.9857142507894
 10
122.0928571158703
 20
115.9857142507894
 10
122.0928571158703
 20
118.9857142507895
  0
LWPOLYLINE
  5
101
330
C4
100
AcDbEntity
  8
0
 62
    18
420
        0
370
    25
100
AcDbPolyline
 90
        4
 70
     1
 43
0.0
 10
135.9499999730128
 20
110.8428571079326
 10
135.9499999730128
 20
107.8428571079325
 10
138.9499999730129
 20
107.8428571079325
 10
138.9499999730129
 20
110.8428571079326
  0
LWPOLYLINE
  5
102
330
C4
100
AcDbEntity
  8
0
 62
    18
420
        0
370
    25
100
AcDbPolyline
 90
        4
 70
     1
 43
0.0
 10
135.9499999730128
 20
135.2714285365041
 10
135.9499999730128
 20
132.2714285365034
 10
138.9499999730129
 20
132.2714285365034
 10
138.9499999730129
 20
135.2714285365041
  0
LWPOLYLINE
  5
103
330
C4
100
AcDbEntity
  8
0
 62
    18
420
        0
370
    25
100
AcDbPolyline
 90
        4
 70
     1
 43
0.0
 10
85.37857140158433
 20
135.2714285365041
 10
85.37857140158433
 20
132.2714285365034
 10
88.37857140158444
 20
132.2714285365034
 10
88.37857140158444
 20
135.2714285365041
  0
LWPOLYLINE
  5
104
330
C4
100
AcDbEntity
  8
0
 62
    18
420
        0
370
    25
100
AcDbPolyline
 90
        4
 70
     1
 43
0.0
 10
127.5214285444418
 20
127.1285713936465
 10
127.5214285444418
 20
124.1285713936464
 10
130.5214285444419
 20
124.1285713936464
 10
130.5214285444419
 20
127.1285713936465
  0
LWPOLYLINE
  5
105
330
C4
100
AcDbEntity
  8
0
 62
    18
420
        0
370
    25
100
AcDbPolyline
 90
        4
 70
     1
 43
0.0
 10
127.5214285444418
 20
118.9857142507895
 10
127.5214285444418
 20
115.9857142507894
 10
130.5214285444419
 20
115.9857142507894
 10
130.5214285444419
 20
118.9857142507895
  0
LWPOLYLINE
  5
106
330
C4
100
AcDbEntity
  8
0
 62
    18
420
        0
370
    25
100
AcDbPolyline
 90
        4
 70
     1
 43
0.0
 10
110.6642856872986
 20
110.8428571079326
 10
110.6642856872986
 20
107.8428571079325
 10
113.6642856872987
 20
107.8428571079325
 10
113.6642856872987
 20
110.8428571079326
  0
LWPOLYLINE
  5
107
330
C4
100
AcDbEntity
  8
0
 62
    18
420
        0
370
    25
100
AcDbPolyline
 90
        4
 70
     1
 43
0.0
 10
110.6642856872986
 20
135.2714285365041
 10
110.6642856872986
 20
132.2714285365034
 10
113.6642856872987
 20
132.2714285365034
 10
113.6642856872987
 20
135.2714285365041
  0
LWPOLYLINE
  5
108
330
C4
100
AcDbEntity
  8
0
 62
    18
420
        0
370
    25
100
AcDbPolyline
 90
        4
 70
     1
 43
0.0
 10
119.0928571158702
 20
135.2714285365041
 10
119.0928571158702
 20
132.2714285365034
 10
122.0928571158703
 20
132.2714285365034
 10
122.0928571158703
 20
135.2714285365041
  0
LWPOLYLINE
  5
109
330
C4
100
AcDbEntity
  8
0
 62
    18
420
        0
370
    25
100
AcDbPolyline
 90
        4
 70
     1
 43
0.0
 10
76.9499999730127
 20
102.6999999650749
 10
76.9499999730127
 20
99.69999996507553
 10
79.94999997301345
 20
99.69999996507553
 10
79.94999997301345
 20
102.6999999650749
  0
LWPOLYLINE
  5
10A
330
C4
100
AcDbEntity
  8
0
 62
    18
420
        0
370
    25
100
AcDbPolyline
 90
        4
 70
     1
 43
0.0
 10
102.2357142587276
 20
127.1285713936465
 10
102.2357142587276
 20
124.1285713936464
 10
105.235714258727
 20
124.1285713936464
 10
105.235714258727
 20
127.1285713936465
  0
LWPOLYLINE
  5
10B
330
C4
100
AcDbEntity
  8
0
 62
    18
420
        0
370
    25
100
AcDbPolyline
 90
        4
 70
     1
 43
0.0
 10
93.80714283015597
 20
127.1285713936465
 10
93.80714283015597
 20
124.1285713936464
 10
96.80714283015607
 20
124.1285713936464
 10
96.80714283015607
 20
127.1285713936465
  0
LWPOLYLINE
  5
10C
330
C4
100
AcDbEntity
  8
0
 62
    18
420
        0
370
    25
100
AcDbPolyline
 90
        4
 70
     1
 43
0.0
 10
127.5214285444418
 20
135.2714285365041
 10
127.5214285444418
 20
132.2714285365034
 10
130.5214285444419
 20
132.2714285365034
 10
130.5214285444419
 20
135.2714285365041
  0
ENDBLK
  5
C7
330
C4
100
AcDbEntity
  8
0
100
AcDbBlockEnd
  0
BLOCK
  5
10F
330
10D
100
AcDbEntity
  8
0
100
AcDbBlockBegin
  2
Block_2
 70
     0
 10
0.0
 20
0.0
 30
0.0
  3
Block_2
  1

  0
SPLINE
  5
111
330
10D
100
AcDbEntity
  8
0
 62
    18
420
        0
370
    25
100
AcDbSpline
210
0.0
220
0.0
230
1.0
 70
     9
 71
     3
 72
    53
 73
    49
 74
     0
 42
0.0000000001
 43
0.0000000001
 40
0.0
 40
0.0
 40
0.0
 40
0.0
 40
1.0
 40
1.0
 40
1.0
 40
2.0
 40
2.0
 40
2.0
 40
3.0
 40
3.0
 40
3.0
 40
4.0
 40
4.0
 40
4.0
 40
5.0
 40
5.0
 40
5.0
 40
6.0
 40
6.0
 40
6.0
 40
7.0
 40
7.0
 40
7.0
 40
8.0
 40
8.0
 40
8.0
 40
9.0
 40
9.0
 40
9.0
 40
10.0
 40
10.0
 40
10.0
 40
11.0
 40
11.0
 40
11.0
 40
12.0
 40
12.0
 40
12.0
 40
13.0
 40
13.0
 40
13.0
 40
14.0
 40
14.0
 40
14.0
 40
15.0
 40
15.0
 40
15.0
 40
16.0
 40
16.0
 40
16.0
 40
16.0
 10
140.1071067541998
 20
88.0033242669519
 30
0.0
 10
140.2946431326474
 20
88.19086064540014
 30
0.0
 10
140.5489970455469
 20
88.29621748576586
 30
0.0
 10
140.8142135353865
 20
88.29621748576586
 30
0.0
 10
140.8142135353865
 20
88.29621748576586
 30
0.0
 10
145.3999999730133
 20
88.29621748576586
 30
0.0
 10
145.3999999730133
 20
88.29621748576586
 30
0.0
 10
148.1614237221675
 20
88.29621748576586
 30
0.0
 10
150.3999999730129
 20
86.05764123491983
 30
0.0
 10
150.3999999730129
 20
83.29621748576569
 30
0.0
 10
150.3999999730129
 20
83.29621748576569
 30
0.0
 10
150.3999999730129
 20
13.29621748576578
 30
0.0
 10
150.3999999730129
 20
13.29621748576578
 30
0.0
 10
150.3999999730129
 20
10.53479373661165
 30
0.0
 10
148.1614237221675
 20
8.296217485765609
 30
0.0
 10
145.3999999730133
 20
8.296217485765609
 30
0.0
 10
145.3999999730133
 20
8.296217485765609
 30
0.0
 10
70.49999997301391
 20
8.296217485765609
 30
0.0
 10
70.49999997301391
 20
8.296217485765609
 30
0.0
 10
67.73857622385978
 20
8.296217485765609
 30
0.0
 10
65.49999997301309
 20
10.53479373661165
 30
0.0
 10
65.49999997301309
 20
13.29621748576578
 30
0.0
 10
65.49999997301309
 20
13.29621748576578
 30
0.0
 10
65.49999997301309
 20
83.29621748576569
 30
0.0
 10
65.49999997301309
 20
83.29621748576569
 30
0.0
 10
65.49999997301309
 20
86.05764123491983
 30
0.0
 10
67.73857622385978
 20
88.29621748576586
 30
0.0
 10
70.49999997301391
 20
88.29621748576586
 30
0.0
 10
70.49999997301391
 20
88.29621748576586
 30
0.0
 10
75.08578641064071
 20
88.29621748576586
 30
0.0
 10
75.08578641064071
 20
88.29621748576586
 30
0.0
 10
75.35100290048029
 20
88.29621748576586
 30
0.0
 10
75.60535681337853
 20
88.19086064540078
 30
0.0
 10
75.79289319182677
 20
88.0033242669519
 30
0.0
 10
75.79289319182677
 20
88.0033242669519
 30
0.0
 10
80.2071067542003
 20
83.58911070457901
 30
0.0
 10
80.2071067542003
 20
83.58911070457901
 30
0.0
 10
80.39464313264788
 20
83.40157432613143
 30
0.0
 10
80.6489970455474
 20
83.29621748576569
 30
0.0
 10
80.91421353538699
 20
83.29621748576569
 30
0.0
 10
80.91421353538699
 20
83.29621748576569
 30
0.0
 10
134.9857864106402
 20
83.29621748576569
 30
0.0
 10
134.9857864106402
 20
83.29621748576569
 30
0.0
 10
135.2510029004798
 20
83.29621748576569
 30
0.0
 10
135.5053568133793
 20
83.40157432613143
 30
0.0
 10
135.6928931918269
 20
83.58911070457901
 30
0.0
 10
135.6928931918269
 20
83.58911070457901
 30
0.0
 10
140.1071067541998
 20
88.0033242669519
 30
0.0
 10
140.1071067541998
 20
88.0033242669519
 30
0.0
  0
LWPOLYLINE
  5
112
330
10D
100
AcDbEntity
  8
0
 62
    18
420
        0
370
    25
100
AcDbPolyline
 90
        4
 70
     1
 43
0.0
 10
110.6642856872986
 20
78.29621748576551
 10
110.6642856872986
 20
75.29621748576605
 10
113.6642856872993
 20
75.29621748576605
 10
113.6642856872993
 20
78.29621748576551
  0
LWPOLYLINE
  5
113
330
10D
100
AcDbEntity
  8
0
 62
    18
420
        0
370
    25
100
AcDbPolyline
 90
        4
 70
     1
 43
0.0
 10
102.2357142587282
 20
21.29621748576543
 10
102.2357142587282
 20
18.29621748576596
 10
105.2357142587277
 20
18.29621748576596
 10
105.2357142587277
 20
21.29621748576543
  0
LWPOLYLINE
  5
114
330
10D
100
AcDbEntity
  8
0
 62
    18
420
        0
370
    25
100
AcDbPolyline
 90
        4
 70
     1
 43
0.0
 10
93.80714283015661
 20
21.29621748576543
 10
93.80714283015661
 20
18.29621748576596
 10
96.80714283015607
 20
18.29621748576596
 10
96.80714283015607
 20
21.29621748576543
  0
LWPOLYLINE
  5
115
330
10D
100
AcDbEntity
  8
0
 62
    18
420
        0
370
    25
100
AcDbPolyline
 90
        4
 70
     1
 43
0.0
 10
110.6642856872986
 20
62.01050320005156
 10
110.6642856872986
 20
59.01050320005147
 10
113.6642856872993
 20
59.01050320005147
 10
113.6642856872993
 20
62.01050320005156
  0
LWPOLYLINE
  5
116
330
10D
100
AcDbEntity
  8
0
 62
    18
420
        0
370
    25
100
AcDbPolyline
 90
        4
 70
     1
 43
0.0
 10
76.94999997301302
 20
62.01050320005156
 10
76.94999997301302
 20
59.01050320005147
 10
79.94999997301376
 20
59.01050320005147
 10
79.94999997301376
 20
62.01050320005156
  0
CIRCLE
  5
117
330
10D
100
AcDbEntity
  8
0
 62
    18
420
        0
370
    25
100
AcDbCircle
 10
70.49999997301374
 20
83.29621748576569
 30
0.0
 40
1.550000000000134
  0
LWPOLYLINE
  5
118
330
10D
100
AcDbEntity
  8
0
 62
    18
420
        0
370
    25
100
AcDbPolyline
 90
        4
 70
     1
 43
0.0
 10
85.37857140158465
 20
21.29621748576543
 10
85.37857140158465
 20
18.29621748576596
 10
88.37857140158474
 20
18.29621748576596
 10
88.37857140158474
 20
21.29621748576543
  0
CIRCLE
  5
119
330
10D
100
AcDbEntity
  8
0
 62
    18
420
        0
370
    25
100
AcDbCircle
 10
145.3999999730133
 20
13.29621748576578
 30
0.0
 40
1.549999999999894
  0
LWPOLYLINE
  5
11A
330
10D
100
AcDbEntity
  8
0
 62
    18
420
        0
370
    25
100
AcDbPolyline
 90
        4
 70
     1
 43
0.0
 10
135.9499999730135
 20
21.29621748576543
 10
135.9499999730135
 20
18.29621748576596
 10
138.9499999730129
 20
18.29621748576596
 10
138.9499999730129
 20
21.29621748576543
  0
LWPOLYLINE
  5
11B
330
10D
100
AcDbEntity
  8
0
 62
    18
420
        0
370
    25
100
AcDbPolyline
 90
        4
 70
     1
 43
0.0
 10
119.0928571158702
 20
21.29621748576543
 10
119.0928571158702
 20
18.29621748576596
 10
122.0928571158709
 20
18.29621748576596
 10
122.0928571158709
 20
21.29621748576543
  0
CIRCLE
  5
11C
330
10D
100
AcDbEntity
  8
0
 62
    18
420
        0
370
    25
100
AcDbCircle
 10
70.49999997301374
 20
13.29621748576578
 30
0.0
 40
1.550000000000134
  0
LWPOLYLINE
  5
11D
330
10D
100
AcDbEntity
  8
0
 62
    18
420
        0
370
    25
100
AcDbPolyline
 90
        4
 70
     1
 43
0.0
 10
135.9499999730135
 20
70.15336034290854
 10
135.9499999730135
 20
67.15336034290844
 10
138.9499999730129
 20
67.15336034290844
 10
138.9499999730129
 20
70.15336034290854
  0
LWPOLYLINE
  5
11E
330
10D
100
AcDbEntity
  8
0
 62
    18
420
        0
370
    25
100
AcDbPolyline
 90
        4
 70
     1
 43
0.0
 10
127.5214285444418
 20
21.29621748576543
 10
127.5214285444418
 20
18.29621748576596
 10
130.5214285444426
 20
18.29621748576596
 10
130.5214285444426
 20
21.29621748576543
  0
LWPOLYLINE
  5
11F
330
10D
100
AcDbEntity
  8
0
 62
    18
420
        0
370
    25
100
AcDbPolyline
 90
        4
 70
     1
 43
0.0
 10
110.6642856872986
 20
21.29621748576543
 10
110.6642856872986
 20
18.29621748576596
 10
113.6642856872993
 20
18.29621748576596
 10
113.6642856872993
 20
21.29621748576543
  0
LWPOLYLINE
  5
120
330
10D
100
AcDbEntity
  8
0
 62
    18
420
        0
370
    25
100
AcDbPolyline
 90
        4
 70
     1
 43
0.0
 10
127.5214285444418
 20
70.15336034290854
 10
127.5214285444418
 20
67.15336034290844
 10
130.5214285444426
 20
67.15336034290844
 10
130.5214285444426
 20
70.15336034290854
  0
CIRCLE
  5
121
330
10D
100
AcDbEntity
  8
0
 62
    18
420
        0
370
    25
100
AcDbCircle
 10
145.3999999730133
 20
83.29621748576569
 30
0.0
 40
1.549999999999894
  0
LWPOLYLINE
  5
122
330
10D
100
AcDbEntity
  8
0
 62
    18
420
        0
370
    25
100
AcDbPolyline
 90
        4
 70
     1
 43
0.0
 10
127.5214285444418
 20
62.01050320005156
 10
127.5214285444418
 20
59.01050320005147
 10
130.5214285444426
 20
59.01050320005147
 10
130.5214285444426
 20
62.01050320005156
  0
LWPOLYLINE
  5
123
330
10D
100
AcDbEntity
  8
0
 62
    18
420
        0
370
    25
100
AcDbPolyline
 90
        4
 70
     1
 43
0.0
 10
76.94999997301302
 20
78.29621748576551
 10
76.94999997301302
 20
75.29621748576605
 10
79.94999997301376
 20
75.29621748576605
 10
79.94999997301376
 20
78.29621748576551
  0
LWPOLYLINE
  5
124
330
10D
100
AcDbEntity
  8
0
 62
    18
420
        0
370
    25
100
AcDbPolyline
 90
        4
 70
     1
 43
0.0
 10
93.80714283015661
 20
62.01050320005156
 10
93.80714283015661
 20
59.01050320005147
 10
96.80714283015607
 20
59.01050320005147
 10
96.80714283015607
 20
62.01050320005156
  0
LWPOLYLINE
  5
125
330
10D
100
AcDbEntity
  8
0
 62
    18
420
        0
370
    25
100
AcDbPolyline
 90
        4
 70
     1
 43
0.0
 10
102.2357142587282
 20
62.01050320005156
 10
102.2357142587282
 20
59.01050320005147
 10
105.2357142587277
 20
59.01050320005147
 10
105.2357142587277
 20
62.01050320005156
  0
LWPOLYLINE
  5
126
330
10D
100
AcDbEntity
  8
0
 62
    18
420
        0
370
    25
100
AcDbPolyline
 90
        4
 70
     1
 43
0.0
 10
119.0928571158702
 20
70.15336034290854
 10
119.0928571158702
 20
67.15336034290844
 10
122.0928571158709
 20
67.15336034290844
 10
122.0928571158709
 20
70.15336034290854
  0
LWPOLYLINE
  5
127
330
10D
100
AcDbEntity
  8
0
 62
    18
420
        0
370
    25
100
AcDbPolyline
 90
        4
 70
     1
 43
0.0
 10
85.37857140158465
 20
62.01050320005156
 10
85.37857140158465
 20
59.01050320005147
 10
88.37857140158474
 20
59.01050320005147
 10
88.37857140158474
 20
62.01050320005156
  0
LWPOLYLINE
  5
128
330
10D
100
AcDbEntity
  8
0
 62
    18
420
        0
370
    25
100
AcDbPolyline
 90
        4
 70
     1
 43
0.0
 10
119.0928571158702
 20
62.01050320005156
 10
119.0928571158702
 20
59.01050320005147
 10
122.0928571158709
 20
59.01050320005147
 10
122.0928571158709
 20
62.01050320005156
  0
LWPOLYLINE
  5
129
330
10D
100
AcDbEntity
  8
0
 62
    18
420
        0
370
    25
100
AcDbPolyline
 90
        4
 70
     1
 43
0.0
 10
85.37857140158465
 20
78.29621748576551
 10
85.37857140158465
 20
75.29621748576605
 10
88.37857140158474
 20
75.29621748576605
 10
88.37857140158474
 20
78.29621748576551
  0
LWPOLYLINE
  5
12A
330
10D
100
AcDbEntity
  8
0
 62
    18
420
        0
370
    25
100
AcDbPolyline
 90
        4
 70
     1
 43
0.0
 10
93.80714283015661
 20
78.29621748576551
 10
93.80714283015661
 20
75.29621748576605
 10
96.80714283015607
 20
75.29621748576605
 10
96.80714283015607
 20
78.29621748576551
  0
LWPOLYLINE
  5
12B
330
10D
100
AcDbEntity
  8
0
 62
    18
420
        0
370
    25
100
AcDbPolyline
 90
        4
 70
     1
 43
0.0
 10
102.2357142587282
 20
78.29621748576551
 10
102.2357142587282
 20
75.29621748576605
 10
105.2357142587277
 20
75.29621748576605
 10
105.2357142587277
 20
78.29621748576551
  0
LWPOLYLINE
  5
12C
330
10D
100
AcDbEntity
  8
0
 62
    18
420
        0
370
    25
100
AcDbPolyline
 90
        4
 70
     1
 43
0.0
 10
119.0928571158702
 20
78.29621748576551
 10
119.0928571158702
 20
75.29621748576605
 10
122.0928571158709
 20
75.29621748576605
 10
122.0928571158709
 20
78.29621748576551
  0
LWPOLYLINE
  5
12D
330
10D
100
AcDbEntity
  8
0
 62
    18
420
        0
370
    25
100
AcDbPolyline
 90
        4
 70
     1
 43
0.0
 10
127.5214285444418
 20
78.29621748576551
 10
127.5214285444418
 20
75.29621748576605
 10
130.5214285444426
 20
75.29621748576605
 10
130.5214285444426
 20
78.29621748576551
  0
LWPOLYLINE
  5
12E
330
10D
100
AcDbEntity
  8
0
 62
    18
420
        0
370
    25
100
AcDbPolyline
 90
        4
 70
     1
 43
0.0
 10
135.9499999730135
 20
78.29621748576551
 10
135.9499999730135
 20
75.29621748576605
 10
138.9499999730129
 20
75.29621748576605
 10
138.9499999730129
 20
78.29621748576551
  0
LWPOLYLINE
  5
12F
330
10D
100
AcDbEntity
  8
0
 62
    18
420
        0
370
    25
100
AcDbPolyline
 90
        4
 70
     1
 43
0.0
 10
76.94999997301302
 20
70.15336034290854
 10
76.94999997301302
 20
67.15336034290844
 10
79.94999997301376
 20
67.15336034290844
 10
79.94999997301376
 20
70.15336034290854
  0
LWPOLYLINE
  5
130
330
10D
100
AcDbEntity
  8
0
 62
    18
420
        0
370
    25
100
AcDbPolyline
 90
        4
 70
     1
 43
0.0
 10
85.37857140158465
 20
70.15336034290854
 10
85.37857140158465
 20
67.15336034290844
 10
88.37857140158474
 20
67.15336034290844
 10
88.37857140158474
 20
70.15336034290854
  0
LWPOLYLINE
  5
131
330
10D
100
AcDbEntity
  8
0
 62
    18
420
        0
370
    25
100
AcDbPolyline
 90
        4
 70
     1
 43
0.0
 10
93.80714283015661
 20
70.15336034290854
 10
93.80714283015661
 20
67.15336034290844
 10
96.80714283015607
 20
67.15336034290844
 10
96.80714283015607
 20
70.15336034290854
  0
LWPOLYLINE
  5
132
330
10D
100
AcDbEntity
  8
0
 62
    18
420
        0
370
    25
100
AcDbPolyline
 90
        4
 70
     1
 43
0.0
 10
102.2357142587282
 20
70.15336034290854
 10
102.2357142587282
 20
67.15336034290844
 10
105.2357142587277
 20
67.15336034290844
 10
105.2357142587277
 20
70.15336034290854
  0
LWPOLYLINE
  5
133
330
10D
100
AcDbEntity
  8
0
 62
    18
420
        0
370
    25
100
AcDbPolyline
 90
        4
 70
     1
 43
0.0
 10
110.6642856872986
 20
70.15336034290854
 10
110.6642856872986
 20
67.15336034290844
 10
113.6642856872993
 20
67.15336034290844
 10
113.6642856872993
 20
70.15336034290854
  0
LWPOLYLINE
  5
134
330
10D
100
AcDbEntity
  8
0
 62
    18
420
        0
370
    25
100
AcDbPolyline
 90
        4
 70
     1
 43
0.0
 10
135.9499999730135
 20
62.01050320005156
 10
135.9499999730135
 20
59.01050320005147
 10
138.9499999730129
 20
59.01050320005147
 10
138.9499999730129
 20
62.01050320005156
  0
LWPOLYLINE
  5
135
330
10D
100
AcDbEntity
  8
0
 62
    18
420
        0
370
    25
100
AcDbPolyline
 90
        4
 70
     1
 43
0.0
 10
85.37857140158465
 20
29.43907462862304
 10
85.37857140158465
 20
26.43907462862293
 10
88.37857140158474
 20
26.43907462862293
 10
88.37857140158474
 20
29.43907462862304
  0
LWPOLYLINE
  5
136
330
10D
100
AcDbEntity
  8
0
 62
    18
420
        0
370
    25
100
AcDbPolyline
 90
        4
 70
     1
 43
0.0
 10
127.5214285444418
 20
29.43907462862304
 10
127.5214285444418
 20
26.43907462862293
 10
130.5214285444426
 20
26.43907462862293
 10
130.5214285444426
 20
29.43907462862304
  0
LWPOLYLINE
  5
137
330
10D
100
AcDbEntity
  8
0
 62
    18
420
        0
370
    25
100
AcDbPolyline
 90
        4
 70
     1
 43
0.0
 10
102.2357142587282
 20
53.86764605719459
 10
102.2357142587282
 20
50.86764605719385
 10
105.2357142587277
 20
50.86764605719385
 10
105.2357142587277
 20
53.86764605719459
  0
LWPOLYLINE
  5
138
330
10D
100
AcDbEntity
  8
0
 62
    18
420
        0
370
    25
100
AcDbPolyline
 90
        4
 70
     1
 43
0.0
 10
93.80714283015661
 20
37.58193177148001
 10
93.80714283015661
 20
34.58193177147991
 10
96.80714283015607
 20
34.58193177147991
 10
96.80714283015607
 20
37.58193177148001
  0
LWPOLYLINE
  5
139
330
10D
100
AcDbEntity
  8
0
 62
    18
420
        0
370
    25
100
AcDbPolyline
 90
        4
 70
     1
 43
0.0
 10
119.0928571158702
 20
29.43907462862304
 10
119.0928571158702
 20
26.43907462862293
 10
122.0928571158709
 20
26.43907462862293
 10
122.0928571158709
 20
29.43907462862304
  0
LWPOLYLINE
  5
13A
330
10D
100
AcDbEntity
  8
0
 62
    18
420
        0
370
    25
100
AcDbPolyline
 90
        4
 70
     1
 43
0.0
 10
102.2357142587282
 20
29.43907462862304
 10
102.2357142587282
 20
26.43907462862293
 10
105.2357142587277
 20
26.43907462862293
 10
105.2357142587277
 20
29.43907462862304
  0
LWPOLYLINE
  5
13B
330
10D
100
AcDbEntity
  8
0
 62
    18
420
        0
370
    25
100
AcDbPolyline
 90
        4
 70
     1
 43
0.0
 10
93.80714283015661
 20
29.43907462862304
 10
93.80714283015661
 20
26.43907462862293
 10
96.80714283015607
 20
26.43907462862293
 10
96.80714283015607
 20
29.43907462862304
  0
LWPOLYLINE
  5
13C
330
10D
100
AcDbEntity
  8
0
 62
    18
420
        0
370
    25
100
AcDbPolyline
 90
        4
 70
     1
 43
0.0
 10
102.2357142587282
 20
37.58193177148001
 10
102.2357142587282
 20
34.58193177147991
 10
105.2357142587277
 20
34.58193177147991
 10
105.2357142587277
 20
37.58193177148001
  0
LWPOLYLINE
  5
13D
330
10D
100
AcDbEntity
  8
0
 62
    18
420
        0
370
    25
100
AcDbPolyline
 90
        4
 70
     1
 43
0.0
 10
110.6642856872986
 20
37.58193177148001
 10
110.6642856872986
 20
34.58193177147991
 10
113.6642856872993
 20
34.58193177147991
 10
113.6642856872993
 20
37.58193177148001
  0
LWPOLYLINE
  5
13E
330
10D
100
AcDbEntity
  8
0
 62
    18
420
        0
370
    25
100
AcDbPolyline
 90
        4
 70
     1
 43
0.0
 10
85.37857140158465
 20
45.72478891433698
 10
85.37857140158465
 20
42.72478891433688
 10
88.37857140158474
 20
42.72478891433688
 10
88.37857140158474
 20
45.72478891433698
  0
LWPOLYLINE
  5
13F
330
10D
100
AcDbEntity
  8
0
 62
    18
420
        0
370
    25
100
AcDbPolyline
 90
        4
 70
     1
 43
0.0
 10
135.9499999730135
 20
37.58193177148001
 10
135.9499999730135
 20
34.58193177147991
 10
138.9499999730129
 20
34.58193177147991
 10
138.9499999730129
 20
37.58193177148001
  0
LWPOLYLINE
  5
140
330
10D
100
AcDbEntity
  8
0
 62
    18
420
        0
370
    25
100
AcDbPolyline
 90
        4
 70
     1
 43
0.0
 10
135.9499999730135
 20
45.72478891433698
 10
135.9499999730135
 20
42.72478891433688
 10
138.9499999730129
 20
42.72478891433688
 10
138.9499999730129
 20
45.72478891433698
  0
LWPOLYLINE
  5
141
330
10D
100
AcDbEntity
  8
0
 62
    18
420
        0
370
    25
100
AcDbPolyline
 90
        4
 70
     1
 43
0.0
 10
93.80714283015661
 20
53.86764605719459
 10
93.80714283015661
 20
50.86764605719385
 10
96.80714283015607
 20
50.86764605719385
 10
96.80714283015607
 20
53.86764605719459
  0
LWPOLYLINE
  5
142
330
10D
100
AcDbEntity
  8
0
 62
    18
420
        0
370
    25
100
AcDbPolyline
 90
        4
 70
     1
 43
0.0
 10
85.37857140158465
 20
37.58193177148001
 10
85.37857140158465
 20
34.58193177147991
 10
88.37857140158474
 20
34.58193177147991
 10
88.37857140158474
 20
37.58193177148001
  0
LWPOLYLINE
  5
143
330
10D
100
AcDbEntity
  8
0
 62
    18
420
        0
370
    25
100
AcDbPolyline
 90
        4
 70
     1
 43
0.0
 10
76.94999997301302
 20
45.72478891433698
 10
76.94999997301302
 20
42.72478891433688
 10
79.94999997301376
 20
42.72478891433688
 10
79.94999997301376
 20
45.72478891433698
  0
LWPOLYLINE
  5
144
330
10D
100
AcDbEntity
  8
0
 62
    18
420
        0
370
    25
100
AcDbPolyline
 90
        4
 70
     1
 43
0.0
 10
110.6642856872986
 20
45.72478891433698
 10
110.6642856872986
 20
42.72478891433688
 10
113.6642856872993
 20
42.72478891433688
 10
113.6642856872993
 20
45.72478891433698
  0
LWPOLYLINE
  5
145
330
10D
100
AcDbEntity
  8
0
 62
    18
420
        0
370
    25
100
AcDbPolyline
 90
        4
 70
     1
 43
0.0
 10
76.94999997301302
 20
37.58193177148001
 10
76.94999997301302
 20
34.58193177147991
 10
79.94999997301376
 20
34.58193177147991
 10
79.94999997301376
 20
37.58193177148001
  0
LWPOLYLINE
  5
146
330
10D
100
AcDbEntity
  8
0
 62
    18
420
        0
370
    25
100
AcDbPolyline
 90
        4
 70
     1
 43
0.0
 10
76.94999997301302
 20
53.86764605719459
 10
76.94999997301302
 20
50.86764605719385
 10
79.94999997301376
 20
50.86764605719385
 10
79.94999997301376
 20
53.86764605719459
  0
LWPOLYLINE
  5
147
330
10D
100
AcDbEntity
  8
0
 62
    18
420
        0
370
    25
100
AcDbPolyline
 90
        4
 70
     1
 43
0.0
 10
76.94999997301302
 20
29.43907462862304
 10
76.94999997301302
 20
26.43907462862293
 10
79.94999997301376
 20
26.43907462862293
 10
79.94999997301376
 20
29.43907462862304
  0
LWPOLYLINE
  5
148
330
10D
100
AcDbEntity
  8
0
 62
    18
420
        0
370
    25
100
AcDbPolyline
 90
        4
 70
     1
 43
0.0
 10
119.0928571158702
 20
45.72478891433698
 10
119.0928571158702
 20
42.72478891433688
 10
122.0928571158709
 20
42.72478891433688
 10
122.0928571158709
 20
45.72478891433698
  0
LWPOLYLINE
  5
149
330
10D
100
AcDbEntity
  8
0
 62
    18
420
        0
370
    25
100
AcDbPolyline
 90
        4
 70
     1
 43
0.0
 10
119.0928571158702
 20
37.58193177148001
 10
119.0928571158702
 20
34.58193177147991
 10
122.0928571158709
 20
34.58193177147991
 10
122.0928571158709
 20
37.58193177148001
  0
LWPOLYLINE
  5
14A
330
10D
100
AcDbEntity
  8
0
 62
    18
420
        0
370
    25
100
AcDbPolyline
 90
        4
 70
     1
 43
0.0
 10
135.9499999730135
 20
29.43907462862304
 10
135.9499999730135
 20
26.43907462862293
 10
138.9499999730129
 20
26.43907462862293
 10
138.9499999730129
 20
29.43907462862304
  0
LWPOLYLINE
  5
14B
330
10D
100
AcDbEntity
  8
0
 62
    18
420
        0
370
    25
100
AcDbPolyline
 90
        4
 70
     1
 43
0.0
 10
135.9499999730135
 20
53.86764605719459
 10
135.9499999730135
 20
50.86764605719385
 10
138.9499999730129
 20
50.86764605719385
 10
138.9499999730129
 20
53.86764605719459
  0
LWPOLYLINE
  5
14C
330
10D
100
AcDbEntity
  8
0
 62
    18
420
        0
370
    25
100
AcDbPolyline
 90
        4
 70
     1
 43
0.0
 10
85.37857140158465
 20
53.86764605719459
 10
85.37857140158465
 20
50.86764605719385
 10
88.37857140158474
 20
50.86764605719385
 10
88.37857140158474
 20
53.86764605719459
  0
LWPOLYLINE
  5
14D
330
10D
100
AcDbEntity
  8
0
 62
    18
420
        0
370
    25
100
AcDbPolyline
 90
        4
 70
     1
 43
0.0
 10
127.5214285444418
 20
45.72478891433698
 10
127.5214285444418
 20
42.72478891433688
 10
130.5214285444426
 20
42.72478891433688
 10
130.5214285444426
 20
45.72478891433698
  0
LWPOLYLINE
  5
14E
330
10D
100
AcDbEntity
  8
0
 62
    18
420
        0
370
    25
100
AcDbPolyline
 90
        4
 70
     1
 43
0.0
 10
127.5214285444418
 20
37.58193177148001
 10
127.5214285444418
 20
34.58193177147991
 10
130.5214285444426
 20
34.58193177147991
 10
130.5214285444426
 20
37.58193177148001
  0
LWPOLYLINE
  5
14F
330
10D
100
AcDbEntity
  8
0
 62
    18
420
        0
370
    25
100
AcDbPolyline
 90
        4
 70
     1
 43
0.0
 10
110.6642856872986
 20
29.43907462862304
 10
110.6642856872986
 20
26.43907462862293
 10
113.6642856872993
 20
26.43907462862293
 10
113.6642856872993
 20
29.43907462862304
  0
LWPOLYLINE
  5
150
330
10D
100
AcDbEntity
  8
0
 62
    18
420
        0
370
    25
100
AcDbPolyline
 90
        4
 70
     1
 43
0.0
 10
110.6642856872986
 20
53.86764605719459
 10
110.6642856872986
 20
50.86764605719385
 10
113.6642856872993
 20
50.86764605719385
 10
113.6642856872993
 20
53.86764605719459
  0
LWPOLYLINE
  5
151
330
10D
100
AcDbEntity
  8
0
 62
    18
420
        0
370
    25
100
AcDbPolyline
 90
        4
 70
     1
 43
0.0
 10
119.0928571158702
 20
53.86764605719459
 10
119.0928571158702
 20
50.86764605719385
 10
122.0928571158709
 20
50.86764605719385
 10
122.0928571158709
 20
53.86764605719459
  0
LWPOLYLINE
  5
152
330
10D
100
AcDbEntity
  8
0
 62
    18
420
        0
370
    25
100
AcDbPolyline
 90
        4
 70
     1
 43
0.0
 10
76.94999997301302
 20
21.29621748576543
 10
76.94999997301302
 20
18.29621748576596
 10
79.94999997301376
 20
18.29621748576596
 10
79.94999997301376
 20
21.29621748576543
  0
LWPOLYLINE
  5
153
330
10D
100
AcDbEntity
  8
0
 62
    18
420
        0
370
    25
100
AcDbPolyline
 90
        4
 70
     1
 43
0.0
 10
102.2357142587282
 20
45.72478891433698
 10
102.2357142587282
 20
42.72478891433688
 10
105.2357142587277
 20
42.72478891433688
 10
105.2357142587277
 20
45.72478891433698
  0
LWPOLYLINE
  5
154
330
10D
100
AcDbEntity
  8
0
 62
    18
420
        0
370
    25
100
AcDbPolyline
 90
        4
 70
     1
 43
0.0
 10
93.80714283015661
 20
45.72478891433698
 10
93.80714283015661
 20
42.72478891433688
 10
96.80714283015607
 20
42.72478891433688
 10
96.80714283015607
 20
45.72478891433698
  0
LWPOLYLINE
  5
155
330
10D
100
AcDbEntity
  8
0
 62
    18
420
        0
370
    25
100
AcDbPolyline
 90
        4
 70
     1
 43
0.0
 10
127.5214285444418
 20
53.86764605719459
 10
127.5214285444418
 20
50.86764605719385
 10
130.5214285444426
 20
50.86764605719385
 10
130.5214285444426
 20
53.86764605719459
  0
ENDBLK
  5
110
330
10D
100
AcDbEntity
  8
0
100
AcDbBlockEnd
  0
ENDSEC
  0
SECTION
  2
ENTITIES
  0
INSERT
  5
79
330
70
100
AcDbEntity
  8
0
100
AcDbBlockReference
  2
Block_0
 10
0.0
 20
0.0
 30
0.0
  0
INSERT
  5
C5
330
70
100
AcDbEntity
  8
0
100
AcDbBlockReference
  2
Block_1
 10
0.0
 20
0.0
 30
0.0
  0
INSERT
  5
10E
330
70
100
AcDbEntity
  8
0
100
AcDbBlockReference
  2
Block_2
 10
0.0
 20
0.0
 30
0.0
  0
ENDSEC
  0
SECTION
  2
OBJECTS
  0
DICTIONARY
  5
C
330
0
100
AcDbDictionary
281
     1
  3
ACAD_COLOR
350
63
  3
ACAD_DETAILVIEWSTYLE
350
6A
  3
ACAD_GROUP
350
D
  3
ACAD_LAYOUT
350
62
  3
ACAD_MATERIAL
350
10
  3
ACAD_MLEADERSTYLE
350
66
  3
ACAD_MLINESTYLE
350
5F
  3
ACAD_PLOTSETTINGS
350
61
  3
ACAD_PLOTSTYLENAME
350
E
  3
ACAD_SCALELIST
350
42
  3
ACAD_SECTIONVIEWSTYLE
350
68
  3
ACAD_TABLESTYLE
350
64
  3
ACAD_VISUALSTYLE
350
29
  3
ACDB_RECOMPOSE_DATA
350
15E
  3
AcDbVariableDictionary
350
156
  0
DICTIONARY
  5
63
102
{ACAD_REACTORS
330
C
102
}
330
C
100
AcDbDictionary
281
     1
  0
DICTIONARY
  5
6A
102
{ACAD_REACTORS
330
C
102
}
330
C
100
AcDbDictionary
281
     1
  3
Imperial24
350
6B
  0
DICTIONARY
  5
D
102
{ACAD_REACTORS
330
C
102
}
330
C
100
AcDbDictionary
281
     1
  0
DICTIONARY
  5
62
102
{ACAD_REACTORS
330
C
102
}
330
C
100
AcDbDictionary
281
     1
  3
Layout1
350
6F
  3
Layout2
350
77
  3
Model
350
73
  0
DICTIONARY
  5
10
102
{ACAD_REACTORS
330
C
102
}
330
C
100
AcDbDictionary
281
     1
  3
ByBlock
350
19
  3
ByLayer
350
11
  3
Global
350
21
  0
DICTIONARY
  5
66
102
{ACAD_REACTORS
330
C
102
}
330
C
100
AcDbDictionary
281
     1
  3
Standard
350
67
  0
DICTIONARY
  5
5F
102
{ACAD_REACTORS
330
C
102
}
330
C
100
AcDbDictionary
281
     1
  3
Standard
350
60
  0
DICTIONARY
  5
61
102
{ACAD_REACTORS
330
C
102
}
330
C
100
AcDbDictionary
281
     1
  0
ACDBDICTIONARYWDFLT
  5
E
102
{ACAD_REACTORS
330
C
102
}
330
C
100
AcDbDictionary
281
     1
  3
Normal
350
F
100
AcDbDictionaryWithDefault
340
F
  0
DICTIONARY
  5
42
102
{ACAD_REACTORS
330
C
102
}
330
C
100
AcDbDictionary
281
     1
  3
A0
350
43
  3
A1
350
44
  3
A2
350
45
  3
A3
350
46
  3
A4
350
47
  3
A5
350
48
  3
A6
350
49
  3
A7
350
4A
  3
A8
350
4B
  3
A9
350
4C
  3
B0
350
4D
  3
B1
350
4E
  3
B2
350
4F
  3
B3
350
50
  3
B4
350
51
  3
B5
350
52
  3
B6
350
53
  0
DICTIONARY
  5
68
102
{ACAD_REACTORS
330
C
102
}
330
C
100
AcDbDictionary
281
     1
  3
Imperial24
350
69
  0
DICTIONARY
  5
64
102
{ACAD_REACTORS
330
C
102
}
330
C
100
AcDbDictionary
281
     1
  3
Standard
350
65
  0
DICTIONARY
  5
29
102
{ACAD_REACTORS
330
C
102
}
330
C
100
AcDbDictionary
281
     1
  3
2dWireframe
350
2F
  3
Basic
350
2E
  3
Brighten
350
35
  3
ColorChange
350
39
  3
Conceptual
350
32
  3
Dim
350
34
  3
EdgeColorOff
350
41
  3
Facepattern
350
38
  3
Flat
350
2A
  3
FlatWithEdges
350
2B
  3
Gouraud
350
2C
  3
GouraudWithEdges
350
2D
  3
Hidden
350
31
  3
JitterOff
350
3F
  3
Linepattern
350
37
  3
OverhangOff
350
40
  3
Realistic
350
33
  3
Shaded
350
3E
  3
Shaded with edges
350
3D
  3
Shades of Gray
350
3A
  3
Sketchy
350
3B
  3
Thicken
350
36
  3
Wireframe
350
30
  3
X-Ray
350
3C
  0
XRECORD
  5
15E
102
{ACAD_REACTORS
330
C
102
}
330
C
100
AcDbXrecord
280
     1
 90
        1
330
65
  0
DICTIONARY
  5
156
102
{ACAD_REACTORS
330
C
102
}
330
C
100
AcDbDictionary
281
     1
  3
CANNOSCALE
350
15B
  3
CMLEADERSTYLE
350
158
  3
CTABLESTYLE
350
157
  3
CVIEWDETAILSTYLE
350
159
  3
CVIEWSECTIONSTYLE
350
15A
  0
ACDBDETAILVIEWSTYLE
  5
6B
102
{ACAD_REACTORS
330
6A
102
}
330
6A
100
AcDbModelDocViewStyle
 70
     0
  3
Imperial24
290
     1
300
Imperial24
 90
        0
100
AcDbDetailViewStyle
 70
     0
 71
     0
 90
        3
 71
     1
340
55
 62
   256
 40
0.24
340
0
 62
   256
 40
0.24
300

 40
0.36
280
     3
 71
     2
340
5D
 90
       25
 62
   256
 71
     3
340
55
 62
   256
 40
0.24
 90
        1
 40
0.75
 90
        1
300
%<\AcVar ViewType \f "%tc1">% %<\AcVar ViewDetailId>%\PSCALE %<\AcVar ViewScale \f "%sn">%
 71
     4
340
5D
 90
       25
 62
   256
340
5D
 90
       25
 62
   256
280
     0
  0
LAYOUT
  5
6F
102
{ACAD_REACTORS
330
62
102
}
330
62
100
AcDbPlotSettings
  1

  2

  4

  6

 40
0.0
 41
0.0
 42
0.0
 43
0.0
 44
0.0
 45
0.0
 46
0.0
 47
0.0
 48
0.0
 49
0.0
140
0.0
141
0.0
142
1.0
143
1.0
 70
   688
 72
     0
 73
     0
 74
     5
  7

 75
    16
147
1.0
 76
     0
 77
     2
 78
   300
148
0.0
149
0.0
100
AcDbLayout
  1
Layout1
 70
     1
 71
     1
 10
0.0
 20
0.0
 11
12.0
 21
9.0
 12
0.0
 22
0.0
 32
0.0
 14
0.0
 24
0.0
 34
0.0
 15
0.0
 25
0.0
 35
0.0
146
0.0
 13
0.0
 23
0.0
 33
0.0
 16
1.0
 26
0.0
 36
0.0
 17
0.0
 27
1.0
 37
0.0
 76
     0
330
6C
  0
LAYOUT
  5
77
102
{ACAD_REACTORS
330
62
102
}
330
62
100
AcDbPlotSettings
  1

  2

  4

  6

 40
0.0
 41
0.0
 42
0.0
 43
0.0
 44
0.0
 45
0.0
 46
0.0
 47
0.0
 48
0.0
 49
0.0
140
0.0
141
0.0
142
1.0
143
1.0
 70
   688
 72
     0
 73
     0
 74
     5
  7

 75
    16
147
1.0
 76
     0
 77
     2
 78
   300
148
0.0
149
0.0
100
AcDbLayout
  1
Layout2
 70
     1
 71
     2
 10
0.0
 20
0.0
 11
12.0
 21
9.0
 12
0.0
 22
0.0
 32
0.0
 14
0.0
 24
0.0
 34
0.0
 15
0.0
 25
0.0
 35
0.0
146
0.0
 13
0.0
 23
0.0
 33
0.0
 16
1.0
 26
0.0
 36
0.0
 17
0.0
 27
1.0
 37
0.0
 76
     0
330
74
  0
LAYOUT
  5
73
102
{ACAD_REACTORS
330
62
102
}
330
62
100
AcDbPlotSettings
  1

  2

  4

  6

 40
0.0
 41
0.0
 42
0.0
 43
0.0
 44
0.0
 45
0.0
 46
0.0
 47
0.0
 48
0.0
 49
0.0
140
0.0
141
0.0
142
1.0
143
1.0
 70
  1712
 72
     0
 73
     0
 74
     0
  7

 75
     0
147
1.0
 76
     0
 77
     2
 78
   300
148
0.0
149
0.0
100
AcDbLayout
  1
Model
 70
     1
 71
     0
 10
0.0
 20
0.0
 11
12.0
 21
9.0
 12
0.0
 22
0.0
 32
0.0
 14
0.0
 24
0.0
 34
0.0
 15
0.0
 25
0.0
 35
0.0
146
0.0
 13
0.0
 23
0.0
 33
0.0
 16
1.0
 26
0.0
 36
0.0
 17
0.0
 27
1.0
 37
0.0
 76
     0
330
70
  0
MATERIAL
  5
19
102
{ACAD_XDICTIONARY
360
1A
102
}
102
{ACAD_REACTORS
330
10
102
}
330
10
100
AcDbMaterial
  1
ByBlock
 72
     0
 43
0.0208333333333333
 43
0.0
 43
0.0
 43
0.0
 43
0.0
 43
0.0208333333333333
 43
0.0
 43
0.0
 43
0.0
 43
0.0
 43
1.0
 43
0.0
 43
0.0
 43
0.0
 43
0.0
 43
1.0
 77
     0
 47
0.0208333333333333
 47
0.0
 47
0.0
 47
0.0
 47
0.0
 47
0.0208333333333333
 47
0.0
 47
0.0
 47
0.0
 47
0.0
 47
1.0
 47
0.0
 47
0.0
 47
0.0
 47
0.0
 47
1.0
171
     0
 49
0.0208333333333333
 49
0.0
 49
0.0
 49
0.0
 49
0.0
 49
0.0208333333333333
 49
0.0
 49
0.0
 49
0.0
 49
0.0
 49
1.0
 49
0.0
 49
0.0
 49
0.0
 49
0.0
 49
1.0
175
     0
142
0.0208333333333333
142
0.0
142
0.0
142
0.0
142
0.0
142
0.0208333333333333
142
0.0
142
0.0
142
0.0
142
0.0
142
1.0
142
0.0
142
0.0
142
0.0
142
0.0
142
1.0
179
     0
144
0.0208333333333333
144
0.0
144
0.0
144
0.0
144
0.0
144
0.0208333333333333
144
0.0
144
0.0
144
0.0
144
0.0
144
1.0
144
0.0
144
0.0
144
0.0
144
0.0
144
1.0
147
0.0208333333333333
147
0.0
147
0.0
147
0.0
147
0.0
147
0.0208333333333333
147
0.0
147
0.0
147
0.0
147
0.0
147
1.0
147
0.0
147
0.0
147
0.0
147
0.0
147
1.0
  0
MATERIAL
  5
11
102
{ACAD_XDICTIONARY
360
12
102
}
102
{ACAD_REACTORS
330
10
102
}
330
10
100
AcDbMaterial
  1
ByLayer
 72
     0
 43
0.0208333333333333
 43
0.0
 43
0.0
 43
0.0
 43
0.0
 43
0.0208333333333333
 43
0.0
 43
0.0
 43
0.0
 43
0.0
 43
1.0
 43
0.0
 43
0.0
 43
0.0
 43
0.0
 43
1.0
 77
     0
 47
0.0208333333333333
 47
0.0
 47
0.0
 47
0.0
 47
0.0
 47
0.0208333333333333
 47
0.0
 47
0.0
 47
0.0
 47
0.0
 47
1.0
 47
0.0
 47
0.0
 47
0.0
 47
0.0
 47
1.0
171
     0
 49
0.0208333333333333
 49
0.0
 49
0.0
 49
0.0
 49
0.0
 49
0.0208333333333333
 49
0.0
 49
0.0
 49
0.0
 49
0.0
 49
1.0
 49
0.0
 49
0.0
 49
0.0
 49
0.0
 49
1.0
175
     0
142
0.0208333333333333
142
0.0
142
0.0
142
0.0
142
0.0
142
0.0208333333333333
142
0.0
142
0.0
142
0.0
142
0.0
142
1.0
142
0.0
142
0.0
142
0.0
142
0.0
142
1.0
179
     0
144
0.0208333333333333
144
0.0
144
0.0
144
0.0
144
0.0
144
0.0208333333333333
144
0.0
144
0.0
144
0.0
144
0.0
144
1.0
144
0.0
144
0.0
144
0.0
144
0.0
144
1.0
147
0.0208333333333333
147
0.0
147
0.0
147
0.0
147
0.0
147
0.0208333333333333
147
0.0
147
0.0
147
0.0
147
0.0
147
1.0
147
0.0
147
0.0
147
0.0
147
0.0
147
1.0
  0
MATERIAL
  5
21
102
{ACAD_XDICTIONARY
360
22
102
}
102
{ACAD_REACTORS
330
10
102
}
330
10
100
AcDbMaterial
  1
Global
 72
     0
 43
0.0208333333333333
 43
0.0
 43
0.0
 43
0.0
 43
0.0
 43
0.0208333333333333
 43
0.0
 43
0.0
 43
0.0
 43
0.0
 43
1.0
 43
0.0
 43
0.0
 43
0.0
 43
0.0
 43
1.0
 77
     0
 47
0.0208333333333333
 47
0.0
 47
0.0
 47
0.0
 47
0.0
 47
0.0208333333333333
 47
0.0
 47
0.0
 47
0.0
 47
0.0
 47
1.0
 47
0.0
 47
0.0
 47
0.0
 47
0.0
 47
1.0
171
     0
 49
0.0208333333333333
 49
0.0
 49
0.0
 49
0.0
 49
0.0
 49
0.0208333333333333
 49
0.0
 49
0.0
 49
0.0
 49
0.0
 49
1.0
 49
0.0
 49
0.0
 49
0.0
 49
0.0
 49
1.0
175
     0
142
0.0208333333333333
142
0.0
142
0.0
142
0.0
142
0.0
142
0.0208333333333333
142
0.0
142
0.0
142
0.0
142
0.0
142
1.0
142
0.0
142
0.0
142
0.0
142
0.0
142
1.0
179
     0
144
0.0208333333333333
144
0.0
144
0.0
144
0.0
144
0.0
144
0.0208333333333333
144
0.0
144
0.0
144
0.0
144
0.0
144
1.0
144
0.0
144
0.0
144
0.0
144
0.0
144
1.0
147
0.0208333333333333
147
0.0
147
0.0
147
0.0
147
0.0
147
0.0208333333333333
147
0.0
147
0.0
147
0.0
147
0.0
147
1.0
147
0.0
147
0.0
147
0.0
147
0.0
147
1.0
  0
MLEADERSTYLE
  5
67
102
{ACAD_REACTORS
330
66
102
}
330
66
100
AcDbMLeaderStyle
179
     2
170
     2
171
     1
172
     0
 90
        2
 40
0.0
 41
0.0
173
     1
 91
-1056964608
340
5B
 92
       -2
290
     1
 42
0.09
291
     1
 43
0.36
  3
Standard
 44
0.18
300

342
55
174
     1
178
     6
175
     1
176
     0
 93
-1056964608
 45
0.18
292
     0
297
     0
 46
0.18
 94
-1056964608
 47
1.0
 49
1.0
140
1.0
293
     1
141
0.0
294
     1
177
     0
142
1.0
295
     1
296
     0
143
0.125
271
     0
272
     9
273
     9
298
     1
  0
MLINESTYLE
  5
60
102
{ACAD_REACTORS
330
5F
102
}
330
5F
100
AcDbMlineStyle
  2
STANDARD
 70
     0
  3

 62
   256
 51
90.0
 52
90.0
 71
     2
 49
0.5
 62
   256
  6
BYLAYER
 49
-0.5
 62
   256
  6
BYLAYER
  0
ACDBPLACEHOLDER
  5
F
102
{ACAD_REACTORS
330
E
102
}
330
E
  0
SCALE
  5
43
102
{ACAD_REACTORS
330
42
102
}
330
42
100
AcDbScale
 70
     0
300
1:1
140
1.0
141
1.0
290
     1
  0
SCALE
  5
44
102
{ACAD_REACTORS
330
42
102
}
330
42
100
AcDbScale
 70
     0
300
1/128" = 1'-0"
140
0.0078125
141
12.0
290
     0
  0
SCALE
  5
45
102
{ACAD_REACTORS
330
42
102
}
330
42
100
AcDbScale
 70
     0
300
1/64" = 1'-0"
140
0.015625
141
12.0
290
     0
  0
SCALE
  5
46
102
{ACAD_REACTORS
330
42
102
}
330
42
100
AcDbScale
 70
     0
300
1/32" = 1'-0"
140
0.03125
141
12.0
290
     0
  0
SCALE
  5
47
102
{ACAD_REACTORS
330
42
102
}
330
42
100
AcDbScale
 70
     0
300
1/16" = 1'-0"
140
0.0625
141
12.0
290
     0
  0
SCALE
  5
48
102
{ACAD_REACTORS
330
42
102
}
330
42
100
AcDbScale
 70
     0
300
3/32" = 1'-0"
140
0.09375
141
12.0
290
     0
  0
SCALE
  5
49
102
{ACAD_REACTORS
330
42
102
}
330
42
100
AcDbScale
 70
     0
300
1/8" = 1'-0"
140
0.125
141
12.0
290
     0
  0
SCALE
  5
4A
102
{ACAD_REACTORS
330
42
102
}
330
42
100
AcDbScale
 70
     0
300
3/16" = 1'-0"
140
0.1875
141
12.0
290
     0
  0
SCALE
  5
4B
102
{ACAD_REACTORS
330
42
102
}
330
42
100
AcDbScale
 70
     0
300
1/4" = 1'-0"
140
0.25
141
12.0
290
     0
  0
SCALE
  5
4C
102
{ACAD_REACTORS
330
42
102
}
330
42
100
AcDbScale
 70
     0
300
3/8" = 1'-0"
140
0.375
141
12.0
290
     0
  0
SCALE
  5
4D
102
{ACAD_REACTORS
330
42
102
}
330
42
100
AcDbScale
 70
     0
300
1/2" = 1'-0"
140
0.5
141
12.0
290
     0
  0
SCALE
  5
4E
102
{ACAD_REACTORS
330
42
102
}
330
42
100
AcDbScale
 70
     0
300
3/4" = 1'-0"
140
0.75
141
12.0
290
     0
  0
SCALE
  5
4F
102
{ACAD_REACTORS
330
42
102
}
330
42
100
AcDbScale
 70
     0
300
1" = 1'-0"
140
1.0
141
12.0
290
     0
  0
SCALE
  5
50
102
{ACAD_REACTORS
330
42
102
}
330
42
100
AcDbScale
 70
     0
300
1-1/2" = 1'-0"
140
1.5
141
12.0
290
     0
  0
SCALE
  5
51
102
{ACAD_REACTORS
330
42
102
}
330
42
100
AcDbScale
 70
     0
300
3" = 1'-0"
140
3.0
141
12.0
290
     0
  0
SCALE
  5
52
102
{ACAD_REACTORS
330
42
102
}
330
42
100
AcDbScale
 70
     0
300
6" = 1'-0"
140
6.0
141
12.0
290
     0
  0
SCALE
  5
53
102
{ACAD_REACTORS
330
42
102
}
330
42
100
AcDbScale
 70
     0
300
1'-0" = 1'-0"
140
12.0
141
12.0
290
     0
  0
ACDBSECTIONVIEWSTYLE
  5
69
102
{ACAD_REACTORS
330
68
102
}
330
68
100
AcDbModelDocViewStyle
 70
     0
  3
Imperial24
290
     1
300
Imperial24
 90
        0
100
AcDbSectionViewStyle
 70
     0
 71
     0
 90
       78
 71
     1
340
55
 62
   256
 40
0.24
340
0
340
0
 62
   256
 40
0.24
300
I, O, Q, S, X, Z
 40
0.48
 90
        3
 40
0.18
 90
        1
 71
     2
340
5D
 90
       25
 62
   256
340
5D
 90
       50
 62
   256
 40
0.24
 40
0.0
 40
0.24
 71
     3
340
55
 62
   256
 40
0.24
 90
        1
 40
0.75
 90
        1
300
%<\AcVar ViewType \f "%tc1">% %<\AcVar ViewSectionStartId>%-%<\AcVar ViewSectionEndId>%\PSCALE %<\AcVar ViewScale \f "%sn">%
 71
     4
 62
   256
 62
   257
300
ANSI31
 40
1.0
 90
        0
290
     0
290
     0
 90
        6
 40
0.0
 40
1.570796326794896
 40
0.2617993877991494
 40
1.308996938995747
 40
-0.2617993877991494
 40
1.832595714594046
  0
TABLESTYLE
  5
65
102
{ACAD_XDICTIONARY
360
15C
102
}
102
{ACAD_REACTORS
330
64
102
}
330
64
100
AcDbTableStyle
280
     0
  3
Standard
 70
     0
 71
     0
 40
0.06
 41
0.06
280
     0
281
     0
  7
Standard
140
0.18
170
     2
 62
     0
 63
     7
283
     0
 90
      512
 91
        0
  1

274
    -2
284
     1
 64
     0
275
    -2
285
     1
 65
     0
276
    -2
286
     1
 66
     0
277
    -2
287
     1
 67
     0
278
    -2
288
     1
 68
     0
279
    -2
289
     1
 69
     0
  7
Standard
140
0.25
170
     5
 62
     0
 63
     7
283
     0
 90
      512
 91
        0
  1

274
    -2
284
     1
 64
     0
275
    -2
285
     1
 65
     0
276
    -2
286
     1
 66
     0
277
    -2
287
     1
 67
     0
278
    -2
288
     1
 68
     0
279
    -2
289
     1
 69
     0
  7
Standard
140
0.18
170
     5
 62
     0
 63
     7
283
     0
 90
      512
 91
        0
  1

274
    -2
284
     1
 64
     0
275
    -2
285
     1
 65
     0
276
    -2
286
     1
 66
     0
277
    -2
287
     1
 67
     0
278
    -2
288
     1
 68
     0
279
    -2
289
     1
 69
     0
  0
VISUALSTYLE
  5
2F
102
{ACAD_REACTORS
330
29
102
}
330
29
100
AcDbVisualStyle
  2
2dWireframe
 70
     4
177
     3
291
     0
 70
    58
 90
        0
176
     1
 90
        2
176
     1
 90
        0
176
     1
 90
        0
176
     1
 40
0.6
176
     1
 40
30.0
176
     1
 62
     7
420
 16777215
176
     1
 90
        1
176
     1
 90
        4
176
     1
 62
     7
176
     1
 62
   257
176
     1
 90
        1
176
     1
 90
        1
176
     1
 40
1.0
176
     1
 90
        0
176
     1
 62
   257
176
     1
 40
1.0
176
     1
 90
        1
176
     1
 90
        6
176
     1
 90
        2
176
     1
 62
     7
176
     1
 90
        5
176
     1
 90
        0
176
     1
 90
        0
176
     1
290
     0
176
     1
 90
        1
176
     1
 40
0.0
176
     1
 90
        0
176
     1
290
     1
176
     1
290
     1
176
     1
290
     0
176
     1
290
     0
176
     1
290
     0
176
     1
290
     0
176
     1
290
     0
176
     1
290
     0
176
     1
290
     0
176
     1
 90
       50
176
     1
 40
0.0
176
     1
 40
1.0
176
     1
 90
        0
176
     1
 62
    18
420
        0
176
     1
 90
       50
176
     1
 90
        3
176
     1
 62
     5
420
      255
176
     1
290
     0
176
     1
 90
       50
176
     1
 90
       50
176
     1
 90
       50
176
     1
290
     0
176
     1
 90
       50
176
     1
 62
   256
176
     0
 40
1.0
176
     0
 90
        2
176
     1
  1
strokes_ogs.tif
176
     1
290
     0
176
     1
 40
1.0
176
     1
 40
1.0
176
     1
  0
VISUALSTYLE
  5
2E
102
{ACAD_REACTORS
330
29
102
}
330
29
100
AcDbVisualStyle
  2
Basic
 70
     7
177
     3
291
     1
 70
    58
 90
        1
176
     1
 90
        0
176
     1
 90
        1
176
     1
 90
        0
176
     1
 40
0.6
176
     1
 40
30.0
176
     1
 62
     7
420
 16777215
176
     1
 90
        0
176
     1
 90
        4
176
     1
 62
     7
176
     1
 62
   257
176
     1
 90
        1
176
     1
 90
        1
176
     1
 40
1.0
176
     1
 90
        8
176
     1
 62
     7
176
     1
 40
1.0
176
     1
 90
        1
176
     1
 90
        6
176
     1
 90
        2
176
     1
 62
     7
176
     1
 90
        5
176
     1
 90
        0
176
     1
 90
        0
176
     1
290
     0
176
     1
 90
        1
176
     1
 40
0.0
176
     1
 90
        0
176
     1
290
     0
176
     1
290
     1
176
     1
290
     1
176
     1
290
     0
176
     1
290
     0
176
     1
290
     0
176
     1
290
     0
176
     1
290
     0
176
     1
290
     0
176
     1
 90
       50
176
     1
 40
0.0
176
     1
 40
1.0
176
     1
 90
        0
176
     1
 62
    18
420
        0
176
     1
 90
       50
176
     1
 90
        3
176
     1
 62
     5
420
      255
176
     1
290
     0
176
     1
 90
       50
176
     1
 90
       50
176
     1
 90
       50
176
     1
290
     0
176
     1
 90
       50
176
     1
 62
   256
176
     0
 40
1.0
176
     0
 90
        2
176
     1
  1
strokes_ogs.tif
176
     1
290
     0
176
     1
 40
1.0
176
     1
 40
1.0
176
     1
  0
VISUALSTYLE
  5
35
102
{ACAD_REACTORS
330
29
102
}
330
29
100
AcDbVisualStyle
  2
Brighten
 70
    12
177
     3
291
     1
 70
    58
 90
        2
176
     1
 90
        2
176
     1
 90
        0
176
     1
 90
        0
176
     1
 40
0.6
176
     1
 40
30.0
176
     1
 62
     7
420
 16777215
176
     1
 90
        1
176
     1
 90
        4
176
     1
 62
     7
176
     1
 62
   257
176
     1
 90
        1
176
     1
 90
        1
176
     1
 40
1.0
176
     1
 90
        8
176
     1
 62
     7
176
     1
 40
1.0
176
     1
 90
        1
176
     1
 90
        6
176
     1
 90
        2
176
     1
 62
     7
176
     1
 90
        5
176
     1
 90
        0
176
     1
 90
        0
176
     1
290
     0
176
     1
 90
        1
176
     1
 40
50.0
176
     1
 90
        0
176
     1
290
     0
176
     1
290
     1
176
     1
290
     1
176
     1
290
     0
176
     1
290
     0
176
     1
290
     0
176
     1
290
     0
176
     1
290
     0
176
     1
290
     0
176
     1
 90
       50
176
     1
 40
0.0
176
     1
 40
1.0
176
     1
 90
        0
176
     1
 62
    18
420
        0
176
     1
 90
       50
176
     1
 90
        3
176
     1
 62
     5
420
      255
176
     1
290
     0
176
     1
 90
       50
176
     1
 90
       50
176
     1
 90
       50
176
     1
290
     0
176
     1
 90
       50
176
     1
 62
   256
176
     0
 40
1.0
176
     0
 90
        2
176
     1
  1
strokes_ogs.tif
176
     1
290
     0
176
     1
 40
1.0
176
     1
 40
1.0
176
     1
  0
VISUALSTYLE
  5
39
102
{ACAD_REACTORS
330
29
102
}
330
29
100
AcDbVisualStyle
  2
ColorChange
 70
    16
177
     3
291
     1
 70
    58
 90
        2
176
     1
 90
        2
176
     1
 90
        3
176
     1
 90
        0
176
     1
 40
0.6
176
     1
 40
30.0
176
     1
 62
     8
420
  8421504
176
     1
 90
        1
176
     1
 90
        4
176
     1
 62
     7
176
     1
 62
   257
176
     1
 90
        1
176
     1
 90
        1
176
     1
 40
1.0
176
     1
 90
        8
176
     1
 62
     8
420
  8421504
176
     1
 40
1.0
176
     1
 90
        1
176
     1
 90
        6
176
     1
 90
        2
176
     1
 62
     7
176
     1
 90
        5
176
     1
 90
        0
176
     1
 90
        0
176
     1
290
     0
176
     1
 90
        1
176
     1
 40
0.0
176
     1
 90
        0
176
     1
290
     0
176
     1
290
     1
176
     1
290
     1
176
     1
290
     0
176
     1
290
     0
176
     1
290
     0
176
     1
290
     0
176
     1
290
     0
176
     1
290
     0
176
     1
 90
       50
176
     1
 40
0.0
176
     1
 40
1.0
176
     1
 90
        0
176
     1
 62
    18
420
        0
176
     1
 90
       50
176
     1
 90
        3
176
     1
 62
     5
420
      255
176
     1
290
     0
176
     1
 90
       50
176
     1
 90
       50
176
     1
 90
       50
176
     1
290
     0
176
     1
 90
       50
176
     1
 62
   256
176
     0
 40
1.0
176
     0
 90
        2
176
     1
  1
strokes_ogs.tif
176
     1
290
     0
176
     1
 40
1.0
176
     1
 40
1.0
176
     1
  0
VISUALSTYLE
  5
32
102
{ACAD_REACTORS
330
29
102
}
330
29
100
AcDbVisualStyle
  2
Conceptual
 70
     9
177
     3
291
     0
 70
    58
 90
        3
176
     1
 90
        2
176
     1
 90
        0
176
     1
 90
        0
176
     1
 40
0.6
176
     1
 40
30.0
176
     1
 62
     7
420
 16777215
176
     1
 90
        2
176
     1
 90
        2
176
     1
 62
     7
176
     1
 62
   257
176
     1
 90
        1
176
     1
 90
        1
176
     1
 40
179.0
176
     1
 90
        8
176
     1
 62
     7
176
     1
 40
1.0
176
     1
 90
        1
176
     1
 90
        6
176
     1
 90
        2
176
     1
 62
     7
176
     1
 90
        3
176
     1
 90
        0
176
     1
 90
        0
176
     1
290
     0
176
     1
 90
        1
176
     1
 40
0.0
176
     1
 90
        0
176
     1
290
     0
176
     1
290
     1
176
     1
290
     1
176
     1
290
     0
176
     1
290
     0
176
     1
290
     0
176
     1
290
     0
176
     1
290
     0
176
     1
290
     0
176
     1
 90
       50
176
     1
 40
0.0
176
     1
 40
1.0
176
     1
 90
        0
176
     1
 62
    18
420
        0
176
     1
 90
       50
176
     1
 90
        3
176
     1
 62
     5
420
      255
176
     1
290
     0
176
     1
 90
       50
176
     1
 90
       50
176
     1
 90
       50
176
     1
290
     0
176
     1
 90
       50
176
     1
 62
   256
176
     0
 40
1.0
176
     0
 90
        2
176
     1
  1
strokes_ogs.tif
176
     1
290
     0
176
     1
 40
1.0
176
     1
 40
1.0
176
     1
  0
VISUALSTYLE
  5
34
102
{ACAD_REACTORS
330
29
102
}
330
29
100
AcDbVisualStyle
  2
Dim
 70
    11
177
     3
291
     1
 70
    58
 90
        2
176
     1
 90
        2
176
     1
 90
        0
176
     1
 90
        0
176
     1
 40
0.6
176
     1
 40
30.0
176
     1
 62
     7
420
 16777215
176
     1
 90
        1
176
     1
 90
        4
176
     1
 62
     7
176
     1
 62
   257
176
     1
 90
        1
176
     1
 90
        1
176
     1
 40
1.0
176
     1
 90
        8
176
     1
 62
     7
176
     1
 40
1.0
176
     1
 90
        1
176
     1
 90
        6
176
     1
 90
        2
176
     1
 62
     7
176
     1
 90
        5
176
     1
 90
        0
176
     1
 90
        0
176
     1
290
     0
176
     1
 90
        1
176
     1
 40
-50.0
176
     1
 90
        0
176
     1
290
     0
176
     1
290
     1
176
     1
290
     1
176
     1
290
     0
176
     1
290
     0
176
     1
290
     0
176
     1
290
     0
176
     1
290
     0
176
     1
290
     0
176
     1
 90
       50
176
     1
 40
0.0
176
     1
 40
1.0
176
     1
 90
        0
176
     1
 62
    18
420
        0
176
     1
 90
       50
176
     1
 90
        3
176
     1
 62
     5
420
      255
176
     1
290
     0
176
     1
 90
       50
176
     1
 90
       50
176
     1
 90
       50
176
     1
290
     0
176
     1
 90
       50
176
     1
 62
   256
176
     0
 40
1.0
176
     0
 90
        2
176
     1
  1
strokes_ogs.tif
176
     1
290
     0
176
     1
 40
1.0
176
     1
 40
1.0
176
     1
  0
VISUALSTYLE
  5
41
102
{ACAD_REACTORS
330
29
102
}
330
29
100
AcDbVisualStyle
  2
EdgeColorOff
 70
    22
177
     3
291
     1
 70
    58
 90
        2
176
     0
 90
        2
176
     0
 90
        0
176
     0
 90
        0
176
     0
 40
0.6
176
     0
 40
30.0
176
     0
 62
     7
420
 16777215
176
     0
 90
        1
176
     0
 90
        4
176
     0
 62
     7
176
     0
 62
   257
176
     0
 90
        1
176
     0
 90
        1
176
     0
 40
1.0
176
     0
 90
        8
176
     2
 62
     7
176
     0
 40
1.0
176
     0
 90
        1
176
     0
 90
        6
176
     0
 90
        2
176
     0
 62
     7
176
     0
 90
        5
176
     0
 90
        0
176
     0
 90
        0
176
     0
290
     0
176
     0
 90
        1
176
     0
 40
0.0
176
     0
 90
        0
176
     0
290
     0
176
     0
290
     1
176
     0
290
     1
176
     0
290
     0
176
     0
290
     0
176
     0
290
     0
176
     0
290
     0
176
     0
290
     0
176
     0
290
     0
176
     0
 90
       50
176
     0
 40
0.0
176
     0
 40
1.0
176
     0
 90
        0
176
     0
 62
    18
420
        0
176
     0
 90
       50
176
     0
 90
        3
176
     0
 62
     5
420
      255
176
     0
290
     0
176
     0
 90
       50
176
     0
 90
       50
176
     0
 90
       50
176
     0
290
     0
176
     0
 90
       50
176
     0
 62
   256
176
     0
 40
1.0
176
     0
 90
        2
176
     0
  1
strokes_ogs.tif
176
     0
290
     0
176
     0
 40
1.0
176
     0
 40
1.0
176
     0
  0
VISUALSTYLE
  5
38
102
{ACAD_REACTORS
330
29
102
}
330
29
100
AcDbVisualStyle
  2
Facepattern
 70
    15
177
     3
291
     1
 70
    58
 90
        2
176
     1
 90
        2
176
     1
 90
        0
176
     1
 90
        0
176
     1
 40
0.6
176
     1
 40
30.0
176
     1
 62
     7
420
 16777215
176
     1
 90
        1
176
     1
 90
        4
176
     1
 62
     7
176
     1
 62
   257
176
     1
 90
        1
176
     1
 90
        1
176
     1
 40
1.0
176
     1
 90
        8
176
     1
 62
     7
176
     1
 40
1.0
176
     1
 90
        1
176
     1
 90
        6
176
     1
 90
        2
176
     1
 62
     7
176
     1
 90
        5
176
     1
 90
        0
176
     1
 90
        0
176
     1
290
     0
176
     1
 90
        1
176
     1
 40
0.0
176
     1
 90
        0
176
     1
290
     0
176
     1
290
     1
176
     1
290
     1
176
     1
290
     0
176
     1
290
     0
176
     1
290
     0
176
     1
290
     0
176
     1
290
     0
176
     1
290
     0
176
     1
 90
       50
176
     1
 40
0.0
176
     1
 40
1.0
176
     1
 90
        0
176
     1
 62
    18
420
        0
176
     1
 90
       50
176
     1
 90
        3
176
     1
 62
     5
420
      255
176
     1
290
     0
176
     1
 90
       50
176
     1
 90
       50
176
     1
 90
       50
176
     1
290
     0
176
     1
 90
       50
176
     1
 62
   256
176
     0
 40
1.0
176
     0
 90
        2
176
     1
  1
strokes_ogs.tif
176
     1
290
     0
176
     1
 40
1.0
176
     1
 40
1.0
176
     1
  0
VISUALSTYLE
  5
2A
102
{ACAD_REACTORS
330
29
102
}
330
29
100
AcDbVisualStyle
  2
Flat
 70
     0
177
     3
291
     1
 70
    58
 90
        2
176
     1
 90
        1
176
     1
 90
        1
176
     1
 90
        2
176
     1
 40
0.6
176
     1
 40
30.0
176
     1
 62
     7
420
 16777215
176
     1
 90
        0
176
     1
 90
        0
176
     1
 62
     7
176
     1
 62
   257
176
     1
 90
        1
176
     1
 90
        1
176
     1
 40
1.0
176
     1
 90
        8
176
     1
 62
     7
176
     1
 40
1.0
176
     1
 90
        1
176
     1
 90
        6
176
     1
 90
        2
176
     1
 62
     7
176
     1
 90
        5
176
     1
 90
        0
176
     1
 90
        0
176
     1
290
     0
176
     1
 90
       13
176
     1
 40
0.0
176
     1
 90
        0
176
     1
290
     0
176
     1
290
     1
176
     1
290
     1
176
     1
290
     0
176
     1
290
     0
176
     1
290
     0
176
     1
290
     0
176
     1
290
     0
176
     1
290
     0
176
     1
 90
       50
176
     1
 40
0.0
176
     1
 40
1.0
176
     1
 90
        0
176
     1
 62
    18
420
        0
176
     1
 90
       50
176
     1
 90
        3
176
     1
 62
     5
420
      255
176
     1
290
     0
176
     1
 90
       50
176
     1
 90
       50
176
     1
 90
       50
176
     1
290
     0
176
     1
 90
       50
176
     1
 62
   256
176
     0
 40
1.0
176
     0
 90
        2
176
     1
  1
strokes_ogs.tif
176
     1
290
     0
176
     1
 40
1.0
176
     1
 40
1.0
176
     1
  0
VISUALSTYLE
  5
2B
102
{ACAD_REACTORS
330
29
102
}
330
29
100
AcDbVisualStyle
  2
FlatWithEdges
 70
     1
177
     3
291
     1
 70
    58
 90
        2
176
     1
 90
        1
176
     1
 90
        1
176
     1
 90
        2
176
     1
 40
0.6
176
     1
 40
30.0
176
     1
 62
     7
420
 16777215
176
     1
 90
        1
176
     1
 90
        0
176
     1
 62
     7
176
     1
 62
   257
176
     1
 90
        1
176
     1
 90
        1
176
     1
 40
1.0
176
     1
 90
        0
176
     1
 62
   257
176
     1
 40
1.0
176
     1
 90
        1
176
     1
 90
        6
176
     1
 90
        2
176
     1
 62
     7
176
     1
 90
        5
176
     1
 90
        0
176
     1
 90
        0
176
     1
290
     0
176
     1
 90
       13
176
     1
 40
0.0
176
     1
 90
        0
176
     1
290
     0
176
     1
290
     1
176
     1
290
     1
176
     1
290
     0
176
     1
290
     0
176
     1
290
     0
176
     1
290
     0
176
     1
290
     0
176
     1
290
     0
176
     1
 90
       50
176
     1
 40
0.0
176
     1
 40
1.0
176
     1
 90
        0
176
     1
 62
    18
420
        0
176
     1
 90
       50
176
     1
 90
        3
176
     1
 62
     5
420
      255
176
     1
290
     0
176
     1
 90
       50
176
     1
 90
       50
176
     1
 90
       50
176
     1
290
     0
176
     1
 90
       50
176
     1
 62
   256
176
     0
 40
1.0
176
     0
 90
        2
176
     1
  1
strokes_ogs.tif
176
     1
290
     0
176
     1
 40
1.0
176
     1
 40
1.0
176
     1
  0
VISUALSTYLE
  5
2C
102
{ACAD_REACTORS
330
29
102
}
330
29
100
AcDbVisualStyle
  2
Gouraud
 70
     2
177
     3
291
     1
 70
    58
 90
        2
176
     1
 90
        2
176
     1
 90
        1
176
     1
 90
        2
176
     1
 40
0.6
176
     1
 40
30.0
176
     1
 62
     7
420
 16777215
176
     1
 90
        0
176
     1
 90
        0
176
     1
 62
     7
176
     1
 62
   257
176
     1
 90
        1
176
     1
 90
        1
176
     1
 40
1.0
176
     1
 90
        0
176
     1
 62
     7
176
     1
 40
1.0
176
     1
 90
        1
176
     1
 90
        6
176
     1
 90
        2
176
     1
 62
     7
176
     1
 90
        5
176
     1
 90
        0
176
     1
 90
        0
176
     1
290
     0
176
     1
 90
       13
176
     1
 40
0.0
176
     1
 90
        0
176
     1
290
     0
176
     1
290
     1
176
     1
290
     1
176
     1
290
     0
176
     1
290
     0
176
     1
290
     0
176
     1
290
     0
176
     1
290
     0
176
     1
290
     0
176
     1
 90
       50
176
     1
 40
0.0
176
     1
 40
1.0
176
     1
 90
        0
176
     1
 62
    18
420
        0
176
     1
 90
       50
176
     1
 90
        3
176
     1
 62
     5
420
      255
176
     1
290
     0
176
     1
 90
       50
176
     1
 90
       50
176
     1
 90
       50
176
     1
290
     0
176
     1
 90
       50
176
     1
 62
   256
176
     0
 40
1.0
176
     0
 90
        2
176
     1
  1
strokes_ogs.tif
176
     1
290
     0
176
     1
 40
1.0
176
     1
 40
1.0
176
     1
  0
VISUALSTYLE
  5
2D
102
{ACAD_REACTORS
330
29
102
}
330
29
100
AcDbVisualStyle
  2
GouraudWithEdges
 70
     3
177
     3
291
     1
 70
    58
 90
        2
176
     1
 90
        2
176
     1
 90
        1
176
     1
 90
        2
176
     1
 40
0.6
176
     1
 40
30.0
176
     1
 62
     7
420
 16777215
176
     1
 90
        1
176
     1
 90
        0
176
     1
 62
     7
176
     1
 62
   257
176
     1
 90
        1
176
     1
 90
        1
176
     1
 40
1.0
176
     1
 90
        0
176
     1
 62
   257
176
     1
 40
1.0
176
     1
 90
        1
176
     1
 90
        6
176
     1
 90
        2
176
     1
 62
     7
176
     1
 90
        5
176
     1
 90
        0
176
     1
 90
        0
176
     1
290
     0
176
     1
 90
       13
176
     1
 40
0.0
176
     1
 90
        0
176
     1
290
     0
176
     1
290
     1
176
     1
290
     1
176
     1
290
     0
176
     1
290
     0
176
     1
290
     0
176
     1
290
     0
176
     1
290
     0
176
     1
290
     0
176
     1
 90
       50
176
     1
 40
0.0
176
     1
 40
1.0
176
     1
 90
        0
176
     1
 62
    18
420
        0
176
     1
 90
       50
176
     1
 90
        3
176
     1
 62
     5
420
      255
176
     1
290
     0
176
     1
 90
       50
176
     1
 90
       50
176
     1
 90
       50
176
     1
290
     0
176
     1
 90
       50
176
     1
 62
   256
176
     0
 40
1.0
176
     0
 90
        2
176
     1
  1
strokes_ogs.tif
176
     1
290
     0
176
     1
 40
1.0
176
     1
 40
1.0
176
     1
  0
VISUALSTYLE
  5
31
102
{ACAD_REACTORS
330
29
102
}
330
29
100
AcDbVisualStyle
  2
Hidden
 70
     6
177
     3
291
     0
 70
    58
 90
        1
176
     1
 90
        2
176
     1
 90
        2
176
     1
 90
        0
176
     1
 40
0.6
176
     1
 40
30.0
176
     1
 62
     7
420
 16777215
176
     1
 90
        2
176
     1
 90
        2
176
     1
 62
     7
176
     1
 62
   257
176
     1
 90
        2
176
     1
 90
        1
176
     1
 40
40.0
176
     1
 90
        0
176
     1
 62
   257
176
     1
 40
1.0
176
     1
 90
        1
176
     1
 90
        6
176
     1
 90
        2
176
     1
 62
     7
176
     1
 90
        3
176
     1
 90
        0
176
     1
 90
        0
176
     1
290
     0
176
     1
 90
        1
176
     1
 40
0.0
176
     1
 90
        0
176
     1
290
     0
176
     1
290
     1
176
     1
290
     1
176
     1
290
     0
176
     1
290
     0
176
     1
290
     0
176
     1
290
     0
176
     1
290
     0
176
     1
290
     0
176
     1
 90
       50
176
     1
 40
0.0
176
     1
 40
1.0
176
     1
 90
        0
176
     1
 62
    18
420
        0
176
     1
 90
       50
176
     1
 90
        3
176
     1
 62
     5
420
      255
176
     1
290
     0
176
     1
 90
       50
176
     1
 90
       50
176
     1
 90
       50
176
     1
290
     0
176
     1
 90
       50
176
     1
 62
   256
176
     0
 40
1.0
176
     0
 90
        2
176
     1
  1
strokes_ogs.tif
176
     1
290
     0
176
     1
 40
1.0
176
     1
 40
1.0
176
     1
  0
VISUALSTYLE
  5
3F
102
{ACAD_REACTORS
330
29
102
}
330
29
100
AcDbVisualStyle
  2
JitterOff
 70
    20
177
     3
291
     1
 70
    58
 90
        2
176
     0
 90
        2
176
     0
 90
        0
176
     0
 90
        0
176
     0
 40
0.6
176
     0
 40
30.0
176
     0
 62
     7
420
 16777215
176
     0
 90
        1
176
     0
 90
        4
176
     0
 62
     7
176
     0
 62
   257
176
     0
 90
        1
176
     0
 90
        1
176
     0
 40
1.0
176
     0
 90
       10
176
     2
 62
     7
176
     0
 40
1.0
176
     0
 90
        1
176
     0
 90
        6
176
     0
 90
        2
176
     0
 62
     7
176
     0
 90
        5
176
     0
 90
        0
176
     0
 90
        0
176
     0
290
     0
176
     0
 90
        1
176
     0
 40
0.0
176
     0
 90
        0
176
     0
290
     0
176
     0
290
     1
176
     0
290
     1
176
     0
290
     0
176
     0
290
     0
176
     0
290
     0
176
     0
290
     0
176
     0
290
     0
176
     0
290
     0
176
     0
 90
       50
176
     0
 40
0.0
176
     0
 40
1.0
176
     0
 90
        0
176
     0
 62
    18
420
        0
176
     0
 90
       50
176
     0
 90
        3
176
     0
 62
     5
420
      255
176
     0
290
     0
176
     0
 90
       50
176
     0
 90
       50
176
     0
 90
       50
176
     0
290
     0
176
     0
 90
       50
176
     0
 62
   256
176
     0
 40
1.0
176
     0
 90
        2
176
     0
  1
strokes_ogs.tif
176
     0
290
     0
176
     0
 40
1.0
176
     0
 40
1.0
176
     0
  0
VISUALSTYLE
  5
37
102
{ACAD_REACTORS
330
29
102
}
330
29
100
AcDbVisualStyle
  2
Linepattern
 70
    14
177
     3
291
     1
 70
    58
 90
        2
176
     1
 90
        2
176
     1
 90
        0
176
     1
 90
        0
176
     1
 40
0.6
176
     1
 40
30.0
176
     1
 62
     7
420
 16777215
176
     1
 90
        1
176
     1
 90
        4
176
     1
 62
     7
176
     1
 62
   257
176
     1
 90
        7
176
     1
 90
        7
176
     1
 40
1.0
176
     1
 90
        8
176
     1
 62
     7
176
     1
 40
1.0
176
     1
 90
        1
176
     1
 90
        6
176
     1
 90
        2
176
     1
 62
     7
176
     1
 90
        5
176
     1
 90
        0
176
     1
 90
        0
176
     1
290
     0
176
     1
 90
        1
176
     1
 40
0.0
176
     1
 90
        0
176
     1
290
     0
176
     1
290
     1
176
     1
290
     1
176
     1
290
     0
176
     1
290
     0
176
     1
290
     0
176
     1
290
     0
176
     1
290
     0
176
     1
290
     0
176
     1
 90
       50
176
     1
 40
0.0
176
     1
 40
1.0
176
     1
 90
        0
176
     1
 62
    18
420
        0
176
     1
 90
       50
176
     1
 90
        3
176
     1
 62
     5
420
      255
176
     1
290
     0
176
     1
 90
       50
176
     1
 90
       50
176
     1
 90
       50
176
     1
290
     0
176
     1
 90
       50
176
     1
 62
   256
176
     0
 40
1.0
176
     0
 90
        2
176
     1
  1
strokes_ogs.tif
176
     1
290
     0
176
     1
 40
1.0
176
     1
 40
1.0
176
     1
  0
VISUALSTYLE
  5
40
102
{ACAD_REACTORS
330
29
102
}
330
29
100
AcDbVisualStyle
  2
OverhangOff
 70
    21
177
     3
291
     1
 70
    58
 90
        2
176
     0
 90
        2
176
     0
 90
        0
176
     0
 90
        0
176
     0
 40
0.6
176
     0
 40
30.0
176
     0
 62
     7
420
 16777215
176
     0
 90
        1
176
     0
 90
        4
176
     0
 62
     7
176
     0
 62
   257
176
     0
 90
        1
176
     0
 90
        1
176
     0
 40
1.0
176
     0
 90
        9
176
     2
 62
     7
176
     0
 40
1.0
176
     0
 90
        1
176
     0
 90
        6
176
     0
 90
        2
176
     0
 62
     7
176
     0
 90
        5
176
     0
 90
        0
176
     0
 90
        0
176
     0
290
     0
176
     0
 90
        1
176
     0
 40
0.0
176
     0
 90
        0
176
     0
290
     0
176
     0
290
     1
176
     0
290
     1
176
     0
290
     0
176
     0
290
     0
176
     0
290
     0
176
     0
290
     0
176
     0
290
     0
176
     0
290
     0
176
     0
 90
       50
176
     0
 40
0.0
176
     0
 40
1.0
176
     0
 90
        0
176
     0
 62
    18
420
        0
176
     0
 90
       50
176
     0
 90
        3
176
     0
 62
     5
420
      255
176
     0
290
     0
176
     0
 90
       50
176
     0
 90
       50
176
     0
 90
       50
176
     0
290
     0
176
     0
 90
       50
176
     0
 62
   256
176
     0
 40
1.0
176
     0
 90
        2
176
     0
  1
strokes_ogs.tif
176
     0
290
     0
176
     0
 40
1.0
176
     0
 40
1.0
176
     0
  0
VISUALSTYLE
  5
33
102
{ACAD_REACTORS
330
29
102
}
330
29
100
AcDbVisualStyle
  2
Realistic
 70
     8
177
     3
291
     0
 70
    58
 90
        2
176
     1
 90
        3
176
     1
 90
        0
176
     1
 90
        2
176
     1
 40
0.6
176
     1
 40
30.0
176
     1
 62
     7
420
 16777215
176
     1
 90
        0
176
     1
 90
        0
176
     1
 62
     7
176
     1
 62
   257
176
     1
 90
        1
176
     1
 90
        1
176
     1
 40
1.0
176
     1
 90
        8
176
     1
 62
   257
176
     1
 40
1.0
176
     1
 90
        1
176
     1
 90
        6
176
     1
 90
        2
176
     1
 62
     7
176
     1
 90
        3
176
     1
 90
        0
176
     1
 90
        0
176
     1
290
     0
176
     1
 90
       13
176
     1
 40
0.0
176
     1
 90
        0
176
     1
290
     0
176
     1
290
     1
176
     1
290
     1
176
     1
290
     0
176
     1
290
     0
176
     1
290
     0
176
     1
290
     0
176
     1
290
     0
176
     1
290
     0
176
     1
 90
       50
176
     1
 40
0.0
176
     1
 40
1.0
176
     1
 90
        0
176
     1
 62
    18
420
        0
176
     1
 90
       50
176
     1
 90
        3
176
     1
 62
     5
420
      255
176
     1
290
     0
176
     1
 90
       50
176
     1
 90
       50
176
     1
 90
       50
176
     1
290
     0
176
     1
 90
       50
176
     1
 62
   256
176
     0
 40
1.0
176
     0
 90
        2
176
     1
  1
strokes_ogs.tif
176
     1
290
     0
176
     1
 40
1.0
176
     1
 40
1.0
176
     1
  0
VISUALSTYLE
  5
3E
102
{ACAD_REACTORS
330
29
102
}
330
29
100
AcDbVisualStyle
  2
Shaded
 70
    27
177
     3
291
     0
 70
    58
 90
        2
176
     1
 90
        2
176
     1
 90
        1
176
     1
 90
        2
176
     1
 40
0.6
176
     1
 40
30.0
176
     1
 62
     7
420
 16777215
176
     1
 90
        0
176
     1
 90
        4
176
     1
 62
     7
176
     1
 62
   257
176
     1
 90
        1
176
     1
 90
        1
176
     1
 40
1.0
176
     1
 90
        8
176
     1
 62
   257
176
     1
 40
1.0
176
     1
 90
        1
176
     1
 90
        6
176
     1
 90
        2
176
     1
 62
     8
420
  7895160
176
     1
 90
        3
176
     1
 90
        0
176
     1
 90
        0
176
     1
290
     0
176
     1
 90
        5
176
     1
 40
0.0
176
     1
 90
        0
176
     1
290
     0
176
     1
290
     1
176
     1
290
     1
176
     1
290
     0
176
     1
290
     0
176
     1
290
     0
176
     1
290
     0
176
     1
290
     0
176
     1
290
     0
176
     1
 90
       50
176
     1
 40
0.0
176
     1
 40
1.0
176
     1
 90
        0
176
     1
 62
    18
420
        0
176
     1
 90
       50
176
     1
 90
        3
176
     1
 62
     5
420
      255
176
     1
290
     0
176
     1
 90
       50
176
     1
 90
       50
176
     1
 90
       50
176
     1
290
     0
176
     1
 90
       50
176
     1
 62
   256
176
     0
 40
1.0
176
     0
 90
        2
176
     1
  1
strokes_ogs.tif
176
     1
290
     0
176
     1
 40
1.0
176
     1
 40
1.0
176
     1
  0
VISUALSTYLE
  5
3D
102
{ACAD_REACTORS
330
29
102
}
330
29
100
AcDbVisualStyle
  2
Shaded with edges
 70
    26
177
     3
291
     0
 70
    58
 90
        2
176
     1
 90
        2
176
     1
 90
        1
176
     1
 90
        2
176
     1
 40
0.6
176
     1
 40
30.0
176
     1
 62
     7
420
 16777215
176
     1
 90
        1
176
     1
 90
        2
176
     1
 62
     7
176
     1
 62
   257
176
     1
 90
        2
176
     1
 90
        1
176
     1
 40
1.0
176
     1
 90
        8
176
     1
 62
   257
176
     1
 40
1.0
176
     1
 90
        1
176
     1
 90
        6
176
     1
 90
        2
176
     1
 62
     7
176
     1
 90
        3
176
     1
 90
        0
176
     1
 90
        0
176
     1
290
     0
176
     1
 90
        5
176
     1
 40
0.0
176
     1
 90
        0
176
     1
290
     0
176
     1
290
     1
176
     1
290
     1
176
     1
290
     0
176
     1
290
     0
176
     1
290
     0
176
     1
290
     0
176
     1
290
     0
176
     1
290
     0
176
     1
 90
       50
176
     1
 40
0.0
176
     1
 40
1.0
176
     1
 90
        0
176
     1
 62
    18
420
        0
176
     1
 90
       50
176
     1
 90
        3
176
     1
 62
     5
420
      255
176
     1
290
     0
176
     1
 90
       50
176
     1
 90
       50
176
     1
 90
       50
176
     1
290
     0
176
     1
 90
       50
176
     1
 62
   256
176
     0
 40
1.0
176
     0
 90
        2
176
     1
  1
strokes_ogs.tif
176
     1
290
     0
176
     1
 40
1.0
176
     1
 40
1.0
176
     1
  0
VISUALSTYLE
  5
3A
102
{ACAD_REACTORS
330
29
102
}
330
29
100
AcDbVisualStyle
  2
Shades of Gray
 70
    23
177
     3
291
     0
 70
    58
 90
        2
176
     1
 90
        2
176
     1
 90
        3
176
     1
 90
        0
176
     1
 40
0.6
176
     1
 40
30.0
176
     1
 62
     7
420
 16777215
176
     1
 90
        2
176
     1
 90
        2
176
     1
 62
     7
176
     1
 62
     7
176
     1
 90
        1
176
     1
 90
        1
176
     1
 40
40.0
176
     1
 90
        8
176
     1
 62
     7
176
     1
 40
1.0
176
     1
 90
        1
176
     1
 90
        6
176
     1
 90
        2
176
     1
 62
     7
176
     1
 90
        3
176
     1
 90
        0
176
     1
 90
        0
176
     1
290
     0
176
     1
 90
        1
176
     1
 40
0.0
176
     1
 90
        0
176
     1
290
     0
176
     1
290
     1
176
     1
290
     1
176
     1
290
     0
176
     1
290
     0
176
     1
290
     0
176
     1
290
     0
176
     1
290
     0
176
     1
290
     0
176
     1
 90
       50
176
     1
 40
0.0
176
     1
 40
1.0
176
     1
 90
        0
176
     1
 62
    18
420
        0
176
     1
 90
       50
176
     1
 90
        3
176
     1
 62
     5
420
      255
176
     1
290
     0
176
     1
 90
       50
176
     1
 90
       50
176
     1
 90
       50
176
     1
290
     0
176
     1
 90
       50
176
     1
 62
   256
176
     0
 40
1.0
176
     0
 90
        2
176
     1
  1
strokes_ogs.tif
176
     1
290
     0
176
     1
 40
1.0
176
     1
 40
1.0
176
     1
  0
VISUALSTYLE
  5
3B
102
{ACAD_REACTORS
330
29
102
}
330
29
100
AcDbVisualStyle
  2
Sketchy
 70
    24
177
     3
291
     0
 70
    58
 90
        1
176
     1
 90
        2
176
     1
 90
        2
176
     1
 90
        0
176
     1
 40
0.6
176
     1
 40
30.0
176
     1
 62
     7
420
 16777215
176
     1
 90
        2
176
     1
 90
        2
176
     1
 62
     7
176
     1
 62
     7
176
     1
 90
        1
176
     1
 90
        1
176
     1
 40
40.0
176
     1
 90
       11
176
     1
 62
     7
176
     1
 40
1.0
176
     1
 90
        1
176
     1
 90
        6
176
     1
 90
        2
176
     1
 62
     7
176
     1
 90
        6
176
     1
 90
        0
176
     1
 90
        0
176
     1
290
     0
176
     1
 90
        1
176
     1
 40
0.0
176
     1
 90
        0
176
     1
290
     0
176
     1
290
     1
176
     1
290
     1
176
     1
290
     0
176
     1
290
     0
176
     1
290
     0
176
     1
290
     0
176
     1
290
     0
176
     1
290
     0
176
     1
 90
       50
176
     1
 40
0.0
176
     1
 40
1.0
176
     1
 90
        0
176
     1
 62
    18
420
        0
176
     1
 90
       50
176
     1
 90
        3
176
     1
 62
     5
420
      255
176
     1
290
     0
176
     1
 90
       50
176
     1
 90
       50
176
     1
 90
       50
176
     1
290
     0
176
     1
 90
       50
176
     1
 62
   256
176
     0
 40
1.0
176
     0
 90
        2
176
     1
  1
strokes_ogs.tif
176
     1
290
     0
176
     1
 40
1.0
176
     1
 40
1.0
176
     1
  0
VISUALSTYLE
  5
36
102
{ACAD_REACTORS
330
29
102
}
330
29
100
AcDbVisualStyle
  2
Thicken
 70
    13
177
     3
291
     1
 70
    58
 90
        2
176
     1
 90
        2
176
     1
 90
        0
176
     1
 90
        0
176
     1
 40
0.6
176
     1
 40
30.0
176
     1
 62
     7
420
 16777215
176
     1
 90
        1
176
     1
 90
        4
176
     1
 62
     7
176
     1
 62
   257
176
     1
 90
        1
176
     1
 90
        1
176
     1
 40
1.0
176
     1
 90
       12
176
     1
 62
     7
176
     1
 40
1.0
176
     1
 90
        1
176
     1
 90
        6
176
     1
 90
        2
176
     1
 62
     7
176
     1
 90
        5
176
     1
 90
        0
176
     1
 90
        0
176
     1
290
     0
176
     1
 90
        1
176
     1
 40
0.0
176
     1
 90
        0
176
     1
290
     0
176
     1
290
     1
176
     1
290
     1
176
     1
290
     0
176
     1
290
     0
176
     1
290
     0
176
     1
290
     0
176
     1
290
     0
176
     1
290
     0
176
     1
 90
       50
176
     1
 40
0.0
176
     1
 40
1.0
176
     1
 90
        0
176
     1
 62
    18
420
        0
176
     1
 90
       50
176
     1
 90
        3
176
     1
 62
     5
420
      255
176
     1
290
     0
176
     1
 90
       50
176
     1
 90
       50
176
     1
 90
       50
176
     1
290
     0
176
     1
 90
       50
176
     1
 62
   256
176
     0
 40
1.0
176
     0
 90
        2
176
     1
  1
strokes_ogs.tif
176
     1
290
     0
176
     1
 40
1.0
176
     1
 40
1.0
176
     1
  0
VISUALSTYLE
  5
30
102
{ACAD_REACTORS
330
29
102
}
330
29
100
AcDbVisualStyle
  2
Wireframe
 70
     5
177
     3
291
     0
 70
    58
 90
        0
176
     1
 90
        2
176
     1
 90
        0
176
     1
 90
        0
176
     1
 40
0.6
176
     1
 40
30.0
176
     1
 62
     7
420
 16777215
176
     1
 90
        1
176
     1
 90
        4
176
     1
 62
     7
176
     1
 62
   257
176
     1
 90
        1
176
     1
 90
        1
176
     1
 40
1.0
176
     1
 90
        0
176
     1
 62
   257
176
     1
 40
1.0
176
     1
 90
        1
176
     1
 90
        6
176
     1
 90
        2
176
     1
 62
     7
176
     1
 90
        3
176
     1
 90
        0
176
     1
 90
        0
176
     1
290
     0
176
     1
 90
        1
176
     1
 40
0.0
176
     1
 90
        0
176
     1
290
     0
176
     1
290
     1
176
     1
290
     1
176
     1
290
     0
176
     1
290
     0
176
     1
290
     0
176
     1
290
     0
176
     1
290
     0
176
     1
290
     0
176
     1
 90
       50
176
     1
 40
0.0
176
     1
 40
1.0
176
     1
 90
        0
176
     1
 62
    18
420
        0
176
     1
 90
       50
176
     1
 90
        3
176
     1
 62
     5
420
      255
176
     1
290
     0
176
     1
 90
       50
176
     1
 90
       50
176
     1
 90
       50
176
     1
290
     0
176
     1
 90
       50
176
     1
 62
   256
176
     0
 40
1.0
176
     0
 90
        2
176
     1
  1
strokes_ogs.tif
176
     1
290
     0
176
     1
 40
1.0
176
     1
 40
1.0
176
     1
  0
VISUALSTYLE
  5
3C
102
{ACAD_REACTORS
330
29
102
}
330
29
100
AcDbVisualStyle
  2
X-Ray
 70
    25
177
     3
291
     0
 70
    58
 90
        2
176
     1
 90
        2
176
     1
 90
        1
176
     1
 90
        1
176
     1
 40
0.5
176
     1
 40
30.0
176
     1
 62
     7
420
 16777215
176
     1
 90
        1
176
     1
 90
        0
176
     1
 62
     7
176
     1
 62
   257
176
     1
 90
        1
176
     1
 90
        1
176
     1
 40
1.0
176
     1
 90
        8
176
     1
 62
     7
176
     1
 40
1.0
176
     1
 90
        1
176
     1
 90
        6
176
     1
 90
        2
176
     1
 62
     7
176
     1
 90
        3
176
     1
 90
        0
176
     1
 90
        0
176
     1
290
     0
176
     1
 90
       13
176
     1
 40
0.0
176
     1
 90
        0
176
     1
290
     0
176
     1
290
     1
176
     1
290
     1
176
     1
290
     0
176
     1
290
     0
176
     1
290
     0
176
     1
290
     0
176
     1
290
     0
176
     1
290
     0
176
     1
 90
       50
176
     1
 40
0.0
176
     1
 40
1.0
176
     1
 90
        0
176
     1
 62
    18
420
        0
176
     1
 90
       50
176
     1
 90
        3
176
     1
 62
     5
420
      255
176
     1
290
     0
176
     1
 90
       50
176
     1
 90
       50
176
     1
 90
       50
176
     1
290
     0
176
     1
 90
       50
176
     1
 62
   256
176
     0
 40
1.0
176
     0
 90
        2
176
     1
  1
strokes_ogs.tif
176
     1
290
     0
176
     1
 40
1.0
176
     1
 40
1.0
176
     1
  0
DICTIONARYVAR
  5
15B
102
{ACAD_REACTORS
330
156
102
}
330
156
100
DictionaryVariables
280
     0
  1
1:1
  0
DICTIONARYVAR
  5
158
102
{ACAD_REACTORS
330
156
102
}
330
156
100
DictionaryVariables
280
     0
  1
STANDARD
  0
DICTIONARYVAR
  5
157
102
{ACAD_REACTORS
330
156
102
}
330
156
100
DictionaryVariables
280
     0
  1
STANDARD
  0
DICTIONARYVAR
  5
159
102
{ACAD_REACTORS
330
156
102
}
330
156
100
DictionaryVariables
280
     0
  1
Imperial24
  0
DICTIONARYVAR
  5
15A
102
{ACAD_REACTORS
330
156
102
}
330
156
100
DictionaryVariables
280
     0
  1
Imperial24
  0
DICTIONARY
  5
1A
330
19
100
AcDbDictionary
280
     1
281
     1
  3
BUMPTILE
360
1C
  3
DIFFUSETILE
360
1B
  3
OPACITYTILE
360
1F
  3
REFLECTIONTILE
360
1E
  3
REFRACTIONTILE
360
20
  3
SPECULARTILE
360
1D
  0
DICTIONARY
  5
12
330
11
100
AcDbDictionary
280
     1
281
     1
  3
BUMPTILE
360
14
  3
DIFFUSETILE
360
13
  3
OPACITYTILE
360
17
  3
REFLECTIONTILE
360
16
  3
REFRACTIONTILE
360
18
  3
SPECULARTILE
360
15
  0
DICTIONARY
  5
22
330
21
100
AcDbDictionary
280
     1
281
     1
  3
BUMPTILE
360
24
  3
DIFFUSETILE
360
23
  3
OPACITYTILE
360
27
  3
REFLECTIONTILE
360
26
  3
REFRACTIONTILE
360
28
  3
SPECULARTILE
360
25
  0
DICTIONARY
  5
15C
330
65
100
AcDbDictionary
280
     1
281
     1
  3
ACAD_ROUNDTRIP_2008_TABLESTYLE_CELLSTYLEMAP
360
15D
  0
XRECORD
  5
1C
102
{ACAD_REACTORS
330
1A
102
}
330
1A
100
AcDbXrecord
280
     1
270
     1
271
     1
  0
XRECORD
  5
1B
102
{ACAD_REACTORS
330
1A
102
}
330
1A
100
AcDbXrecord
280
     1
270
     1
271
     1
  0
XRECORD
  5
1F
102
{ACAD_REACTORS
330
1A
102
}
330
1A
100
AcDbXrecord
280
     1
270
     1
271
     1
  0
XRECORD
  5
1E
102
{ACAD_REACTORS
330
1A
102
}
330
1A
100
AcDbXrecord
280
     1
270
     1
271
     1
  0
XRECORD
  5
20
102
{ACAD_REACTORS
330
1A
102
}
330
1A
100
AcDbXrecord
280
     1
270
     1
271
     1
  0
XRECORD
  5
1D
102
{ACAD_REACTORS
330
1A
102
}
330
1A
100
AcDbXrecord
280
     1
270
     1
271
     1
  0
XRECORD
  5
14
102
{ACAD_REACTORS
330
12
102
}
330
12
100
AcDbXrecord
280
     1
270
     1
271
     1
  0
XRECORD
  5
13
102
{ACAD_REACTORS
330
12
102
}
330
12
100
AcDbXrecord
280
     1
270
     1
271
     1
  0
XRECORD
  5
17
102
{ACAD_REACTORS
330
12
102
}
330
12
100
AcDbXrecord
280
     1
270
     1
271
     1
  0
XRECORD
  5
16
102
{ACAD_REACTORS
330
12
102
}
330
12
100
AcDbXrecord
280
     1
270
     1
271
     1
  0
XRECORD
  5
18
102
{ACAD_REACTORS
330
12
102
}
330
12
100
AcDbXrecord
280
     1
270
     1
271
     1
  0
XRECORD
  5
15
102
{ACAD_REACTORS
330
12
102
}
330
12
100
AcDbXrecord
280
     1
270
     1
271
     1
  0
XRECORD
  5
24
102
{ACAD_REACTORS
330
22
102
}
330
22
100
AcDbXrecord
280
     1
270
     1
271
     1
  0
XRECORD
  5
23
102
{ACAD_REACTORS
330
22
102
}
330
22
100
AcDbXrecord
280
     1
270
     1
271
     1
  0
XRECORD
  5
27
102
{ACAD_REACTORS
330
22
102
}
330
22
100
AcDbXrecord
280
     1
270
     1
271
     1
  0
XRECORD
  5
26
102
{ACAD_REACTORS
330
22
102
}
330
22
100
AcDbXrecord
280
     1
270
     1
271
     1
  0
XRECORD
  5
28
102
{ACAD_REACTORS
330
22
102
}
330
22
100
AcDbXrecord
280
     1
270
     1
271
     1
  0
XRECORD
  5
25
102
{ACAD_REACTORS
330
22
102
}
330
22
100
AcDbXrecord
280
     1
270
     1
271
     1
  0
CELLSTYLEMAP
  5
15D
102
{ACAD_REACTORS
330
15C
102
}
330
15C
100
AcDbCellStyleMap
 90
        3
300
CELLSTYLE
  1
TABLEFORMAT_BEGIN
 90
        5
170
     1
 91
        0
 92
    32768
 62
   257
 93
        1
300
CONTENTFORMAT
  1
CONTENTFORMAT_BEGIN
 90
        0
 91
        0
 92
      512
 93
        0
300

 40
0.0
140
1.0
 94
        5
 62
     0
340
55
144
0.25
309
CONTENTFORMAT_END
171
     0
 94
        0
309
TABLEFORMAT_END
  1
CELLSTYLE_BEGIN
 90
        1
 91
        1
300
_TITLE
309
CELLSTYLE_END
300
CELLSTYLE
  1
TABLEFORMAT_BEGIN
 90
        5
170
     1
 91
        0
 92
        0
 62
   257
 93
        1
300
CONTENTFORMAT
  1
CONTENTFORMAT_BEGIN
 90
        0
 91
        0
 92
      512
 93
        0
300

 40
0.0
140
1.0
 94
        5
 62
     0
340
55
144
0.18
309
CONTENTFORMAT_END
171
     0
 94
        0
309
TABLEFORMAT_END
  1
CELLSTYLE_BEGIN
 90
        2
 91
        1
300
_HEADER
309
CELLSTYLE_END
300
CELLSTYLE
  1
TABLEFORMAT_BEGIN
 90
        5
170
     1
 91
        0
 92
        0
 62
   257
 93
        1
300
CONTENTFORMAT
  1
CONTENTFORMAT_BEGIN
 90
        0
 91
        0
 92
      512
 93
        0
300

 40
0.0
140
1.0
 94
        2
 62
     0
340
55
144
0.18
309
CONTENTFORMAT_END
171
     0
 94
        0
309
TABLEFORMAT_END
  1
CELLSTYLE_BEGIN
 90
        3
 91
        2
300
_DATA
309
CELLSTYLE_END
  0
ENDSEC
  0
EOF
