<svg xmlns="http://www.w3.org/2000/svg" xmlns:xlink="http://www.w3.org/1999/xlink" viewBox="0 0 1230.05 1080.6"><defs><style>.cls-1{fill:none;stroke-miterlimit:10;stroke-width:20px;stroke:url(#linear-gradient);}.cls-2{fill:url(#linear-gradient-2);}.cls-3{fill:url(#linear-gradient-3);}.cls-4{fill:url(#linear-gradient-4);}.cls-5{fill:url(#linear-gradient-5);}.cls-6{fill:#fff;}.cls-7{fill:#333;}</style><linearGradient id="linear-gradient" x1="94.04" y1="627.93" x2="999.37" y2="627.93" gradientUnits="userSpaceOnUse"><stop offset="0" stop-color="#ff7194"/><stop offset="0.5" stop-color="#aa83ff"/><stop offset="0.61" stop-color="#a185ff"/><stop offset="0.8" stop-color="#878cff"/><stop offset="1" stop-color="#6694ff"/></linearGradient><linearGradient id="linear-gradient-2" x1="321.71" y1="463.68" x2="779.83" y2="1142.86" gradientUnits="userSpaceOnUse"><stop offset="0" stop-color="#333"/><stop offset="0.38" stop-color="#333"/><stop offset="0.89" stop-color="#181818"/><stop offset="1"/></linearGradient><linearGradient id="linear-gradient-3" x1="174.64" y1="233.62" x2="585.76" y2="434.14" gradientUnits="userSpaceOnUse"><stop offset="0" stop-color="#333"/><stop offset="0.31" stop-color="#333"/><stop offset="0.89" stop-color="#181818"/><stop offset="1"/></linearGradient><linearGradient id="linear-gradient-4" x1="628.44" y1="250.96" x2="1128.52" y2="627.8" xlink:href="#linear-gradient-3"/><linearGradient id="linear-gradient-5" x1="379" y1="529.31" x2="126.28" y2="681.16" gradientUnits="userSpaceOnUse"><stop offset="0.47" stop-color="#333"/><stop offset="0.69" stop-color="#232323"/><stop offset="1"/></linearGradient></defs><g id="Logo"><circle class="cls-1" cx="546.71" cy="627.93" r="442.67"/></g><g id="Raven"><g id="Body"><path class="cls-2" d="M606.92,790.11a276.37,276.37,0,0,0,29.85,18.17c68.65,36.11,149.21,41.16,225.37,65.66,0,0,36.65,11.79,35.41,23.19a17.62,17.62,0,0,1-3.95,8.57,18.13,18.13,0,0,1-5.65,4.43,66.92,66.92,0,0,1,24.88,13.28c2.94,2.52,13.75,11.86,11.49,18-.76,2.05-2.2,1.6-5.53,5.84s-3.49,6.82-6.11,7.94c-1.22.53-3.3.88-6.7-.64-1.09,2.05-2.25,5.09-1.24,8,1.15,3.27,4.68,2.8,8.09,6.72,2.34,2.69,1.51,3.72,4.28,9.16,3.62,7.13,5.94,7.12,6.11,10.08.39,7.07-12.32,16-19.39,13.44-2.15-.79-2.74-2.22-8.1-5.65a57.19,57.19,0,0,0-6.1-3.41,18.06,18.06,0,0,0,3.2,6.61c3.69,4.74,8.43,5.61,8.14,7-.34,1.63-6.84,1.66-10.58,1.68a46.42,46.42,0,0,1-7.94-.46,42,42,0,0,1-14.4-5.09,52.45,52.45,0,0,1,10.68,9.67c2.12,2.54,3.84,4.62,4.79,7.84,1.17,4,0,5.88-.51,12.62-.76,9.89,1.4,10.15-.18,13.77-2.3,5.23-8.1,7.59-15.5,10.58-5.33,2.17-8,3.25-11,3.29-8,.1-12.32-5.52-26.16-15.83-3.51-2.62-8.76-6.37-15.48-10.59,2.74,3.18,7,7.92,12.63,13.34,7.61,7.32,10.13,8.55,13.33,13.64a36.7,36.7,0,0,1,5.6,18.22c.31,6.31-1,12.93-2.76,13.12-1.19.13-1.7-2.72-5.59-6-1.62-1.36-4.21-3.22-4.88-2.64s.8,2.29,1.52,5.7c.32,1.47.25,2,.31,6,.13,7.84.48,10.37-.61,10.79-.11,0-.51.16-1.73-.61-4.1-2.59-3.74-7.15-7.33-8.75-.8-.36-2-.64-2.25-.23s.8,1.58,1.52,3.13c1.32,2.85,1,6.93-.49,7.58s-3.31-3.08-7.94-3.56c-1.61-.16-3.46.08-3.56.61s1.19.76,2.23,1.73c2.16,2,2.74,6.47,1,8.15-1.09,1.07-2.23.14-7.84,0-4.78-.13-5.93.5-7.63-.62-1.45-1-1.56-2-3.16-4.58a30,30,0,0,0-5.19-6.21l2,13.44c-20.09-20.93-26.23-24.75-27.69-23.61-2.53,2,9.06,19,4.73,22.85-2.43,2.18-8.58-1-9.21-1.27-8.32-4.24-11.2-13.89-13.23-13.14-.9.34-.51,2.3-1.43,2.65-1.57.6-4.91-4.32-7.73-9.06a41,41,0,0,1-2.85-6.72,43.19,43.19,0,0,1-1.94-16.79,45.45,45.45,0,0,0-1.22,10c-.07,7.26,1.68,11.36.71,11.81-1.29.6-5.4-6.22-12.52-16.69-7.95-11.69-13.54-19.85-15-19.14-1.13.56.47,6.68,2.34,11,1.1,2.54,1.78,3.25,3,5.81a45.76,45.76,0,0,1,3.92,11.55c3.27,23.46,1.76,29.91-.66,30.69-1.21.39-2.36-.73-10.38-4.58-2.75-1.32-5-2.36-6.62-3a89.51,89.51,0,0,0-22.39-27.29c.47,2.41.87,4.46,1.32,6.72a10.25,10.25,0,0,1-.1,5.09c-.34,1.11-.61,1.2-.71,1.22-.86.16-1.5-2.71-4.08-5.59-.58-.66-2.72-3.05-3.76-2.55-.23.11-.79.54-.41,4.48.48,4.91,1.67,7.48,1.22,7.74-.69.39-4.42-5-6.46-7.84-4.75-6.62-15.48-21.59-19.19-20-1.37.6-1.47,3.32-1.32,4.68.38,3.63,3.34,5.43,6.82,8.65,2.41,2.24,9.66,9,11,17.52.25,1.52,1.07,6.58-1.23,8.06-2.87,1.85-7.27-4-13.68-2.57-3.14.71-4,2.56-6.41,2s-3.28-2.49-5.4-5.49c-3.91-5.55-4.77-8.35-7.33-8.76-1.21-.19-1.58.34-2.92.55-4,.6-7.06-3-13.47-9-9.65-9-11.06-8.69-12.37-12.31-.9-2.52-.87-4.47-2.79-9.17-2.11-5.13-3.6-6.32-4.89-6.41a2.08,2.08,0,0,0-1.73.61c-1.21,1.68,3.2,5.21,2.24,7.43-.84,1.94-5.39,2.06-8.55,1.53-6.25-1-6.76-4.59-12.83-5.8-4.94-1-6.27,1-9.66-.75-2.64-1.39-2.92-3.18-6.06-6.84s-5.93-5.37-8.1-7.07c-3.79-3-8.76-8.49-13.74-19.6l-2.24.87a27.12,27.12,0,0,1-10.33,1.86c-6-.15-9.5-2.36-17.79-5.73-11.77-4.78-10.85-2.86-15.24-5.4-9.84-5.66-15-15.58-18.33-22.08-5.33-10.32-5.84-17-11-18.23-3.16-.77-4.56,1.38-9,1.74-8.34.66-15.1-6-17.3-8-6.36-5.55-21.84-12.63-62.71-18.62a28.77,28.77,0,0,0,1.53-9c0-4.65-1.14-6-.92-8.25.42-4.12,12-9.66,20.82-13.46,0,0,8.81-3.78,26.21-13.16a12.05,12.05,0,0,0,3.16-2.34c2.78-2.92,1.9-5.19,4-10.38a107.94,107.94,0,0,1,5.19-10.49c.52-.94,1.51-2.68.91-4.37a4.69,4.69,0,0,0-2.54-2.45c-3.59-1.64-7.91.41-9,.82-10,4-38.05-16.43-56.9-50.59-1.44-2.6-1.11-2.18-4.28-8.35-19.55-38-29-48-43.57-74.92-11.3-20.83-7-17.39-26.08-56.08-12.14-24.68-20.43-39.38-23.54-45.41-12.38-24-22.26-64.26-9.69-135.61a332.17,332.17,0,0,1,166,19.06,73.06,73.06,0,0,0,23.71,4.79c8.14.28,16.83-.8,35.2-7a332,332,0,0,0,43.55-18.2c46.41,188,65,241.63,72.53,249.31,1.29,1.32,10.72,9.88,12.89,23.08A35,35,0,0,1,606.92,790.11Z" transform="translate(-153.44 -72.07)"/></g><g id="Wings"><path class="cls-3" d="M252.73,510.21A112,112,0,0,0,248.15,488c-6.52-20.72-18.25-36.57-22.83-42.67-8.95-11.91-22.94-27.22-20.83-36.16.2-.87,1.31-4.87-.37-6.15-1.18-.91-3,.13-4.63.31-5.52.62-10.72-7.83-12.5-10.5-12.14-18.14-21-15.32-27.84-31.73-3.84-9.26-3.43-16-3.13-18.68a27.58,27.58,0,0,1,4.27-12.37c2-2.89,5.44-8,10-8,3.81,0,6,3.66,9.67,2.41a5,5,0,0,0,2.44-1.73c2.7-3.91-3.4-12.55-4.26-13.83-10.82-16.13,2-68.6,3.11-73.11,11.08-44.33,33.13-86.38,38.56-84.58.84.28,1.12,1.57,1.32,2.75,3.49,20.22-4.77,64-5.8,69.32l8.14,4.68c5.68-15.51,14.71-38.59,27.7-65.81,4.1-8.6,45.3-94.34,57.38-89.91,1.64.61,2.19,3.28,3.28,8.63,1.9,9.31.63,17.19-7.48,48.71-.66,2.57-1,3.85-1.11,4.3-6.38,22.79-13.54,37.11-24.7,61.51-3.26,7.15-8.07,17.83-13.74,31.11l12-5.25c8.7-14,21.05-33.69,36.24-57,43.55-66.83,53-75.51,57.21-73.7,3.48,1.49,2.87,9.8,2,21.38-1.69,23.27-8.26,40.83-16.49,61.07-6.11,15-13.49,32.39-22.24,51.6a211.54,211.54,0,0,0,32.25-45.24c16.3-30.84,19.23-55.3,25.82-54.81,6.21.46,9.66,22.69,10.38,35.22.3,5.27,1.24,28.43-11,55.58a131.47,131.47,0,0,1-32,43.57l14.76-.31a361.66,361.66,0,0,0,40.62-23.82c30.95-21,46.26-38.29,52.53-34.1,5.09,3.41.48,18.59-2,26.88a106.53,106.53,0,0,1-26.06,43.36c33.48-9.08,43.31-7.25,45.4-3.26,2.28,4.37-5.53,9.68-4.6,22.78.27,3.78,1.27,8.22-1.2,12.85a15.43,15.43,0,0,1-4.79,5.29c7.6,2.18,10.68,5.64,12.12,8.25,3,5.46.67,10.69.2,22.39a98.36,98.36,0,0,0,.71,16.39c15.95,2.2,21.12,7,22.7,11.25,2,5.38-2.12,8.77-.15,18.17,1.65,7.85,5.72,11.16,4,14.51-1.58,3-6.58,3.54-10.54,3.51,16.56,8.38,27.18,18.65,27,24.74a34.78,34.78,0,0,1-.71,5.39,32.72,32.72,0,0,1-3.77,9.57l-17.91-.41c4.66.73,33.64,5.55,38.32,22.65a18,18,0,0,1,.61,3.87l14,17.61c-36.37,23.59-66,35.25-84.46,41.24-14.88,4.82-23.47,6.26-32.63,6.09-16.1-.28-22.42-5.31-51.66-13.46-6.66-1.85-20.07-5.55-36.83-8.53a322.71,322.71,0,0,0-53.51-5.12A302.79,302.79,0,0,0,252.73,510.21Z" transform="translate(-153.44 -72.07)"/><path class="cls-4" d="M418.72,529.27a78.76,78.76,0,0,0,20.92,4.38c7.84.53,18.4,0,41-7.61A294.19,294.19,0,0,0,520,509.51a527.46,527.46,0,0,0,52-30.73c83.94-55,108.44-65.66,135.59-70.85,4.62-.89,5.09-.83,18.63-2.75,121.34-17.26,141.08-30.39,232.7-42.45,37.43-4.93,52.29-5.13,81.53-13.44a347.06,347.06,0,0,0,76-31.45c54.76-31.31,84.07-70.42,85.2-69.32,1,.94-20.48,30.06-55.28,56.19-42.13,31.64-82,40.87-81.53,42.14.58,1.62,56.22-12.23,129-44.3,75.48-33.27,122.53-65.51,123.57-63.81s-40,32.52-96.5,60.47c-51.91,25.67-91.25,36.16-90.7,37.87.61,1.89,49.25-10,106-30.24,68.7-24.51,110.21-47.36,111-45.69s-42.08,27.7-97.3,50a663.77,663.77,0,0,1-66.34,22.76c-2.36,2-4.74,4.42-4.13,5.9,2.16,5.17,39.37-5.93,84.82-19.19,78.72-23,118.1-34.4,119.1-32.07,2.13,5-50.45,36.58-113.3,56.5a457.57,457.57,0,0,1-47,12.21,252.6,252.6,0,0,1,37.57-4.88c5.69-.31,16.79-.86,17.1.91.24,1.39-6.37,2.7-21.07,9.16-11.37,5-19.85,9.17-19.85,9.17-6.23,3.06-6.95,3.6-9.43,4.26-5.58,1.51-12.39-.14-19.28-.29-6.28-.14-13.35,1-13.51,2.63,0,.36.28.66.79,1.13a10.52,10.52,0,0,0,5.59,2.36c2.73.58,6.84,2.34,7.13,3.95.54,3-12.56,4.07-27.18,13.75-8.27,5.47-14.35,11.93-23.63,11.63-1.29-.05-1.54-.18-4.36-.34a109.77,109.77,0,0,0-17.82.72c-15.14,1.51-16.47,2.89-16.59,3.76a2.17,2.17,0,0,0,.36,1.25c1,1.94,3.51,2.49,4.63,2.72,10.18,2.11,15.06,2.68,15.83,5a3.2,3.2,0,0,1-.15,1.83c-1.09,4.41-5.59,7-7.13,7.84-11.64,6.54-21.32,7.72-31.93,14.24-8.31,5.09-6.77,4.32-12.9,6.72-13,5.09-23.57,4.48-25,9.69a5.26,5.26,0,0,0,.25,3.35,13.08,13.08,0,0,1-.76,8.25c-2.68,5.55-8.81,5.56-22.14,11-12.1,4.93-11.17,6.6-19.12,8.59-9.74,2.44-11.77.09-18,3.32-7.08,3.68-6.64,7.87-13.86,10.94-1.94.82-3.15,1.1-14.38,1.89-21.87,1.53-25.31,1.19-30.69,3.66a34.63,34.63,0,0,1-6.11,2.14,21.68,21.68,0,0,1-12.06-.61c-2.45-.84-1.89-1.17-6.57-3.51a68.18,68.18,0,0,0-10.23-4.28,39.13,39.13,0,0,0-13.28-1.53c-1.08.1-2.69.33-3.52,1.53a3.75,3.75,0,0,0-.46,2.6c.5,3.28,4.09,3.81,6.42,7.48a11,11,0,0,1,1.73,5.61c.06,4.87-4.91,8.72-19.29,18.36-18.74,12.56-22.73,14.35-27.18,14.13-2.45-.12-5.15-.12-10.53-.14a41.9,41.9,0,0,0-7.79.67c-3,.55-4.55.84-5.35,1.83-1.71,2.12.26,5.12.56,9.77,0,0,.29,4.55-2.54,11.15-1.24,2.88-3.49,6-25.7,17.46-8.92,4.58-14.92,7.33-22.55,9.57a50.46,50.46,0,0,1-10.23,2.07,46.44,46.44,0,0,1-16-1.46,58.37,58.37,0,0,1-15.27,26.26,129,129,0,0,1-44.12,16.8,43,43,0,0,1-4.58,8.85,42.54,42.54,0,0,1-5.65,6.72l-34.82,17a32.51,32.51,0,0,1-9.77,19.7,154.11,154.11,0,0,0-18.73,12.57c-3.72,2.91-7.09,5.82-10.13,8.65A22.75,22.75,0,0,0,607.5,735c.13,4.76,1.83,6.66.56,9.47-.47,1.06-1.38,2.27-8.19,5.7-3.6,1.81-6.68,3.16-8.91,4.07-25.45-21.35-33.53-40.79-36-55-2-11.47.06-16.86-4.94-25.91-8.22-14.92-22.71-16.26-44.83-29.13,0,0-14-8.14-35.74-28C456.06,604,433.19,578.4,418.72,529.27Z" transform="translate(-153.44 -72.07)"/></g><g id="Head"><path class="cls-5" d="M176.66,592.38c-4.6-16.41-1.49-26,1.29-31.13,1.44-2.68,2.7-4,10.52-12.85,11.31-12.84,15.28-17.61,16.69-19.13,11.2-12.13,52-26.24,114.42-21.79a354.84,354.84,0,0,1,99.14,21.79,25.1,25.1,0,0,1,.21,15.87c-3.43,10.47-12.75,14.63-14.25,15.27-10.39-1.26-22.08-1.41-25,4.28a7.36,7.36,0,0,0-.6,4.48c1.38,10.18-1.86,58.91-18.75,76.34-13.24,13.67-43.87,8.84-105.13-.83-17.34-2.74-31.81-5.65-42.26-7.92l-17.56,9.82c-15.69,8.78-21.79,12.23-31.15,14.2a65.35,65.35,0,0,1-9.62,1.3,64.51,64.51,0,0,1-.62-20c1.27-10.09,4.66-17.27,9.27-26.86A158.82,158.82,0,0,1,176.66,592.38Z" transform="translate(-153.44 -72.07)"/><path class="cls-6" d="M260.94,568c-3-2.67-7.22-1.8-7.94-1.63-6,1.38-8.86,8.2-9.24,12.87-.14,1.71-.42,5.16,1.71,6.88,2.37,1.9,6.2.43,8.55-.41s7.3-2.6,9-7.53C263.92,575.34,264.08,570.71,260.94,568Z" transform="translate(-153.44 -72.07)"/></g><g id="Legs"><path class="cls-7" d="M367.73,952.12c-9.76,7.15-18.27,9.9-24.23,11.09-6.33,1.27-29.17,4.67-36.34,4.89a10.34,10.34,0,0,0-4.58,1.12,12.75,12.75,0,0,0-3.41,2.9,33.4,33.4,0,0,1-7.36,5.3,25.85,25.85,0,0,1-7.15,2.49,15.55,15.55,0,0,0-3.36,5.19c-2,5.33.29,8.79,1.3,16.26,1.64,12.12-3.05,13.85.23,20.39,1.78,3.54,4.48,5.68,4.89,10.61.23,2.82-.56,3.29,0,5.57.91,3.79,3.71,5.06,7.25,9a35.77,35.77,0,0,1,5.57,8.4,32.1,32.1,0,0,0,12.34,5.69c6.49,1.4,13.21.63,13.39-.65s-6.36-1.55-12.67-7.18c-4.57-4.07-6.76-8.92-6-9.62.37-.36,1.45.51,3.16,0,.61-.17,1.57-.41,1.75-1,.45-1.43-4.63-2.31-6.52-6.58-.78-1.76-1.38-4.93-2.17-6.33,0,0-.45-.79-1-1.84-.24-.41-.35-.62-.36-.64-.43-1.28.63-2.66-.1-6.46-.42-2.18-1.2-4-.61-4.35.31-.2.84.12,1.14.31,2.95,1.89,5.41,6.65,7.48,8.93,1.34,1.47,3.77,3.28,8.48,4,7.07.33,8.85,0,8.93-.53.13-.81-4.65-1.31-8.17-5a15,15,0,0,1-3.74-7.86,9.3,9.3,0,0,0,5.19,2c3.14.17,6.41-1.42,6.31-2.45s-4.08-.58-8.13-2.74-6.13-5.79-7.34-8.56c-.12-.9-1.11-9.67,4.89-14.55a12.71,12.71,0,0,1,4.88-2.45l11.2-.4c10.34-2.7,49.66-13.28,72.68-27.28,5.41-3.29,11.63-7.82,13.44-15.07,1.57-6.33-1.32-10.34-3.78-19-2.72-9.52-2.46-18.2-1.95-35.57a214.93,214.93,0,0,1,3.49-32.59,134.19,134.19,0,0,0-86.12-83.06,138.78,138.78,0,0,1,4.3,15.26c.44,2,1.45,6.78,3.6,24.09,1.65,13.26,1.82,16.64,3.84,22.57a64.5,64.5,0,0,0,5.16,11.37c7,16.53,12.75,29,16.9,37.67,4.05,8.44,8.45,17.2,9.77,29.92a71.82,71.82,0,0,1,.2,12.42Q371,940,367.73,952.12Z" transform="translate(-153.44 -72.07)"/><path class="cls-7" d="M461.17,802.48a72.71,72.71,0,0,0-10.29,18.22c-2.39,6.22-4.79,15.07-4.67,32.17a189.83,189.83,0,0,0,7.33,50.39c2.17,37.14-3.09,47.1-8.55,49-3.27,1.14-5.68-.92-13.5-.76s-11.62,2.36-21.75,5.89c-13.93,4.85-23.71,8.25-36.29,9.45-8.45.81-12.46.08-17.63,3.44a15.23,15.23,0,0,0-1.81,1.44c-4.6,4-5.36,7.11-8.59,11.94-5.49,8.21-9.15,7.93-10.22,12.81-.22,1-.63,3.56-2.59,5a10.32,10.32,0,0,1-3,1.49c-1.51.49-2,.27-2.71.73-1.16.78-1.46,2.51-1.41,4.31,0,7.11-.94,11.48-1.88,14.23a12.32,12.32,0,0,0-.66,6.49,15.13,15.13,0,0,0,1.49,3.78c1.79,3.91,5.25,6.33,5.86,5.9s-2.19-3.76-1.84-8.64a12.44,12.44,0,0,1,1.15-4.36c.59-1.06,1.19-2.11,1.78-3.16,3.13-4.83,4.17-7.34,4.44-8.74a4.05,4.05,0,0,1,1.44-2.63,3.15,3.15,0,0,1,1.22-.51,7.25,7.25,0,0,1,3.56.35c1.24.19,3.17-1,6.26-7A38.73,38.73,0,0,1,347,1013c-1.09,4-2.37,8.84-6.23,13-1.86,2-3.71,3.16-6.46,6.68-1.11,1.42-2.4,3.26-2.15,5.5a5.54,5.54,0,0,0,.69,2.09c-.54,1.87-2.66,9.86,1.54,14.39,1.35,1.46,3.49,2.71,4.11,2.2.81-.66-1.82-3.7-1.83-7.68,0-3.45,1.93-6.28,3.66-8.2l3.64-.56a17.14,17.14,0,0,0,4.62-1.71c8.63-4.73,8.73-14.76,16.3-27.22a63.65,63.65,0,0,1,8.4-10.92,68.93,68.93,0,0,0-6.8,12.9,69.89,69.89,0,0,0-4.86,23.29l.64,1.07c-.15,1.29-.74,7.56,3.31,11,2.41,2,5.92,2.62,6.36,1.89s-1.9-2.18-3.18-5.35a12.83,12.83,0,0,1-.48-7.43l4.83-1A137.42,137.42,0,0,1,398,985.1c5.19-1.11,9.34-2.15,12-2.85,6.41-1.67,13-2.76,19.37-4.46,2.79-.75,6.54-1.8,9.66.07,1.6.95,2,2,2.7,2.66,4.19,3.63,23.94-4,35.1-20.13,3.17-4.57,4.61-8.32,11.55-53.26,3.32-21.47,4.42-29.6,11.61-37.46,8.14-8.92,14.89-7.25,17.3-14,4.69-13.23-15.65-33.68-32.88-43.82A84.18,84.18,0,0,0,461.17,802.48Z" transform="translate(-153.44 -72.07)"/></g></g></svg>