<?xml version="1.0" encoding="utf-8"?>
<!-- Generator: Adobe Illustrator 26.0.1, SVG Export Plug-In . SVG Version: 6.00 Build 0)  -->
<svg version="1.1" id="Layer_1" xmlns="http://www.w3.org/2000/svg" xmlns:xlink="http://www.w3.org/1999/xlink" x="0px" y="0px"
	 viewBox="0 0 388.7 456.1" style="enable-background:new 0 0 388.7 456.1;" xml:space="preserve">
<style type="text/css">
	.st0{fill:none;stroke:#000000;stroke-width:0.709;stroke-linecap:round;stroke-linejoin:round;stroke-miterlimit:10;}
</style>
<g>
	<g id="LWPOLYLINE_00000002360343540338608520000001846812272496319617_">
		<rect x="98.7" y="399.4" class="st0" width="11.3" height="8.5"/>
	</g>
	<g id="LWPOLYLINE_00000088817965867421654230000004314229771589538229_">
		<rect x="121.4" y="399.4" class="st0" width="11.3" height="8.5"/>
	</g>
	<g id="LWPOLYLINE_00000098912377550893007560000011445257252976297891_">
		<rect x="76" y="399.4" class="st0" width="11.3" height="8.5"/>
	</g>
	<g id="LWPOLYLINE_00000028283642061830017840000006544981227707596930_">
		<path class="st0" d="M180.9,400.9v32.6h-30.7c-2,0-3.9-1.1-4.9-2.8l-6.5-11.3c-1-1.8-2.9-2.8-4.9-2.8H74.9c-2,0-3.9,1.1-4.9,2.8
			l-6.5,11.3c-1,1.8-2.9,2.8-4.9,2.8H27.8v-32.6h-8.5v-11.3h8.5v-11.3h-8.5v-11.3h8.5v-11.3h-8.5v-11.3h8.5v-7.1h153.1v7.1h8.5v11.3
			h-8.5v11.3h8.5v11.3h-8.5v11.3h8.5v11.3H180.9z"/>
	</g>
</g>
<g>
	<g id="LWPOLYLINE_00000075141378336695175570000008061632510417388728_">
		<polygon class="st0" points="27.8,153.1 76,153.1 76,144.6 87.4,144.6 87.4,153.1 98.7,153.1 98.7,144.6 110,144.6 110,153.1 
			121.4,153.1 121.4,144.6 132.7,144.6 132.7,153.1 180.9,153.1 180.9,201.3 189.4,201.3 189.4,212.6 180.9,212.6 180.9,223.9 
			189.4,223.9 189.4,235.3 180.9,235.3 180.9,246.6 189.4,246.6 189.4,257.9 180.9,257.9 180.9,306.1 132.7,306.1 132.7,314.6 
			121.4,314.6 121.4,306.1 110,306.1 110,314.6 98.7,314.6 98.7,306.1 87.4,306.1 87.4,314.6 76,314.6 76,306.1 27.8,306.1 
			27.8,257.9 19.3,257.9 19.3,246.6 27.8,246.6 27.8,235.3 19.3,235.3 19.3,223.9 27.8,223.9 27.8,212.6 19.3,212.6 19.3,201.3 
			27.8,201.3 		"/>
	</g>
</g>
<g>
	<g id="LWPOLYLINE_00000049940737961974642260000011445444753212656264_">
		<polygon class="st0" points="207.9,306.4 199.3,306.4 199.3,297.9 207.9,297.9 207.9,153.3 244.7,153.3 244.7,144.8 245.3,144.3 
			323.5,144.3 324.1,144.8 324.1,153.3 360.9,153.3 360.9,297.9 369.4,297.9 369.4,306.4 360.9,306.4 360.9,314.9 207.9,314.9 		"/>
	</g>
</g>
<g>
	<g id="LWPOLYLINE_00000106105998386868609880000014761170815247863198_">
		<path class="st0" d="M360.9,320.1v24.1h8.5v11.3h-8.5v11.3h8.5v11.3h-8.5v11.3h8.5v11.3h-8.5v32.6h-30.7c-2,0-3.9-1.1-4.9-2.8
			l-6.5-11.3c-1-1.8-2.9-2.8-4.9-2.8H255c-2,0-3.9,1.1-4.9,2.8l-6.5,11.3c-1,1.8-2.9,2.8-4.9,2.8h-30.7v-32.6h-8.5v-11.3h8.5v-11.3
			h-8.5v-11.3h8.5v-11.3h-8.5v-11.3h8.5v-24.1h36.9v8.5h79.4v-8.5H360.9z"/>
	</g>
	<g id="LWPOLYLINE_00000034793033913339554350000017296406188081364656_">
		<rect x="256" y="399.4" class="st0" width="11.3" height="8.5"/>
	</g>
	<g id="LWPOLYLINE_00000165220499144272247540000015705446964643551910_">
		<rect x="301.4" y="399.4" class="st0" width="11.3" height="8.5"/>
	</g>
	<g id="LWPOLYLINE_00000067207605897268028740000006238970856991681176_">
		<rect x="278.7" y="399.4" class="st0" width="11.3" height="8.5"/>
	</g>
</g>
<g>
	<g id="LWPOLYLINE_00000111166501756337457970000005537125080193094816_">
		<path class="st0" d="M150.2,144.6c-2,0-3.9-1.1-4.9-2.8l-6.5-11.3c-1-1.8-2.9-2.8-4.9-2.8H74.9c-2,0-3.9,1.1-4.9,2.8l-6.5,11.3
			c-1,1.8-2.9,2.8-4.9,2.8H19.3V112h8.5v-11.3h-8.5V89.3h8.5V77.9h-8.5V66.6h8.5V55.3h-8.5V22.7h42.5l4.9,8.5h122.6v24.1h-8.5v11.3
			h8.5v11.3h-8.5v11.3h8.5v11.3h-8.5V112h8.5v32.6H150.2z"/>
	</g>
	<g id="CIRCLE_00000070092071406092029300000008368177357343212690_">
		<circle class="st0" cx="32.1" cy="35.4" r="6.2"/>
	</g>
	<g id="LWPOLYLINE_00000001664926467069345870000015202551132942011009_">
		<rect x="98.7" y="110.5" class="st0" width="11.3" height="8.5"/>
	</g>
	<g id="LWPOLYLINE_00000141452321374158322350000001492307454796199309_">
		<rect x="121.4" y="110.5" class="st0" width="11.3" height="8.5"/>
	</g>
	<g id="LWPOLYLINE_00000030452400565093663340000002394242954696048020_">
		<rect x="76" y="110.5" class="st0" width="11.3" height="8.5"/>
	</g>
</g>
<g>
	<g id="LWPOLYLINE_00000072260037622808025310000016604734218651158164_">
		<path class="st0" d="M238.6,144.6c2,0,3.9-1.1,4.9-2.8l6.5-11.3c1-1.8,2.9-2.8,4.9-2.8h58.9c2,0,3.9,1.1,4.9,2.8l6.5,11.3
			c1,1.8,2.9,2.8,4.9,2.8h39.2V112h-8.5v-11.3h8.5V89.3h-8.5V77.9h8.5V66.6h-8.5V55.3h8.5V22.7h-42.5l-4.9,8.5H199.3v24.1h8.5v11.3
			h-8.5v11.3h8.5v11.3h-8.5v11.3h8.5V112h-8.5v32.6H238.6z"/>
	</g>
	<g id="CIRCLE_00000150065110038722758780000017525619803788381112_">
		<circle class="st0" cx="356.7" cy="35.4" r="6.2"/>
	</g>
	<g id="LWPOLYLINE_00000042733012776428925550000011861948290162939047_">
		<rect x="278.7" y="110.5" class="st0" width="11.3" height="8.5"/>
	</g>
	<g id="LWPOLYLINE_00000104685355384278096170000000421474448536859808_">
		<rect x="256" y="110.5" class="st0" width="11.3" height="8.5"/>
	</g>
	<g id="LWPOLYLINE_00000035526295004351714600000003417123028086787465_">
		<rect x="301.4" y="110.5" class="st0" width="11.3" height="8.5"/>
	</g>
</g>
</svg>
