<?xml version="1.0" standalone="no"?>
<svg xmlns:xlink="http://www.w3.org/1999/xlink" id="wave" style="transform:rotate(0deg); transition: 0.3s" viewBox="0 0 1440 300" version="1.1" xmlns="http://www.w3.org/2000/svg"><defs><linearGradient id="sw-gradient-0" x1="0" x2="0" y1="1" y2="0"><stop stop-color="rgba(75.543, 45.811, 241.766, 0.87)" offset="0%"/><stop stop-color="rgba(150.535, 212.536, 255, 1)" offset="100%"/></linearGradient></defs><path style="transform:translate(0, 0px); opacity:1" fill="url(#sw-gradient-0)" d="M0,240L60,210C120,180,240,120,360,100C480,80,600,100,720,135C840,170,960,220,1080,245C1200,270,1320,270,1440,235C1560,200,1680,130,1800,95C1920,60,2040,60,2160,75C2280,90,2400,120,2520,120C2640,120,2760,90,2880,105C3000,120,3120,180,3240,205C3360,230,3480,220,3600,210C3720,200,3840,190,3960,175C4080,160,4200,140,4320,125C4440,110,4560,100,4680,90C4800,80,4920,70,5040,65C5160,60,5280,60,5400,50C5520,40,5640,20,5760,15C5880,10,6000,20,6120,55C6240,90,6360,150,6480,180C6600,210,6720,210,6840,210C6960,210,7080,210,7200,175C7320,140,7440,70,7560,60C7680,50,7800,100,7920,110C8040,120,8160,90,8280,70C8400,50,8520,40,8580,35L8640,30L8640,300L8580,300C8520,300,8400,300,8280,300C8160,300,8040,300,7920,300C7800,300,7680,300,7560,300C7440,300,7320,300,7200,300C7080,300,6960,300,6840,300C6720,300,6600,300,6480,300C6360,300,6240,300,6120,300C6000,300,5880,300,5760,300C5640,300,5520,300,5400,300C5280,300,5160,300,5040,300C4920,300,4800,300,4680,300C4560,300,4440,300,4320,300C4200,300,4080,300,3960,300C3840,300,3720,300,3600,300C3480,300,3360,300,3240,300C3120,300,3000,300,2880,300C2760,300,2640,300,2520,300C2400,300,2280,300,2160,300C2040,300,1920,300,1800,300C1680,300,1560,300,1440,300C1320,300,1200,300,1080,300C960,300,840,300,720,300C600,300,480,300,360,300C240,300,120,300,60,300L0,300Z"/><defs><linearGradient id="sw-gradient-1" x1="0" x2="0" y1="1" y2="0"><stop stop-color="rgba(177.474, 138.333, 248.597, 0.85)" offset="0%"/><stop stop-color="rgba(58.396, 175.082, 255, 0.8)" offset="100%"/></linearGradient></defs><path style="transform:translate(0, 50px); opacity:0.9" fill="url(#sw-gradient-1)" d="M0,150L60,155C120,160,240,170,360,180C480,190,600,200,720,175C840,150,960,90,1080,90C1200,90,1320,150,1440,190C1560,230,1680,250,1800,245C1920,240,2040,210,2160,195C2280,180,2400,180,2520,195C2640,210,2760,240,2880,235C3000,230,3120,190,3240,155C3360,120,3480,90,3600,90C3720,90,3840,120,3960,145C4080,170,4200,190,4320,165C4440,140,4560,70,4680,40C4800,10,4920,20,5040,45C5160,70,5280,110,5400,120C5520,130,5640,110,5760,105C5880,100,6000,110,6120,110C6240,110,6360,100,6480,115C6600,130,6720,170,6840,185C6960,200,7080,190,7200,200C7320,210,7440,240,7560,245C7680,250,7800,230,7920,225C8040,220,8160,230,8280,215C8400,200,8520,160,8580,140L8640,120L8640,300L8580,300C8520,300,8400,300,8280,300C8160,300,8040,300,7920,300C7800,300,7680,300,7560,300C7440,300,7320,300,7200,300C7080,300,6960,300,6840,300C6720,300,6600,300,6480,300C6360,300,6240,300,6120,300C6000,300,5880,300,5760,300C5640,300,5520,300,5400,300C5280,300,5160,300,5040,300C4920,300,4800,300,4680,300C4560,300,4440,300,4320,300C4200,300,4080,300,3960,300C3840,300,3720,300,3600,300C3480,300,3360,300,3240,300C3120,300,3000,300,2880,300C2760,300,2640,300,2520,300C2400,300,2280,300,2160,300C2040,300,1920,300,1800,300C1680,300,1560,300,1440,300C1320,300,1200,300,1080,300C960,300,840,300,720,300C600,300,480,300,360,300C240,300,120,300,60,300L0,300Z"/></svg>