<svg id="_0" data-name="0" xmlns="http://www.w3.org/2000/svg" viewBox="0 0 404.93 374.88"><defs><style>.cls-1{fill:none;stroke:#000;stroke-linecap:round;stroke-linejoin:round;stroke-width:0.71px;}</style></defs><g id="LWPOLYLINE"><rect class="cls-1" x="0.35" y="0.35" width="8.5" height="170.08"/></g><g id="LWPOLYLINE-2" data-name="LWPOLYLINE"><rect class="cls-1" x="13.11" y="0.35" width="8.5" height="170.08"/></g><g id="LWPOLYLINE-3" data-name="LWPOLYLINE"><rect class="cls-1" x="89.65" y="0.35" width="8.5" height="170.08"/></g><g id="LWPOLYLINE-4" data-name="LWPOLYLINE"><rect class="cls-1" x="76.89" y="0.35" width="8.5" height="170.08"/></g><g id="LWPOLYLINE-5" data-name="LWPOLYLINE"><rect class="cls-1" x="64.13" y="0.35" width="8.5" height="170.08"/></g><g id="LWPOLYLINE-6" data-name="LWPOLYLINE"><rect class="cls-1" x="51.38" y="0.35" width="8.5" height="170.08"/></g><g id="LWPOLYLINE-7" data-name="LWPOLYLINE"><rect class="cls-1" x="38.62" y="0.35" width="8.5" height="170.08"/></g><g id="LWPOLYLINE-8" data-name="LWPOLYLINE"><rect class="cls-1" x="25.87" y="0.35" width="8.5" height="170.08"/></g><g id="LWPOLYLINE-9" data-name="LWPOLYLINE"><rect class="cls-1" x="102.4" y="0.35" width="8.5" height="170.08"/></g><g id="LWPOLYLINE-10" data-name="LWPOLYLINE"><rect class="cls-1" x="115.16" y="0.35" width="8.5" height="170.08"/></g><g id="LWPOLYLINE-11" data-name="LWPOLYLINE"><rect class="cls-1" x="191.69" y="0.35" width="8.5" height="170.08"/></g><g id="LWPOLYLINE-12" data-name="LWPOLYLINE"><rect class="cls-1" x="178.94" y="0.35" width="8.5" height="170.08"/></g><g id="LWPOLYLINE-13" data-name="LWPOLYLINE"><rect class="cls-1" x="166.18" y="0.35" width="8.5" height="170.08"/></g><g id="LWPOLYLINE-14" data-name="LWPOLYLINE"><rect class="cls-1" x="153.43" y="0.35" width="8.5" height="170.08"/></g><g id="LWPOLYLINE-15" data-name="LWPOLYLINE"><rect class="cls-1" x="140.67" y="0.35" width="8.5" height="170.08"/></g><g id="LWPOLYLINE-16" data-name="LWPOLYLINE"><rect class="cls-1" x="127.91" y="0.35" width="8.5" height="170.08"/></g><g id="LWPOLYLINE-17" data-name="LWPOLYLINE"><rect class="cls-1" x="0.35" y="174.4" width="8.5" height="170.08"/></g><g id="LWPOLYLINE-18" data-name="LWPOLYLINE"><rect class="cls-1" x="13.11" y="174.4" width="8.5" height="170.08"/></g><g id="LWPOLYLINE-19" data-name="LWPOLYLINE"><rect class="cls-1" x="89.65" y="174.4" width="8.5" height="170.08"/></g><g id="LWPOLYLINE-20" data-name="LWPOLYLINE"><rect class="cls-1" x="76.89" y="174.4" width="8.5" height="170.08"/></g><g id="LWPOLYLINE-21" data-name="LWPOLYLINE"><rect class="cls-1" x="64.13" y="174.4" width="8.5" height="170.08"/></g><g id="LWPOLYLINE-22" data-name="LWPOLYLINE"><rect class="cls-1" x="51.38" y="174.4" width="8.5" height="170.08"/></g><g id="LWPOLYLINE-23" data-name="LWPOLYLINE"><rect class="cls-1" x="38.62" y="174.4" width="8.5" height="170.08"/></g><g id="LWPOLYLINE-24" data-name="LWPOLYLINE"><rect class="cls-1" x="25.87" y="174.4" width="8.5" height="170.08"/></g><g id="LWPOLYLINE-25" data-name="LWPOLYLINE"><rect class="cls-1" x="102.4" y="174.4" width="8.5" height="170.08"/></g><g id="LWPOLYLINE-26" data-name="LWPOLYLINE"><rect class="cls-1" x="115.16" y="174.4" width="8.5" height="170.08"/></g><g id="LWPOLYLINE-27" data-name="LWPOLYLINE"><rect class="cls-1" x="191.69" y="174.4" width="8.5" height="170.08"/></g><g id="LWPOLYLINE-28" data-name="LWPOLYLINE"><rect class="cls-1" x="178.94" y="174.4" width="8.5" height="170.08"/></g><g id="LWPOLYLINE-29" data-name="LWPOLYLINE"><rect class="cls-1" x="166.18" y="174.4" width="8.5" height="170.08"/></g><g id="LWPOLYLINE-30" data-name="LWPOLYLINE"><rect class="cls-1" x="153.43" y="174.4" width="8.5" height="170.08"/></g><g id="LWPOLYLINE-31" data-name="LWPOLYLINE"><rect class="cls-1" x="140.67" y="174.4" width="8.5" height="170.08"/></g><g id="LWPOLYLINE-32" data-name="LWPOLYLINE"><rect class="cls-1" x="127.91" y="174.4" width="8.5" height="170.08"/></g><g id="LWPOLYLINE-33" data-name="LWPOLYLINE"><rect class="cls-1" x="204.73" y="30.4" width="8.5" height="170.08"/></g><g id="LWPOLYLINE-34" data-name="LWPOLYLINE"><rect class="cls-1" x="217.49" y="30.4" width="8.5" height="170.08"/></g><g id="LWPOLYLINE-35" data-name="LWPOLYLINE"><rect class="cls-1" x="294.02" y="30.4" width="8.5" height="170.08"/></g><g id="LWPOLYLINE-36" data-name="LWPOLYLINE"><rect class="cls-1" x="281.27" y="30.4" width="8.5" height="170.08"/></g><g id="LWPOLYLINE-37" data-name="LWPOLYLINE"><rect class="cls-1" x="268.51" y="30.4" width="8.5" height="170.08"/></g><g id="LWPOLYLINE-38" data-name="LWPOLYLINE"><rect class="cls-1" x="255.76" y="30.4" width="8.5" height="170.08"/></g><g id="LWPOLYLINE-39" data-name="LWPOLYLINE"><rect class="cls-1" x="243" y="30.4" width="8.5" height="170.08"/></g><g id="LWPOLYLINE-40" data-name="LWPOLYLINE"><rect class="cls-1" x="230.24" y="30.4" width="8.5" height="170.08"/></g><g id="LWPOLYLINE-41" data-name="LWPOLYLINE"><rect class="cls-1" x="306.78" y="30.4" width="8.5" height="170.08"/></g><g id="LWPOLYLINE-42" data-name="LWPOLYLINE"><rect class="cls-1" x="319.54" y="30.4" width="8.5" height="170.08"/></g><g id="LWPOLYLINE-43" data-name="LWPOLYLINE"><rect class="cls-1" x="396.07" y="30.4" width="8.5" height="170.08"/></g><g id="LWPOLYLINE-44" data-name="LWPOLYLINE"><rect class="cls-1" x="383.31" y="30.4" width="8.5" height="170.08"/></g><g id="LWPOLYLINE-45" data-name="LWPOLYLINE"><rect class="cls-1" x="370.56" y="30.4" width="8.5" height="170.08"/></g><g id="LWPOLYLINE-46" data-name="LWPOLYLINE"><rect class="cls-1" x="357.8" y="30.4" width="8.5" height="170.08"/></g><g id="LWPOLYLINE-47" data-name="LWPOLYLINE"><rect class="cls-1" x="345.05" y="30.4" width="8.5" height="170.08"/></g><g id="LWPOLYLINE-48" data-name="LWPOLYLINE"><rect class="cls-1" x="332.29" y="30.4" width="8.5" height="170.08"/></g><g id="LWPOLYLINE-49" data-name="LWPOLYLINE"><rect class="cls-1" x="204.73" y="204.45" width="8.5" height="170.08"/></g><g id="LWPOLYLINE-50" data-name="LWPOLYLINE"><rect class="cls-1" x="217.49" y="204.45" width="8.5" height="170.08"/></g><g id="LWPOLYLINE-51" data-name="LWPOLYLINE"><rect class="cls-1" x="294.02" y="204.45" width="8.5" height="170.08"/></g><g id="LWPOLYLINE-52" data-name="LWPOLYLINE"><rect class="cls-1" x="281.27" y="204.45" width="8.5" height="170.08"/></g><g id="LWPOLYLINE-53" data-name="LWPOLYLINE"><rect class="cls-1" x="268.51" y="204.45" width="8.5" height="170.08"/></g><g id="LWPOLYLINE-54" data-name="LWPOLYLINE"><rect class="cls-1" x="255.76" y="204.45" width="8.5" height="170.08"/></g><g id="LWPOLYLINE-55" data-name="LWPOLYLINE"><rect class="cls-1" x="243" y="204.45" width="8.5" height="170.08"/></g><g id="LWPOLYLINE-56" data-name="LWPOLYLINE"><rect class="cls-1" x="230.24" y="204.45" width="8.5" height="170.08"/></g><g id="LWPOLYLINE-57" data-name="LWPOLYLINE"><rect class="cls-1" x="306.78" y="204.45" width="8.5" height="170.08"/></g><g id="LWPOLYLINE-58" data-name="LWPOLYLINE"><rect class="cls-1" x="319.54" y="204.45" width="8.5" height="170.08"/></g><g id="LWPOLYLINE-59" data-name="LWPOLYLINE"><rect class="cls-1" x="396.07" y="204.45" width="8.5" height="170.08"/></g><g id="LWPOLYLINE-60" data-name="LWPOLYLINE"><rect class="cls-1" x="383.31" y="204.45" width="8.5" height="170.08"/></g><g id="LWPOLYLINE-61" data-name="LWPOLYLINE"><rect class="cls-1" x="370.56" y="204.45" width="8.5" height="170.08"/></g><g id="LWPOLYLINE-62" data-name="LWPOLYLINE"><rect class="cls-1" x="357.8" y="204.45" width="8.5" height="170.08"/></g><g id="LWPOLYLINE-63" data-name="LWPOLYLINE"><rect class="cls-1" x="345.05" y="204.45" width="8.5" height="170.08"/></g><g id="LWPOLYLINE-64" data-name="LWPOLYLINE"><rect class="cls-1" x="332.29" y="204.45" width="8.5" height="170.08"/></g></svg>