<svg id="_0" data-name="0" xmlns="http://www.w3.org/2000/svg" viewBox="0 0 490.54 462.76"><defs><style>.cls-1{fill:none;stroke:#000;stroke-linecap:round;stroke-linejoin:round;stroke-width:0.71px;}</style></defs><g id="LWPOLYLINE"><rect class="cls-1" x="32.81" y="168.22" width="8.5" height="8.5"/></g><g id="LWPOLYLINE-2" data-name="LWPOLYLINE"><rect class="cls-1" x="56.7" y="168.22" width="8.5" height="8.5"/></g><g id="LWPOLYLINE-3" data-name="LWPOLYLINE"><rect class="cls-1" x="80.6" y="168.22" width="8.5" height="8.5"/></g><g id="LWPOLYLINE-4" data-name="LWPOLYLINE"><rect class="cls-1" x="104.49" y="168.22" width="8.5" height="8.5"/></g><g id="LWPOLYLINE-5" data-name="LWPOLYLINE"><rect class="cls-1" x="128.38" y="168.22" width="8.5" height="8.5"/></g><g id="LWPOLYLINE-6" data-name="LWPOLYLINE"><rect class="cls-1" x="152.27" y="168.22" width="8.5" height="8.5"/></g><g id="LWPOLYLINE-7" data-name="LWPOLYLINE"><rect class="cls-1" x="176.16" y="168.22" width="8.5" height="8.5"/></g><g id="LWPOLYLINE-8" data-name="LWPOLYLINE"><rect class="cls-1" x="200.06" y="168.22" width="8.5" height="8.5"/></g><g id="LWPOLYLINE-9" data-name="LWPOLYLINE"><rect class="cls-1" x="32.81" y="191.31" width="8.5" height="8.5"/></g><g id="LWPOLYLINE-10" data-name="LWPOLYLINE"><rect class="cls-1" x="56.7" y="191.31" width="8.5" height="8.5"/></g><g id="LWPOLYLINE-11" data-name="LWPOLYLINE"><rect class="cls-1" x="80.6" y="191.31" width="8.5" height="8.5"/></g><g id="LWPOLYLINE-12" data-name="LWPOLYLINE"><rect class="cls-1" x="104.49" y="191.31" width="8.5" height="8.5"/></g><g id="LWPOLYLINE-13" data-name="LWPOLYLINE"><rect class="cls-1" x="128.38" y="191.31" width="8.5" height="8.5"/></g><g id="LWPOLYLINE-14" data-name="LWPOLYLINE"><rect class="cls-1" x="152.27" y="191.31" width="8.5" height="8.5"/></g><g id="LWPOLYLINE-15" data-name="LWPOLYLINE"><rect class="cls-1" x="176.16" y="191.31" width="8.5" height="8.5"/></g><g id="LWPOLYLINE-16" data-name="LWPOLYLINE"><rect class="cls-1" x="200.06" y="191.31" width="8.5" height="8.5"/></g><g id="LWPOLYLINE-17" data-name="LWPOLYLINE"><rect class="cls-1" x="32.81" y="214.39" width="8.5" height="8.5"/></g><g id="LWPOLYLINE-18" data-name="LWPOLYLINE"><rect class="cls-1" x="56.7" y="214.39" width="8.5" height="8.5"/></g><g id="LWPOLYLINE-19" data-name="LWPOLYLINE"><rect class="cls-1" x="80.6" y="214.39" width="8.5" height="8.5"/></g><g id="LWPOLYLINE-20" data-name="LWPOLYLINE"><rect class="cls-1" x="104.49" y="214.39" width="8.5" height="8.5"/></g><g id="LWPOLYLINE-21" data-name="LWPOLYLINE"><rect class="cls-1" x="128.38" y="214.39" width="8.5" height="8.5"/></g><g id="LWPOLYLINE-22" data-name="LWPOLYLINE"><rect class="cls-1" x="152.27" y="214.39" width="8.5" height="8.5"/></g><g id="LWPOLYLINE-23" data-name="LWPOLYLINE"><rect class="cls-1" x="176.16" y="214.39" width="8.5" height="8.5"/></g><g id="LWPOLYLINE-24" data-name="LWPOLYLINE"><rect class="cls-1" x="200.06" y="214.39" width="8.5" height="8.5"/></g><g id="LWPOLYLINE-25" data-name="LWPOLYLINE"><rect class="cls-1" x="32.81" y="237.47" width="8.5" height="8.5"/></g><g id="LWPOLYLINE-26" data-name="LWPOLYLINE"><rect class="cls-1" x="56.7" y="237.47" width="8.5" height="8.5"/></g><g id="LWPOLYLINE-27" data-name="LWPOLYLINE"><rect class="cls-1" x="80.6" y="237.47" width="8.5" height="8.5"/></g><g id="LWPOLYLINE-28" data-name="LWPOLYLINE"><rect class="cls-1" x="104.49" y="237.47" width="8.5" height="8.5"/></g><g id="LWPOLYLINE-29" data-name="LWPOLYLINE"><rect class="cls-1" x="128.38" y="237.47" width="8.5" height="8.5"/></g><g id="LWPOLYLINE-30" data-name="LWPOLYLINE"><rect class="cls-1" x="152.27" y="237.47" width="8.5" height="8.5"/></g><g id="LWPOLYLINE-31" data-name="LWPOLYLINE"><rect class="cls-1" x="176.16" y="237.47" width="8.5" height="8.5"/></g><g id="LWPOLYLINE-32" data-name="LWPOLYLINE"><rect class="cls-1" x="200.06" y="237.47" width="8.5" height="8.5"/></g><g id="LWPOLYLINE-33" data-name="LWPOLYLINE"><rect class="cls-1" x="32.81" y="260.55" width="8.5" height="8.5"/></g><g id="LWPOLYLINE-34" data-name="LWPOLYLINE"><rect class="cls-1" x="56.7" y="260.55" width="8.5" height="8.5"/></g><g id="LWPOLYLINE-35" data-name="LWPOLYLINE"><rect class="cls-1" x="80.6" y="260.55" width="8.5" height="8.5"/></g><g id="LWPOLYLINE-36" data-name="LWPOLYLINE"><rect class="cls-1" x="104.49" y="260.55" width="8.5" height="8.5"/></g><g id="LWPOLYLINE-37" data-name="LWPOLYLINE"><rect class="cls-1" x="128.38" y="260.55" width="8.5" height="8.5"/></g><g id="LWPOLYLINE-38" data-name="LWPOLYLINE"><rect class="cls-1" x="152.27" y="260.55" width="8.5" height="8.5"/></g><g id="LWPOLYLINE-39" data-name="LWPOLYLINE"><rect class="cls-1" x="176.16" y="260.55" width="8.5" height="8.5"/></g><g id="LWPOLYLINE-40" data-name="LWPOLYLINE"><rect class="cls-1" x="200.06" y="260.55" width="8.5" height="8.5"/></g><g id="LWPOLYLINE-41" data-name="LWPOLYLINE"><rect class="cls-1" x="32.81" y="283.63" width="8.5" height="8.5"/></g><g id="LWPOLYLINE-42" data-name="LWPOLYLINE"><rect class="cls-1" x="56.7" y="283.63" width="8.5" height="8.5"/></g><g id="LWPOLYLINE-43" data-name="LWPOLYLINE"><rect class="cls-1" x="80.6" y="283.63" width="8.5" height="8.5"/></g><g id="LWPOLYLINE-44" data-name="LWPOLYLINE"><rect class="cls-1" x="104.49" y="283.63" width="8.5" height="8.5"/></g><g id="LWPOLYLINE-45" data-name="LWPOLYLINE"><rect class="cls-1" x="128.38" y="283.63" width="8.5" height="8.5"/></g><g id="LWPOLYLINE-46" data-name="LWPOLYLINE"><rect class="cls-1" x="152.27" y="283.63" width="8.5" height="8.5"/></g><g id="LWPOLYLINE-47" data-name="LWPOLYLINE"><rect class="cls-1" x="176.16" y="283.63" width="8.5" height="8.5"/></g><g id="LWPOLYLINE-48" data-name="LWPOLYLINE"><rect class="cls-1" x="200.06" y="283.63" width="8.5" height="8.5"/></g><g id="LWPOLYLINE-49" data-name="LWPOLYLINE"><rect class="cls-1" x="32.81" y="306.72" width="8.5" height="8.5"/></g><g id="LWPOLYLINE-50" data-name="LWPOLYLINE"><rect class="cls-1" x="56.7" y="306.72" width="8.5" height="8.5"/></g><g id="LWPOLYLINE-51" data-name="LWPOLYLINE"><rect class="cls-1" x="80.6" y="306.72" width="8.5" height="8.5"/></g><g id="LWPOLYLINE-52" data-name="LWPOLYLINE"><rect class="cls-1" x="104.49" y="306.72" width="8.5" height="8.5"/></g><g id="LWPOLYLINE-53" data-name="LWPOLYLINE"><rect class="cls-1" x="128.38" y="306.72" width="8.5" height="8.5"/></g><g id="LWPOLYLINE-54" data-name="LWPOLYLINE"><rect class="cls-1" x="152.27" y="306.72" width="8.5" height="8.5"/></g><g id="LWPOLYLINE-55" data-name="LWPOLYLINE"><rect class="cls-1" x="176.16" y="306.72" width="8.5" height="8.5"/></g><g id="LWPOLYLINE-56" data-name="LWPOLYLINE"><rect class="cls-1" x="200.06" y="306.72" width="8.5" height="8.5"/></g><g id="LWPOLYLINE-57" data-name="LWPOLYLINE"><rect class="cls-1" x="32.81" y="329.8" width="8.5" height="8.5"/></g><g id="LWPOLYLINE-58" data-name="LWPOLYLINE"><rect class="cls-1" x="56.7" y="329.8" width="8.5" height="8.5"/></g><g id="LWPOLYLINE-59" data-name="LWPOLYLINE"><rect class="cls-1" x="80.6" y="329.8" width="8.5" height="8.5"/></g><g id="LWPOLYLINE-60" data-name="LWPOLYLINE"><rect class="cls-1" x="104.49" y="329.8" width="8.5" height="8.5"/></g><g id="LWPOLYLINE-61" data-name="LWPOLYLINE"><rect class="cls-1" x="128.38" y="329.8" width="8.5" height="8.5"/></g><g id="LWPOLYLINE-62" data-name="LWPOLYLINE"><rect class="cls-1" x="152.27" y="329.8" width="8.5" height="8.5"/></g><g id="LWPOLYLINE-63" data-name="LWPOLYLINE"><rect class="cls-1" x="176.16" y="329.8" width="8.5" height="8.5"/></g><g id="LWPOLYLINE-64" data-name="LWPOLYLINE"><rect class="cls-1" x="200.06" y="329.8" width="8.5" height="8.5"/></g><g id="LWPOLYLINE-65" data-name="LWPOLYLINE"><rect class="cls-1" x="154.7" y="97.36" width="39.69" height="39.69"/></g><g id="LWPOLYLINE-66" data-name="LWPOLYLINE"><rect class="cls-1" x="46.98" y="97.36" width="39.69" height="39.69"/></g><g id="LWPOLYLINE-67" data-name="LWPOLYLINE"><rect class="cls-1" x="100.84" y="97.36" width="39.69" height="39.69"/></g><g id="CIRCLE"><circle class="cls-1" cx="226.84" cy="154.05" r="4.39"/></g><g id="CIRCLE-2" data-name="CIRCLE"><circle class="cls-1" cx="14.53" cy="352.47" r="4.39"/></g><g id="CIRCLE-3" data-name="CIRCLE"><circle class="cls-1" cx="14.53" cy="154.05" r="4.39"/></g><g id="CIRCLE-4" data-name="CIRCLE"><circle class="cls-1" cx="226.84" cy="352.47" r="4.39"/></g><g id="SPLINE"><rect class="cls-1" x="0.35" y="83.18" width="240.66" height="283.46" rx="14.17"/></g><g id="SPLINE-2" data-name="SPLINE"><path class="cls-1" d="M499.2,54.12a2.84,2.84,0,0,1,2-.83h13a14.18,14.18,0,0,1,14.18,14.18V265.89a14.17,14.17,0,0,1-14.18,14.17H301.89a14.16,14.16,0,0,1-14.17-14.17V67.47a14.17,14.17,0,0,1,14.17-14.18h13a2.83,2.83,0,0,1,2,.83l12.52,12.51a2.8,2.8,0,0,0,2,.84H484.68a2.81,2.81,0,0,0,2-.84Z" transform="translate(-38.2 -52.94)"/></g><g id="LWPOLYLINE-68" data-name="LWPOLYLINE"><rect class="cls-1" x="377.54" y="28.7" width="8.5" height="8.5"/></g><g id="LWPOLYLINE-69" data-name="LWPOLYLINE"><rect class="cls-1" x="353.65" y="190.28" width="8.5" height="8.5"/></g><g id="LWPOLYLINE-70" data-name="LWPOLYLINE"><rect class="cls-1" x="329.76" y="190.28" width="8.5" height="8.5"/></g><g id="LWPOLYLINE-71" data-name="LWPOLYLINE"><rect class="cls-1" x="377.54" y="74.87" width="8.5" height="8.5"/></g><g id="LWPOLYLINE-72" data-name="LWPOLYLINE"><rect class="cls-1" x="281.98" y="74.87" width="8.5" height="8.5"/></g><g id="CIRCLE-5" data-name="CIRCLE"><circle class="cls-1" cx="263.69" cy="14.53" r="4.39"/></g><g id="LWPOLYLINE-73" data-name="LWPOLYLINE"><rect class="cls-1" x="305.87" y="190.28" width="8.5" height="8.5"/></g><g id="CIRCLE-6" data-name="CIRCLE"><circle class="cls-1" cx="476.01" cy="212.95" r="4.39"/></g><g id="LWPOLYLINE-74" data-name="LWPOLYLINE"><rect class="cls-1" x="449.22" y="190.28" width="8.5" height="8.5"/></g><g id="LWPOLYLINE-75" data-name="LWPOLYLINE"><rect class="cls-1" x="401.44" y="190.28" width="8.5" height="8.5"/></g><g id="CIRCLE-7" data-name="CIRCLE"><circle class="cls-1" cx="263.69" cy="212.95" r="4.39"/></g><g id="LWPOLYLINE-76" data-name="LWPOLYLINE"><rect class="cls-1" x="449.22" y="51.78" width="8.5" height="8.5"/></g><g id="LWPOLYLINE-77" data-name="LWPOLYLINE"><rect class="cls-1" x="425.33" y="190.28" width="8.5" height="8.5"/></g><g id="LWPOLYLINE-78" data-name="LWPOLYLINE"><rect class="cls-1" x="377.54" y="190.28" width="8.5" height="8.5"/></g><g id="LWPOLYLINE-79" data-name="LWPOLYLINE"><rect class="cls-1" x="425.33" y="51.78" width="8.5" height="8.5"/></g><g id="CIRCLE-8" data-name="CIRCLE"><circle class="cls-1" cx="476.01" cy="14.53" r="4.39"/></g><g id="LWPOLYLINE-80" data-name="LWPOLYLINE"><rect class="cls-1" x="425.33" y="74.87" width="8.5" height="8.5"/></g><g id="LWPOLYLINE-81" data-name="LWPOLYLINE"><rect class="cls-1" x="281.98" y="28.7" width="8.5" height="8.5"/></g><g id="LWPOLYLINE-82" data-name="LWPOLYLINE"><rect class="cls-1" x="329.76" y="74.87" width="8.5" height="8.5"/></g><g id="LWPOLYLINE-83" data-name="LWPOLYLINE"><rect class="cls-1" x="353.65" y="74.87" width="8.5" height="8.5"/></g><g id="LWPOLYLINE-84" data-name="LWPOLYLINE"><rect class="cls-1" x="401.44" y="51.78" width="8.5" height="8.5"/></g><g id="LWPOLYLINE-85" data-name="LWPOLYLINE"><rect class="cls-1" x="305.87" y="74.87" width="8.5" height="8.5"/></g><g id="LWPOLYLINE-86" data-name="LWPOLYLINE"><rect class="cls-1" x="401.44" y="74.87" width="8.5" height="8.5"/></g><g id="LWPOLYLINE-87" data-name="LWPOLYLINE"><rect class="cls-1" x="305.87" y="28.7" width="8.5" height="8.5"/></g><g id="LWPOLYLINE-88" data-name="LWPOLYLINE"><rect class="cls-1" x="329.76" y="28.7" width="8.5" height="8.5"/></g><g id="LWPOLYLINE-89" data-name="LWPOLYLINE"><rect class="cls-1" x="353.65" y="28.7" width="8.5" height="8.5"/></g><g id="LWPOLYLINE-90" data-name="LWPOLYLINE"><rect class="cls-1" x="401.44" y="28.7" width="8.5" height="8.5"/></g><g id="LWPOLYLINE-91" data-name="LWPOLYLINE"><rect class="cls-1" x="425.33" y="28.7" width="8.5" height="8.5"/></g><g id="LWPOLYLINE-92" data-name="LWPOLYLINE"><rect class="cls-1" x="449.22" y="28.7" width="8.5" height="8.5"/></g><g id="LWPOLYLINE-93" data-name="LWPOLYLINE"><rect class="cls-1" x="281.98" y="51.78" width="8.5" height="8.5"/></g><g id="LWPOLYLINE-94" data-name="LWPOLYLINE"><rect class="cls-1" x="305.87" y="51.78" width="8.5" height="8.5"/></g><g id="LWPOLYLINE-95" data-name="LWPOLYLINE"><rect class="cls-1" x="329.76" y="51.78" width="8.5" height="8.5"/></g><g id="LWPOLYLINE-96" data-name="LWPOLYLINE"><rect class="cls-1" x="353.65" y="51.78" width="8.5" height="8.5"/></g><g id="LWPOLYLINE-97" data-name="LWPOLYLINE"><rect class="cls-1" x="377.54" y="51.78" width="8.5" height="8.5"/></g><g id="LWPOLYLINE-98" data-name="LWPOLYLINE"><rect class="cls-1" x="449.22" y="74.87" width="8.5" height="8.5"/></g><g id="LWPOLYLINE-99" data-name="LWPOLYLINE"><rect class="cls-1" x="305.87" y="167.19" width="8.5" height="8.5"/></g><g id="LWPOLYLINE-100" data-name="LWPOLYLINE"><rect class="cls-1" x="425.33" y="167.19" width="8.5" height="8.5"/></g><g id="LWPOLYLINE-101" data-name="LWPOLYLINE"><rect class="cls-1" x="353.65" y="97.95" width="8.5" height="8.5"/></g><g id="LWPOLYLINE-102" data-name="LWPOLYLINE"><rect class="cls-1" x="329.76" y="144.11" width="8.5" height="8.5"/></g><g id="LWPOLYLINE-103" data-name="LWPOLYLINE"><rect class="cls-1" x="401.44" y="167.19" width="8.5" height="8.5"/></g><g id="LWPOLYLINE-104" data-name="LWPOLYLINE"><rect class="cls-1" x="353.65" y="167.19" width="8.5" height="8.5"/></g><g id="LWPOLYLINE-105" data-name="LWPOLYLINE"><rect class="cls-1" x="329.76" y="167.19" width="8.5" height="8.5"/></g><g id="LWPOLYLINE-106" data-name="LWPOLYLINE"><rect class="cls-1" x="353.65" y="144.11" width="8.5" height="8.5"/></g><g id="LWPOLYLINE-107" data-name="LWPOLYLINE"><rect class="cls-1" x="377.54" y="144.11" width="8.5" height="8.5"/></g><g id="LWPOLYLINE-108" data-name="LWPOLYLINE"><rect class="cls-1" x="305.87" y="121.03" width="8.5" height="8.5"/></g><g id="LWPOLYLINE-109" data-name="LWPOLYLINE"><rect class="cls-1" x="449.22" y="144.11" width="8.5" height="8.5"/></g><g id="LWPOLYLINE-110" data-name="LWPOLYLINE"><rect class="cls-1" x="449.22" y="121.03" width="8.5" height="8.5"/></g><g id="LWPOLYLINE-111" data-name="LWPOLYLINE"><rect class="cls-1" x="329.76" y="97.95" width="8.5" height="8.5"/></g><g id="LWPOLYLINE-112" data-name="LWPOLYLINE"><rect class="cls-1" x="305.87" y="144.11" width="8.5" height="8.5"/></g><g id="LWPOLYLINE-113" data-name="LWPOLYLINE"><rect class="cls-1" x="281.98" y="121.03" width="8.5" height="8.5"/></g><g id="LWPOLYLINE-114" data-name="LWPOLYLINE"><rect class="cls-1" x="377.54" y="121.03" width="8.5" height="8.5"/></g><g id="LWPOLYLINE-115" data-name="LWPOLYLINE"><rect class="cls-1" x="281.98" y="144.11" width="8.5" height="8.5"/></g><g id="LWPOLYLINE-116" data-name="LWPOLYLINE"><rect class="cls-1" x="281.98" y="97.95" width="8.5" height="8.5"/></g><g id="LWPOLYLINE-117" data-name="LWPOLYLINE"><rect class="cls-1" x="281.98" y="167.19" width="8.5" height="8.5"/></g><g id="LWPOLYLINE-118" data-name="LWPOLYLINE"><rect class="cls-1" x="401.44" y="121.03" width="8.5" height="8.5"/></g><g id="LWPOLYLINE-119" data-name="LWPOLYLINE"><rect class="cls-1" x="401.44" y="144.11" width="8.5" height="8.5"/></g><g id="LWPOLYLINE-120" data-name="LWPOLYLINE"><rect class="cls-1" x="449.22" y="167.19" width="8.5" height="8.5"/></g><g id="LWPOLYLINE-121" data-name="LWPOLYLINE"><rect class="cls-1" x="449.22" y="97.95" width="8.5" height="8.5"/></g><g id="LWPOLYLINE-122" data-name="LWPOLYLINE"><rect class="cls-1" x="305.87" y="97.95" width="8.5" height="8.5"/></g><g id="LWPOLYLINE-123" data-name="LWPOLYLINE"><rect class="cls-1" x="425.33" y="121.03" width="8.5" height="8.5"/></g><g id="LWPOLYLINE-124" data-name="LWPOLYLINE"><rect class="cls-1" x="425.33" y="144.11" width="8.5" height="8.5"/></g><g id="LWPOLYLINE-125" data-name="LWPOLYLINE"><rect class="cls-1" x="377.54" y="167.19" width="8.5" height="8.5"/></g><g id="LWPOLYLINE-126" data-name="LWPOLYLINE"><rect class="cls-1" x="377.54" y="97.95" width="8.5" height="8.5"/></g><g id="LWPOLYLINE-127" data-name="LWPOLYLINE"><rect class="cls-1" x="401.44" y="97.95" width="8.5" height="8.5"/></g><g id="LWPOLYLINE-128" data-name="LWPOLYLINE"><rect class="cls-1" x="281.98" y="190.28" width="8.5" height="8.5"/></g><g id="LWPOLYLINE-129" data-name="LWPOLYLINE"><rect class="cls-1" x="353.65" y="121.03" width="8.5" height="8.5"/></g><g id="LWPOLYLINE-130" data-name="LWPOLYLINE"><rect class="cls-1" x="329.76" y="121.03" width="8.5" height="8.5"/></g><g id="LWPOLYLINE-131" data-name="LWPOLYLINE"><rect class="cls-1" x="425.33" y="97.95" width="8.5" height="8.5"/></g><g id="SPLINE-3" data-name="SPLINE"><path class="cls-1" d="M499.2,289.4a2.84,2.84,0,0,1,2-.83h13a14.17,14.17,0,0,1,14.18,14.17V501.17a14.18,14.18,0,0,1-14.18,14.17H301.89a14.17,14.17,0,0,1-14.17-14.17V302.74a14.16,14.16,0,0,1,14.17-14.17h13a2.83,2.83,0,0,1,2,.83l12.52,12.51a2.83,2.83,0,0,0,2,.83H484.68a2.84,2.84,0,0,0,2-.83Z" transform="translate(-38.2 -52.94)"/></g><g id="LWPOLYLINE-132" data-name="LWPOLYLINE"><rect class="cls-1" x="377.54" y="263.98" width="8.5" height="8.5"/></g><g id="LWPOLYLINE-133" data-name="LWPOLYLINE"><rect class="cls-1" x="353.65" y="425.55" width="8.5" height="8.5"/></g><g id="LWPOLYLINE-134" data-name="LWPOLYLINE"><rect class="cls-1" x="329.76" y="425.55" width="8.5" height="8.5"/></g><g id="LWPOLYLINE-135" data-name="LWPOLYLINE"><rect class="cls-1" x="377.54" y="310.14" width="8.5" height="8.5"/></g><g id="LWPOLYLINE-136" data-name="LWPOLYLINE"><rect class="cls-1" x="281.98" y="310.14" width="8.5" height="8.5"/></g><g id="CIRCLE-9" data-name="CIRCLE"><circle class="cls-1" cx="263.69" cy="249.8" r="4.39"/></g><g id="LWPOLYLINE-137" data-name="LWPOLYLINE"><rect class="cls-1" x="305.87" y="425.55" width="8.5" height="8.5"/></g><g id="CIRCLE-10" data-name="CIRCLE"><circle class="cls-1" cx="476.01" cy="448.23" r="4.39"/></g><g id="LWPOLYLINE-138" data-name="LWPOLYLINE"><rect class="cls-1" x="449.22" y="425.55" width="8.5" height="8.5"/></g><g id="LWPOLYLINE-139" data-name="LWPOLYLINE"><rect class="cls-1" x="401.44" y="425.55" width="8.5" height="8.5"/></g><g id="CIRCLE-11" data-name="CIRCLE"><circle class="cls-1" cx="263.69" cy="448.23" r="4.39"/></g><g id="LWPOLYLINE-140" data-name="LWPOLYLINE"><rect class="cls-1" x="449.22" y="287.06" width="8.5" height="8.5"/></g><g id="LWPOLYLINE-141" data-name="LWPOLYLINE"><rect class="cls-1" x="425.33" y="425.55" width="8.5" height="8.5"/></g><g id="LWPOLYLINE-142" data-name="LWPOLYLINE"><rect class="cls-1" x="377.54" y="425.55" width="8.5" height="8.5"/></g><g id="LWPOLYLINE-143" data-name="LWPOLYLINE"><rect class="cls-1" x="425.33" y="287.06" width="8.5" height="8.5"/></g><g id="CIRCLE-12" data-name="CIRCLE"><circle class="cls-1" cx="476.01" cy="249.8" r="4.39"/></g><g id="LWPOLYLINE-144" data-name="LWPOLYLINE"><rect class="cls-1" x="425.33" y="310.14" width="8.5" height="8.5"/></g><g id="LWPOLYLINE-145" data-name="LWPOLYLINE"><rect class="cls-1" x="281.98" y="263.98" width="8.5" height="8.5"/></g><g id="LWPOLYLINE-146" data-name="LWPOLYLINE"><rect class="cls-1" x="329.76" y="310.14" width="8.5" height="8.5"/></g><g id="LWPOLYLINE-147" data-name="LWPOLYLINE"><rect class="cls-1" x="353.65" y="310.14" width="8.5" height="8.5"/></g><g id="LWPOLYLINE-148" data-name="LWPOLYLINE"><rect class="cls-1" x="401.44" y="287.06" width="8.5" height="8.5"/></g><g id="LWPOLYLINE-149" data-name="LWPOLYLINE"><rect class="cls-1" x="305.87" y="310.14" width="8.5" height="8.5"/></g><g id="LWPOLYLINE-150" data-name="LWPOLYLINE"><rect class="cls-1" x="401.44" y="310.14" width="8.5" height="8.5"/></g><g id="LWPOLYLINE-151" data-name="LWPOLYLINE"><rect class="cls-1" x="305.87" y="263.98" width="8.5" height="8.5"/></g><g id="LWPOLYLINE-152" data-name="LWPOLYLINE"><rect class="cls-1" x="329.76" y="263.98" width="8.5" height="8.5"/></g><g id="LWPOLYLINE-153" data-name="LWPOLYLINE"><rect class="cls-1" x="353.65" y="263.98" width="8.5" height="8.5"/></g><g id="LWPOLYLINE-154" data-name="LWPOLYLINE"><rect class="cls-1" x="401.44" y="263.98" width="8.5" height="8.5"/></g><g id="LWPOLYLINE-155" data-name="LWPOLYLINE"><rect class="cls-1" x="425.33" y="263.98" width="8.5" height="8.5"/></g><g id="LWPOLYLINE-156" data-name="LWPOLYLINE"><rect class="cls-1" x="449.22" y="263.98" width="8.5" height="8.5"/></g><g id="LWPOLYLINE-157" data-name="LWPOLYLINE"><rect class="cls-1" x="281.98" y="287.06" width="8.5" height="8.5"/></g><g id="LWPOLYLINE-158" data-name="LWPOLYLINE"><rect class="cls-1" x="305.87" y="287.06" width="8.5" height="8.5"/></g><g id="LWPOLYLINE-159" data-name="LWPOLYLINE"><rect class="cls-1" x="329.76" y="287.06" width="8.5" height="8.5"/></g><g id="LWPOLYLINE-160" data-name="LWPOLYLINE"><rect class="cls-1" x="353.65" y="287.06" width="8.5" height="8.5"/></g><g id="LWPOLYLINE-161" data-name="LWPOLYLINE"><rect class="cls-1" x="377.54" y="287.06" width="8.5" height="8.5"/></g><g id="LWPOLYLINE-162" data-name="LWPOLYLINE"><rect class="cls-1" x="449.22" y="310.14" width="8.5" height="8.5"/></g><g id="LWPOLYLINE-163" data-name="LWPOLYLINE"><rect class="cls-1" x="305.87" y="402.47" width="8.5" height="8.5"/></g><g id="LWPOLYLINE-164" data-name="LWPOLYLINE"><rect class="cls-1" x="425.33" y="402.47" width="8.5" height="8.5"/></g><g id="LWPOLYLINE-165" data-name="LWPOLYLINE"><rect class="cls-1" x="353.65" y="333.22" width="8.5" height="8.5"/></g><g id="LWPOLYLINE-166" data-name="LWPOLYLINE"><rect class="cls-1" x="329.76" y="379.39" width="8.5" height="8.5"/></g><g id="LWPOLYLINE-167" data-name="LWPOLYLINE"><rect class="cls-1" x="401.44" y="402.47" width="8.5" height="8.5"/></g><g id="LWPOLYLINE-168" data-name="LWPOLYLINE"><rect class="cls-1" x="353.65" y="402.47" width="8.5" height="8.5"/></g><g id="LWPOLYLINE-169" data-name="LWPOLYLINE"><rect class="cls-1" x="329.76" y="402.47" width="8.5" height="8.5"/></g><g id="LWPOLYLINE-170" data-name="LWPOLYLINE"><rect class="cls-1" x="353.65" y="379.39" width="8.5" height="8.5"/></g><g id="LWPOLYLINE-171" data-name="LWPOLYLINE"><rect class="cls-1" x="377.54" y="379.39" width="8.5" height="8.5"/></g><g id="LWPOLYLINE-172" data-name="LWPOLYLINE"><rect class="cls-1" x="305.87" y="356.3" width="8.5" height="8.5"/></g><g id="LWPOLYLINE-173" data-name="LWPOLYLINE"><rect class="cls-1" x="449.22" y="379.39" width="8.5" height="8.5"/></g><g id="LWPOLYLINE-174" data-name="LWPOLYLINE"><rect class="cls-1" x="449.22" y="356.3" width="8.5" height="8.5"/></g><g id="LWPOLYLINE-175" data-name="LWPOLYLINE"><rect class="cls-1" x="329.76" y="333.22" width="8.5" height="8.5"/></g><g id="LWPOLYLINE-176" data-name="LWPOLYLINE"><rect class="cls-1" x="305.87" y="379.39" width="8.5" height="8.5"/></g><g id="LWPOLYLINE-177" data-name="LWPOLYLINE"><rect class="cls-1" x="281.98" y="356.3" width="8.5" height="8.5"/></g><g id="LWPOLYLINE-178" data-name="LWPOLYLINE"><rect class="cls-1" x="377.54" y="356.3" width="8.5" height="8.5"/></g><g id="LWPOLYLINE-179" data-name="LWPOLYLINE"><rect class="cls-1" x="281.98" y="379.39" width="8.5" height="8.5"/></g><g id="LWPOLYLINE-180" data-name="LWPOLYLINE"><rect class="cls-1" x="281.98" y="333.22" width="8.5" height="8.5"/></g><g id="LWPOLYLINE-181" data-name="LWPOLYLINE"><rect class="cls-1" x="281.98" y="402.47" width="8.5" height="8.5"/></g><g id="LWPOLYLINE-182" data-name="LWPOLYLINE"><rect class="cls-1" x="401.44" y="356.3" width="8.5" height="8.5"/></g><g id="LWPOLYLINE-183" data-name="LWPOLYLINE"><rect class="cls-1" x="401.44" y="379.39" width="8.5" height="8.5"/></g><g id="LWPOLYLINE-184" data-name="LWPOLYLINE"><rect class="cls-1" x="449.22" y="402.47" width="8.5" height="8.5"/></g><g id="LWPOLYLINE-185" data-name="LWPOLYLINE"><rect class="cls-1" x="449.22" y="333.22" width="8.5" height="8.5"/></g><g id="LWPOLYLINE-186" data-name="LWPOLYLINE"><rect class="cls-1" x="305.87" y="333.22" width="8.5" height="8.5"/></g><g id="LWPOLYLINE-187" data-name="LWPOLYLINE"><rect class="cls-1" x="425.33" y="356.3" width="8.5" height="8.5"/></g><g id="LWPOLYLINE-188" data-name="LWPOLYLINE"><rect class="cls-1" x="425.33" y="379.39" width="8.5" height="8.5"/></g><g id="LWPOLYLINE-189" data-name="LWPOLYLINE"><rect class="cls-1" x="377.54" y="402.47" width="8.5" height="8.5"/></g><g id="LWPOLYLINE-190" data-name="LWPOLYLINE"><rect class="cls-1" x="377.54" y="333.22" width="8.5" height="8.5"/></g><g id="LWPOLYLINE-191" data-name="LWPOLYLINE"><rect class="cls-1" x="401.44" y="333.22" width="8.5" height="8.5"/></g><g id="LWPOLYLINE-192" data-name="LWPOLYLINE"><rect class="cls-1" x="281.98" y="425.55" width="8.5" height="8.5"/></g><g id="LWPOLYLINE-193" data-name="LWPOLYLINE"><rect class="cls-1" x="353.65" y="356.3" width="8.5" height="8.5"/></g><g id="LWPOLYLINE-194" data-name="LWPOLYLINE"><rect class="cls-1" x="329.76" y="356.3" width="8.5" height="8.5"/></g><g id="LWPOLYLINE-195" data-name="LWPOLYLINE"><rect class="cls-1" x="425.33" y="333.22" width="8.5" height="8.5"/></g></svg>